<?xml version="1.0" encoding="UTF-8"?>
<svg id="_レイヤー_2" data-name="レイヤー 2" xmlns="http://www.w3.org/2000/svg" viewBox="0 0 348.4 86.4">
  <defs>
    <style>
      .cls-1 {
        fill: #fff;
      }

      .cls-2 {
        fill: #c30018;
      }

      .cls-3 {
        fill: #63a845;
      }

      .cls-4 {
        fill: #3f3c3c;
      }

      .cls-5 {
        fill: #fe0;
      }

      .cls-6 {
        fill: #251e1c;
      }

      .cls-7 {
        fill: #db940f;
      }

      .cls-8 {
        fill: #232582;
      }
    </style>
  </defs>
  <g id="_レイヤー_1-2" data-name="レイヤー 1">
    <path class="cls-5" d="M195.89,52.51c-.29-.17-.55-.43-.77-.81-.72-1.3-.69-2.9-1.02-4.32-.22-.96-.75-1.94-.68-2.95.1-1.6,1.9-1.35,3.17-1.59,3.9-.75,7.77-1.6,11.65-2.43-.92-2.14-1.99-4.21-3.02-6.3-.4-.81-.8-1.63-1.21-2.44-.27-.56-1.28-1.89-1.23-2.48.06-.74,1.13-.81,1.78-.98.93-.25,1.87-.5,2.8-.76,1.39-.38,2.72-.96,4.11-1.31.61-.16,1.45-.45,2.09-.32.79.15.73.48.87,1.24.44,2.4.61,5.33,1.49,7.61,0,0,1.18,3.04,1.18,3.04.04.1,4.57-1.46,4.86-1.55,1.58-.53,7.4-3.85,8.34-1.89.51,1.06.56,2.53.77,3.67.19,1.07.59,2.1.72,3.18.21,1.72-.24,1.94-1.85,2.32-.85.2-9.95,2.45-9.97,2.39.42,1.35,1.44,3.97,2.54,7.44.04.13,4.13-1.49,4.39-1.6,1.19-.49,2.37-1.01,3.55-1.54,1.28-.57,2.79-1.79,3.63-.16.55,1.09.9,2.35,1.33,3.49.52,1.37,1.58,2.76,1.62,4.27.04,1.6-2.14,1.51-3.39,1.8-2.66.61-5.33,1.23-7.99,1.84,1.31,3.52,2.59,7.04,3.84,10.58.5,1.42,1.22,2.77,1.53,4.25.35,1.64.08,1.89-1.28,2.58-1.47.75-3.19,2.06-4.81,2.42-1.97.44-2.64-4.68-3.13-6.07-1.37-3.87-2.8-7.72-4.28-11.55-.1-.25-7.11,2.22-7.67,2.42-1.55.55-3.1,1.13-4.63,1.72-1.03.4-2.89,1.66-3.89.59-.71-.76-.96-2.89-1.28-3.9-.38-1.22-2.48-4.86-1.25-5.99.43-.4,1.79-.2,2.38-.26,1.07-.11,2.14-.22,3.21-.36,1.97-.25,3.92-.57,5.86-.98.51-.17,2.12-.68,3.97-1.18-.42-1.27-1.52-3.97-2.71-7.36-3.65,1-7.26,2.18-10.87,3.32-1.44.46-3.45,1.66-4.78.91Z"/>
    <path class="cls-5" d="M277.05,62.48c2.07-2.87,4.54-6.36,5.49-9.81.02-.07.03-.16-.01-.22-.05-.07-.16-.07-.25-.06-2.69.33-5.31.22-8.05.28-4.72.1-9.48-.01-13.99,1.61-1.21.43-3.58,1.72-4.87,1.22-1.37-.52-.91-3.4-1.02-4.54-.13-1.37-.29-2.74-.4-4.11-.03-.45-.42-1.73-.27-1.96.25-.39,1.5-.32,1.87-.33,1.54-.07,3.07.12,4.61.09,1.73-.04,3.47-.09,5.2-.12,6.56-.1,13.2.05,19.7-.93,1.37-.21,3.2-1.25,4.14.14,1.21,1.77,1.89,3.77,2.72,5.73s1.24,3.19.21,5.18c-.75,1.45-1.58,2.86-2.45,4.24-2.22,3.52-4.73,6.85-7.33,10.1-2.94,3.68-5.96,7.34-9.45,10.52-.67.61-1.35,1.2-2.07,1.75-.5.39-1.33,1.32-1.93,1.39-1.54.18-2.78-2.59-3.58-3.54-.79-.93-1.57-1.87-2.36-2.8-.63-.75-2.39-1.57-.59-2.16,6.29-2.06,10.84-6.41,14.64-11.67ZM288.29,30.07c1.09.46.73,2.04.99,3.41.18.94,1.53,5.12.6,5.7-1.02.63-3.4.04-4.54-.02-1.71-.09-3.41-.17-5.12-.24-3.36-.13-6.72-.17-10.07.04-1.67.1-3.33.36-4.97.67-1.53.29-3.4,1.05-4.95,1.01-1.96-.05-2.08-3.14-2.54-4.61-.4-1.28-.95-2.61-1.17-3.93-.16-.93.17-.95,1.12-1.11.88-.14,1.79-.13,2.67-.13,1.47,0,2.94.15,4.4.17,3.22.04,6.43.08,9.65,0,2.58-.07,5.16-.27,7.73-.55,1.75-.2,3.48-.43,5.24-.54.41-.03.73.02.97.12Z"/>
    <path class="cls-5" d="M332.69,62.48c2.07-2.87,4.54-6.36,5.49-9.81.02-.07.03-.16-.01-.22-.05-.07-.16-.07-.25-.06-2.69.33-5.31.22-8.05.28-4.72.1-9.48-.01-13.99,1.61-1.21.43-3.58,1.72-4.87,1.22-1.37-.52-.91-3.4-1.02-4.54-.13-1.37-.29-2.74-.4-4.11-.03-.45-.42-1.73-.27-1.96.25-.39,1.5-.32,1.87-.33,1.54-.07,3.07.12,4.61.09,1.73-.04,3.47-.09,5.2-.12,6.56-.1,13.2.05,19.7-.93,1.37-.21,3.2-1.25,4.14.14,1.21,1.77,1.89,3.77,2.72,5.73.83,1.94,1.24,3.19.21,5.18-.75,1.45-1.58,2.86-2.45,4.24-2.22,3.52-4.73,6.85-7.33,10.1-2.94,3.68-5.96,7.34-9.45,10.52-.67.61-1.35,1.2-2.07,1.75-.5.39-1.33,1.32-1.93,1.39-1.54.18-2.78-2.59-3.58-3.54-.79-.93-1.57-1.87-2.36-2.8-.63-.75-2.39-1.57-.59-2.16,6.29-2.06,10.84-6.41,14.64-11.67ZM343.93,30.07c1.09.46.73,2.04.99,3.41.18.94,1.53,5.12.6,5.7-1.02.63-3.4.04-4.54-.02-1.71-.09-3.41-.17-5.12-.24-3.36-.13-6.72-.17-10.07.04-1.67.1-3.33.36-4.97.67-1.53.29-3.4,1.05-4.95,1.01-1.96-.05-2.08-3.14-2.54-4.61-.4-1.28-.95-2.61-1.17-3.93-.16-.93.17-.95,1.12-1.11.88-.14,1.79-.13,2.67-.13,1.47,0,2.94.15,4.4.17,3.22.04,6.43.08,9.65,0,2.58-.07,5.16-.27,7.73-.55,1.75-.2,3.48-.43,5.24-.54.41-.03.73.02.97.12Z"/>
    <path class="cls-6" d="M221.82,84.98c-2.05,0-2.84-3.26-3.37-5.46-.12-.5-.24-.98-.33-1.23-1.18-3.34-2.49-6.9-4.01-10.85-1.43.4-4.97,1.61-6.81,2.26-1.43.51-2.94,1.07-4.61,1.71-.19.07-.4.17-.63.29-1.11.53-2.98,1.41-4.23.08-.67-.71-.97-2.04-1.22-3.21-.09-.4-.17-.76-.25-1.03-.07-.23-.25-.63-.43-1.06-.84-1.92-1.99-4.55-.57-5.85.57-.52,1.51-.5,2.33-.49.22,0,.42.01.57,0,1.06-.1,2.13-.22,3.18-.36,2.11-.27,3.99-.59,5.74-.96.51-.17,1.66-.53,3.05-.92-.16-.43-.35-.93-.57-1.5-.44-1.17-.98-2.58-1.54-4.17-2.87.8-5.75,1.72-8.54,2.62l-1.49.48c-.32.1-.67.24-1.03.39-1.36.55-3.06,1.23-4.45.45h0c-.45-.25-.83-.64-1.11-1.16-.57-1.02-.73-2.12-.88-3.19-.07-.48-.13-.93-.23-1.35-.07-.29-.17-.58-.26-.87-.23-.7-.49-1.49-.44-2.33.13-2.02,1.99-2.2,3.11-2.31.27-.03.54-.05.78-.1,3.06-.59,6.16-1.25,9.16-1.9l1.41-.3c-.61-1.34-1.27-2.67-1.91-3.96l-1.85-3.75c-.07-.14-.2-.35-.34-.57-.6-.97-1.03-1.71-.98-2.37.1-1.27,1.39-1.55,2.09-1.69.12-.03.24-.05.34-.08l2.8-.76c.63-.17,1.25-.39,1.9-.61.72-.25,1.46-.51,2.22-.7l.3-.08c.64-.18,1.44-.39,2.18-.25,1.3.25,1.43,1.09,1.53,1.7l.04.26c.13.73.24,1.5.35,2.3.25,1.8.51,3.65,1.1,5.15l.77,1.99c.04.11.08.22.12.32.59-.18,1.7-.55,3.79-1.25l.25-.09c.3-.1.84-.35,1.47-.63,2.89-1.31,6.84-3.12,7.96-.8.43.89.57,1.97.7,2.92.04.34.09.67.14.98.08.44.2.87.31,1.3.16.62.33,1.26.42,1.94.3,2.44-.81,2.89-2.52,3.3-.21.05-.93.23-1.9.46-1.46.36-3.47.85-5.12,1.25-.84.2-1.49.36-1.99.47.12.36.27.77.43,1.21.44,1.23.97,2.72,1.54,4.48,1.1-.39,3.11-1.18,3.46-1.33,1.18-.49,2.36-1,3.53-1.53.21-.09.42-.2.64-.32.87-.45,1.85-.95,2.83-.64.55.18.99.58,1.31,1.21.4.79.69,1.63.97,2.45.13.38.26.77.4,1.13.15.4.37.82.59,1.27.5.98,1.06,2.08,1.09,3.3.05,2.06-2.05,2.37-3.3,2.56-.28.04-.55.08-.78.13l-7.01,1.61c1.14,3.09,2.29,6.25,3.5,9.64.17.47.36.94.55,1.41.39.94.79,1.91,1.01,2.95.44,2.06-.05,2.69-1.74,3.56-.45.23-.92.51-1.4.8-1.16.7-2.37,1.42-3.61,1.69-.16.04-.32.05-.47.05ZM214.77,65.52c.52,0,.61.24.75.6,1.63,4.24,3.04,8.03,4.29,11.58.12.34.24.84.38,1.41.89,3.69,1.47,4.17,1.72,4.09.97-.21,2.04-.86,3.09-1.48.52-.31,1.03-.62,1.51-.86q1.04-.53.81-1.6c-.19-.89-.54-1.74-.92-2.65-.2-.49-.41-.99-.59-1.49-1.33-3.73-2.58-7.18-3.84-10.56l-.35-.95,8.98-2.07c.27-.06.59-.11.92-.16,1.39-.21,1.79-.38,1.79-.75-.02-.82-.44-1.66-.89-2.54-.24-.47-.48-.95-.67-1.44-.15-.39-.29-.79-.42-1.19-.26-.76-.53-1.54-.87-2.22-.05-.1-.16-.28-.27-.32-.28-.09-.97.27-1.47.53-.25.13-.49.25-.73.36-1.18.53-2.37,1.05-3.57,1.55-4.49,1.88-4.81,1.72-5.1,1.59l-.36-.16-.12-.38c-.66-2.09-1.28-3.84-1.78-5.25-.32-.92-.59-1.66-.76-2.2l.85-.27-.1-.88c.45-.07,5.52-1.31,7.95-1.91.97-.24,1.7-.42,1.91-.47q1.29-.31,1.17-1.35c-.07-.56-.21-1.11-.37-1.69-.12-.46-.25-.94-.34-1.44-.06-.33-.11-.69-.16-1.06-.11-.86-.23-1.75-.53-2.38-.11-.22-.87-.51-5.62,1.65-.7.32-1.25.57-1.64.7l-.25.08q-5.39,1.83-5.73.95l-.41-1.05c-.47-1.21-.67-1.73-.76-2h0c-.66-1.69-.93-3.65-1.2-5.55-.11-.77-.21-1.52-.34-2.22l-.05-.3c-.01-.07-.02-.15-.04-.21-.02,0-.05-.01-.07-.02-.33-.06-.93.1-1.37.22l-.33.09c-.69.18-1.37.41-2.08.66-.65.23-1.33.46-2.02.65l-2.8.76c-.13.04-.28.07-.43.1-.18.04-.49.11-.66.18.11.28.49.89.69,1.21.18.29.34.54.43.73l1.85,3.74c.81,1.64,1.66,3.33,2.39,5.04l.43,1-3.54.76c-3.01.65-6.12,1.31-9.19,1.9-.29.06-.61.09-.94.12-1.36.14-1.48.27-1.51.66-.03.5.15,1.06.35,1.66.12.35.23.69.31,1.03.12.5.19,1.01.26,1.5.14.95.27,1.85.67,2.58.12.22.26.38.43.47.65.36,1.9-.15,2.92-.55.41-.16.8-.32,1.16-.43l1.49-.48c3.07-.98,6.24-1.99,9.41-2.86l.8-.22.27.78c.66,1.9,1.3,3.57,1.81,4.92.4,1.05.72,1.89.9,2.45l.3.89-.91.25c-1.86.51-3.47,1.02-3.93,1.17l-.09.03c-1.82.39-3.76.72-5.93,1-1.08.14-2.16.26-3.24.37-.2.02-.48.02-.78.01-.31,0-.97-.02-1.15.06-.26.25.08,1.54,1.06,3.79.21.49.4.91.5,1.24.1.31.19.73.29,1.18.18.8.45,2.01.78,2.37.36.39,1.45-.13,2.17-.47.28-.13.54-.25.76-.34,1.69-.65,3.21-1.21,4.65-1.73,5.21-1.85,7.2-2.5,8.05-2.5Z"/>
    <path class="cls-6" d="M265.92,86.4c-1.57,0-2.68-1.71-3.49-2.97-.23-.36-.45-.69-.61-.89l-2.36-2.8c-.11-.13-.3-.29-.48-.45-.55-.47-1.24-1.06-1.08-1.9.16-.84,1.08-1.14,1.38-1.24,5.36-1.75,9.87-5.36,14.2-11.35,1.59-2.2,3.93-5.43,5.06-8.58-1.68.14-3.35.15-4.97.16-.71,0-1.43,0-2.16.02l-1.5.03c-4.09.06-8.31.13-12.21,1.53-.25.09-.54.21-.87.35-1.46.62-3.27,1.38-4.62.86-1.64-.63-1.6-2.88-1.57-4.37,0-.36.01-.68,0-.92-.05-.52-.1-1.04-.16-1.56-.09-.85-.18-1.71-.24-2.56,0-.13-.06-.36-.11-.6-.2-.96-.3-1.48-.01-1.92.44-.67,1.37-.73,2.37-.73h.21c.87-.04,1.73,0,2.57.03.71.03,1.39.06,2.07.05l1.96-.05c1.08-.03,2.17-.05,3.25-.07,1.18-.02,2.35-.03,3.53-.04,5.3-.04,10.77-.09,16.05-.88.28-.04.61-.13.96-.23,1.18-.33,2.98-.83,4.05.75,1,1.46,1.65,3.06,2.28,4.6.17.43.35.86.53,1.28.89,2.08,1.38,3.62.18,5.94-.69,1.35-1.51,2.76-2.49,4.31-1.96,3.1-4.31,6.34-7.38,10.18-2.88,3.6-5.98,7.38-9.55,10.62-.76.69-1.45,1.28-2.12,1.8-.12.09-.26.22-.42.36-.58.53-1.23,1.12-1.96,1.2-.09.01-.17.01-.25.01ZM259.97,77.8c.06.05.11.09.16.13.24.21.49.42.69.66l2.36,2.8c.24.28.47.65.75,1.07.5.78,1.47,2.24,2.05,2.16.19-.05.71-.52.96-.75.19-.17.37-.34.52-.45.63-.49,1.29-1.05,2.01-1.71,3.47-3.16,6.53-6.88,9.36-10.42,3.03-3.79,5.34-6.97,7.27-10.02.95-1.51,1.74-2.87,2.41-4.17.82-1.59.57-2.53-.24-4.43-.19-.44-.36-.87-.54-1.31-.62-1.52-1.2-2.96-2.1-4.27-.3-.44-.81-.4-2.11-.04-.38.11-.78.22-1.17.27-5.4.82-10.94.86-16.3.91-1.17,0-2.35.02-3.52.04-1.08.02-2.15.04-3.23.07l-1.97.05c-.74.01-1.47-.02-2.19-.05-.83-.04-1.62-.08-2.4-.04-.07,0-.17,0-.29,0-.14,0-.46,0-.72.03.03.17.07.35.1.47.07.34.13.65.15.83.06.84.15,1.68.24,2.52.05.53.11,1.05.16,1.58.03.31.02.68.02,1.11-.01.75-.04,2.5.43,2.68.68.26,2.32-.43,3.29-.84.36-.15.69-.29.96-.39,4.17-1.5,8.55-1.57,12.78-1.63l1.49-.03c.74-.01,1.46-.02,2.19-.02,1.98,0,3.85-.02,5.77-.25.6-.07.92.22,1.06.39.13.16.31.51.17,1.01-1.03,3.74-3.8,7.56-5.63,10.09h0c-4.52,6.25-9.28,10.05-14.94,11.95ZM278.83,55.28s0,0,0,0c0,0,0,0,0,0ZM257.5,44.4s-.1,0-.15,0c-2.24-.06-2.77-2.54-3.12-4.18-.08-.39-.16-.76-.25-1.06-.11-.35-.23-.71-.36-1.06-.33-.96-.67-1.96-.85-2.99-.07-.42-.11-.97.21-1.42.36-.51.92-.6,1.56-.7,1.01-.16,1.93-.16,2.83-.15.85,0,1.63.05,2.4.09.69.04,1.38.08,2.08.08,3.15.04,6.42.08,9.61,0,2.45-.07,5.02-.25,7.66-.55l1.27-.15c1.31-.15,2.66-.31,4.01-.4.54-.03.99.03,1.37.19h0c1.28.54,1.36,1.88,1.42,2.95.02.38.04.77.11,1.11.03.17.11.47.2.83.73,2.83,1.2,5.05,0,5.8-1.03.63-2.62.42-4.02.23-.39-.05-.75-.1-1.03-.12h-.19c-1.64-.09-3.28-.18-4.92-.24-4.01-.15-7.1-.14-9.98.04-1.41.09-2.91.29-4.86.66-.5.09-1.05.24-1.63.4-1.12.31-2.27.63-3.37.63ZM254.53,34.8s0,.01,0,.01c.15.88.47,1.81.78,2.71.13.37.25.74.37,1.1.11.36.2.78.3,1.22.32,1.5.65,2.75,1.42,2.77.9.03,1.95-.27,3-.56.59-.16,1.2-.33,1.77-.44,2.03-.38,3.6-.59,5.08-.69,2.95-.18,6.08-.2,10.16-.04,1.65.06,3.3.15,4.94.23h.19c.32.03.73.08,1.18.14.82.11,2.17.29,2.74.07.16-.71-.46-3.09-.66-3.89-.11-.41-.19-.75-.23-.94-.09-.46-.11-.93-.14-1.35-.04-.79-.09-1.31-.33-1.41-.09-.04-.25-.07-.57-.05-1.31.08-2.63.24-3.92.39l-1.28.15c-2.68.3-5.31.49-7.8.56-3.24.09-6.52.05-9.69,0-.72,0-1.43-.05-2.15-.09-.75-.04-1.5-.08-2.25-.09-.89,0-1.75-.01-2.52.12-.14.02-.28.04-.39.06Z"/>
    <path class="cls-6" d="M321.56,86.4c-1.57,0-2.67-1.71-3.49-2.97-.23-.36-.45-.7-.61-.89l-2.36-2.8c-.11-.13-.3-.29-.49-.45-.55-.47-1.24-1.06-1.08-1.9.16-.84,1.08-1.14,1.38-1.24,5.36-1.75,9.87-5.36,14.2-11.35,1.59-2.2,3.93-5.43,5.06-8.58-1.68.14-3.35.15-4.97.16-.71,0-1.43,0-2.16.02l-1.5.03c-4.09.06-8.31.13-12.21,1.53-.25.09-.54.21-.87.35-1.46.62-3.27,1.38-4.62.86-1.63-.63-1.6-2.88-1.57-4.37,0-.36.01-.68,0-.92-.05-.53-.1-1.05-.16-1.58-.09-.85-.17-1.7-.24-2.55-.01-.13-.06-.36-.11-.6-.2-.96-.3-1.48-.01-1.92.44-.67,1.37-.73,2.36-.73h.21c.87-.04,1.73,0,2.57.03.71.03,1.39.06,2.07.05l1.96-.05c1.08-.03,2.17-.05,3.25-.07,1.18-.02,2.35-.03,3.53-.04,5.3-.04,10.77-.09,16.05-.88.28-.04.61-.13.96-.23,1.18-.33,2.98-.82,4.05.75,1,1.46,1.65,3.06,2.28,4.6.17.43.35.86.53,1.28.89,2.08,1.38,3.62.18,5.94-.69,1.34-1.5,2.75-2.49,4.31-1.96,3.1-4.31,6.33-7.38,10.18-2.88,3.6-5.99,7.38-9.55,10.62-.76.69-1.46,1.28-2.12,1.8-.12.09-.26.23-.42.37-.58.52-1.23,1.12-1.96,1.2-.09.01-.17.01-.25.01ZM315.61,77.8c.06.05.11.09.15.13.24.21.49.42.69.66l2.36,2.8c.24.28.47.65.75,1.07.5.78,1.43,2.24,2.05,2.16.19-.05.71-.52.96-.75.19-.17.37-.34.52-.45.63-.49,1.29-1.04,2.02-1.71,3.47-3.15,6.52-6.87,9.36-10.42,3.04-3.79,5.35-6.98,7.27-10.02.96-1.51,1.75-2.88,2.41-4.17.82-1.6.57-2.53-.24-4.43-.19-.44-.36-.87-.54-1.31-.62-1.52-1.2-2.96-2.1-4.27-.3-.44-.82-.39-2.11-.03-.38.11-.78.22-1.17.27-5.4.82-10.94.86-16.3.91-1.17,0-2.35.02-3.52.04-1.08.02-2.15.04-3.23.07l-1.97.05c-.74.01-1.48-.02-2.19-.05-.83-.04-1.62-.08-2.4-.04-.07,0-.17,0-.29,0-.14,0-.46,0-.72.03.03.17.07.35.1.47.07.33.13.65.15.83.06.84.15,1.67.24,2.5.05.53.11,1.06.16,1.59.03.31.02.68.02,1.11-.01.75-.04,2.5.43,2.68.69.26,2.32-.43,3.29-.84.36-.15.69-.29.96-.39,4.17-1.5,8.55-1.57,12.78-1.63l1.49-.03c.74-.01,1.46-.02,2.19-.02,1.98,0,3.85-.02,5.77-.25.6-.07.92.22,1.06.39.12.16.31.5.17,1-1.04,3.75-3.8,7.57-5.63,10.1h0c-4.52,6.25-9.28,10.05-14.94,11.95ZM313.14,44.4s-.1,0-.15,0c-2.24-.06-2.77-2.54-3.12-4.17-.08-.39-.16-.76-.25-1.06-.11-.35-.23-.71-.36-1.07-.33-.96-.67-1.96-.85-2.98-.07-.42-.11-.97.21-1.42.36-.51.92-.6,1.56-.7,1.01-.16,1.93-.16,2.83-.15.85,0,1.63.05,2.4.09.69.04,1.38.08,2.08.09,3.16.04,6.42.08,9.62,0,2.45-.07,5.02-.25,7.65-.55l1.27-.15c1.31-.15,2.66-.31,4.01-.4.54-.03.99.03,1.37.19h0c1.28.54,1.36,1.88,1.42,2.95.02.38.04.77.11,1.11.03.18.11.47.21.83.73,2.82,1.2,5.04-.01,5.79-1.02.63-2.62.42-4.02.23-.39-.05-.75-.1-1.03-.12h-.2c-1.64-.09-3.27-.18-4.91-.24-4.02-.15-7.1-.14-9.98.04-1.41.09-2.91.29-4.86.66-.5.09-1.04.24-1.62.4-1.12.31-2.27.63-3.37.63ZM310.17,34.8v.02c.15.88.47,1.8.78,2.7.13.37.25.74.37,1.11.11.36.2.78.3,1.22.32,1.5.65,2.75,1.42,2.77.87.03,1.95-.27,3-.56.59-.16,1.2-.33,1.77-.44,2.03-.38,3.59-.59,5.08-.69,2.95-.18,6.08-.2,10.16-.04,1.65.06,3.29.14,4.94.23h.2c.32.03.73.08,1.18.14.82.11,2.17.29,2.74.07.16-.71-.45-3.08-.66-3.88-.11-.41-.19-.75-.23-.95-.09-.46-.11-.93-.14-1.35-.04-.79-.09-1.31-.33-1.41h0c-.07-.03-.24-.07-.57-.05-1.31.08-2.63.24-3.92.39l-1.28.15c-2.68.3-5.31.49-7.8.56-3.24.09-6.52.05-9.69,0-.72,0-1.44-.05-2.15-.09-.75-.04-1.5-.08-2.25-.09-.89,0-1.75-.01-2.52.12-.14.02-.28.04-.39.06Z"/>
    <path class="cls-7" d="M.63,48.73c-.21,9.64-.42,19.28-.62,28.92-.03,1.35-.03,2.79.69,3.93,1.18,1.85,3.73,2.14,5.93,2.22,10.19.36,20.4.4,30.59.11,2.45-.07,5.1-.23,7-1.79,2.3-1.9,2.72-5.2,2.93-8.17.73-10.62.77-21.28.11-31.9-.07-1.08-.15-2.21-.68-3.15-.81-1.45-2.46-2.18-4.05-2.65-4.19-1.22-8.62-1.25-12.98-1.27-7.06-.03-14.13-.07-21.19-.1-9.15-.04-7.57,6.76-7.73,13.86Z"/>
    <path class="cls-2" d="M53.42,81.35c-.02.56-.01,1.19.41,1.6.4.38,1.04.42,1.61.43,12.26.27,24.52.51,36.78.71,1.52.03,3.17.02,4.41-.81,1.86-1.23,2.05-3.7,2.05-5.84.04-8.91.07-17.83.11-26.74.01-2.45-.01-5.04-1.31-7.17-2.1-3.45-6.77-4.61-10.97-5.18-8.9-1.22-28.03-4.62-31.22,4.54-3.78,10.83-1.46,27.04-1.86,38.46Z"/>
    <path class="cls-8" d="M144.3,39.24c3.22,13.81,2.13,28.07,1.02,42.12-.07.94-.16,1.91-.72,2.71-1.21,1.73-3.97,1.92-6.3,1.89-8.61-.11-17.2-.55-25.76-1.33-1.95-.18-4.06-.43-5.44-1.63-1.53-1.33-1.72-3.4-1.8-5.28-.42-9.55-.53-19.1-.33-28.66.17-8.53,1.6-10.77,11.35-10.99,2.65-.06,27.59-.53,27.99,1.16Z"/>
    <path class="cls-3" d="M154.21,79.87c0,.97.02,2.01.57,2.81.93,1.37,2.88,1.45,4.53,1.39,7.11-.26,14.22-.53,21.34-.79.54-.02,1.12-.06,1.53-.4.55-.46.58-1.28.57-1.99-.14-9.29-.38-18.59-.74-27.88-.03-.84-.08-1.74-.57-2.43-.68-.96-1.97-1.2-3.14-1.35-6.56-.85-19.83-3.86-23.51,3.26-3.38,6.53-.58,20.14-.57,27.39Z"/>
    <path class="cls-1" d="M25.13,63.09s9.3,6.06,14.54,10.24l-6.12,6.94s-11.12-10.71-12.54-11.83l-.12,11.36s-4.3-.12-7.89,0l.35-36.19,8.65.23.29,14.83s5.53-5.12,11.36-10l5.06,6.94s-12.3,7.3-13.59,7.47Z"/>
    <path class="cls-1" d="M133.23,56.08s-.65-6.95-.71-13.42l7.53.12c-.18,24.72,0,31.49,0,38.02l-7.53-.12.29-5.53c-1.29,2.77-5.24,5.24-11.65,4.71-5.83-.47-11.71-5.83-11.48-15.18.24-8.89,7.06-13.89,14.24-13.42,5.53.41,8,2.94,9.3,4.83ZM130.35,65.74c0-2.41-1.12-5.59-5.06-6.42-3.94-.82-8.06,2-7.65,7,.24,3.47,3,5.94,6.77,5.94,2.83,0,5.94-2.41,5.94-6.53Z"/>
    <path class="cls-1" d="M165.79,60.14c-.05.6.1,1.36,1.06,1.96,2.51,1.51,8.99,1.51,10.25,6.68.95,3.72-.7,8.64-6.98,9.7-6.58,1.05-11.15-3.12-12.21-7.49l4.57-2.86c1.01,2.86,2.76,4.62,5.33,4.62,1.66,0,2.86-1.21,2.96-2.41.05-.9-.4-2.21-2.36-2.71-5.83-1.56-7.79-2.81-8.59-5.78-1.16-4.22,1.81-8.39,7.33-8.94,5.28-.5,9.7,2.41,10.55,6.78l-4.87,2.31c-.4-2.11-2.46-3.62-4.22-3.67-1.46-.1-2.66.65-2.81,1.81Z"/>
    <path class="cls-6" d="M152.69,28.26l2.8,1.08,1.35,3.07v3.07c-1.11,2.62-2.58,5.04-4.41,7.27l-1.67.27-1.67-1.4v-1.13l2.74-4.14-4.41-1.13c-1.11-.93-1.58-2.04-1.4-3.34l.81-1.67c1.69-1.47,3.64-2.12,5.87-1.94Z"/>
    <g>
      <path class="cls-4" d="M87.51,6.09c-.24,2.52-.95,4.96-2.22,7.03.95,1.07,2.16,2,3.77,2.72.42.18.58.52.58.87,0,.54-.46,1.13-1.07,1.13-.69,0-2.92-1.43-4.37-3.21-1.55,1.85-4.09,3.37-4.84,3.37-.58,0-1.01-.52-1.01-1.03,0-.34.18-.67.62-.85,1.77-.71,3.14-1.73,4.15-3-.91-1.49-1.51-3.12-1.85-4.7l-.02.02c-.22.34-.56.48-.89.48-.28,0-.56-.12-.73-.3v.28c-.14,4.54-.48,8.49-3.41,8.49-.38,0-1.79-.08-1.79-1.17,0-.44.26-.87.75-.87.1,0,.24.02.38.08.22.1.42.14.58.14.48,0,.83-.32,1.01-.89.56-1.63.67-3.65.69-5.42,0-.58-.3-.67-1.11-.67-.2,0-.42,0-.65.02-.34,3.29-1.07,6.63-2.82,8.79-.22.26-.5.38-.79.38-.54,0-1.07-.42-1.07-.91,0-.16.06-.34.2-.5,2.22-2.74,2.68-7.38,2.88-11.35l-1.61.04h-.02c-.6,0-.91-.44-.91-.89s.3-.89.91-.89h.02l2.24.04-.02-2.26c0-.62.5-.93.99-.93s1.01.3,1.01.93l-.02,2.26,2.42-.04h.02c.58,0,.87.44.87.87,0,.46-.28.91-.87.91h-.02l-3.12-.04c-.04.65-.08,1.31-.14,2,.42-.02.91-.02,1.31-.02.99,0,1.63.08,1.96.91.04-.1.08-.22.16-.34,1.21-1.69,2.18-4.6,2.48-6.49.08-.5.5-.75.93-.75.5,0,1.01.32,1.01.89,0,.71-.79,2.88-.89,3.14l5.48-.02c.56,0,.83.42.83.87s-.26.87-.83.87h-1.17ZM82.51,6.07l-.02.04c.26,1.98.75,3.83,1.67,5.44.85-1.59,1.29-3.45,1.47-5.46l-3.12-.02Z"/>
      <path class="cls-4" d="M94.53,5.18c-.56,0-.87-.42-.87-.83,0-.42.3-.83.87-.83h5.64c.58,0,.87.4.87.83s-.28.83-.87.83h-5.64ZM106.83,17.31c0,.54-.46.81-.91.81s-.93-.28-.93-.83v-.02l.06-4.23c-1.13,1.85-3.35,4.19-4.27,4.19-.48,0-.85-.38-.87-.81-.4.85-1.13.95-2.78.95-.52,0-1.05-.02-1.39-.04-.87-.06-1.43-.71-1.45-1.59,0-.52-.02-.99-.02-1.45s.02-.89.02-1.33c.02-.77.5-1.49,1.43-1.53.4-.02.95-.04,1.47-.04s1.03.02,1.33.04c.73.04,1.53.56,1.55,1.43.02.46.02.95.02,1.45s0,.97-.02,1.41c0,.06-.02.1-.02.16.06-.1.18-.18.3-.26,1.77-1.13,3.1-2.6,4.09-4.27l-2.88.06h-.02c-.52,0-.79-.4-.79-.79,0-.42.26-.83.81-.83l3.53.04-.02-1.31c-.54-.02-1.09-.04-1.51-.06-1.33-.06-1.96-.81-2.02-1.81-.02-.61-.04-1.27-.04-1.94s.02-1.37.04-2c.04-.81.58-1.67,2.04-1.73.67-.04,1.49-.04,2.36-.04s1.71,0,2.42.04c1.29.04,2.02.85,2.06,1.71.02.73.04,1.51.04,2.3,0,.56,0,1.13-.04,1.63-.06.93-.85,1.75-2.06,1.83-.44.04-1.01.06-1.61.06v1.31l3.89-.04c.56,0,.85.42.85.83s-.26.79-.83.79h-.02l-3.37-.06c1.25,1.57,2.76,2.82,4.33,3.79.34.2.48.5.48.81,0,.52-.46,1.05-1.03,1.05-1.13,0-4.01-3.65-4.29-4.03l.06,4.33v.02ZM95.3,2.42c-.54,0-.81-.4-.81-.81s.26-.81.81-.81h4.15c.54,0,.83.4.83.81s-.28.81-.83.81h-4.15ZM95.34,7.8c-.54,0-.81-.4-.81-.81s.26-.81.81-.81h3.95c.54,0,.83.4.83.81s-.28.81-.83.81h-3.95ZM95.34,10.4c-.54,0-.81-.4-.81-.81s.26-.81.81-.81h3.95c.54,0,.83.4.83.81s-.28.81-.83.81h-3.95ZM98.48,14.37c0-.32,0-.67-.02-.95-.04-.5-.38-.54-1.31-.54-1.29,0-1.29.02-1.29,1.47,0,.32.02.67.02.97.02.36.06.48,1.41.48.4,0,1.17,0,1.17-.5.02-.28.02-.6.02-.93ZM105.03,2.32c-1.77,0-1.83,0-1.83,1.71h1.85l-.02-1.71ZM105.06,5.36h-1.85c0,1.31,0,1.69.89,1.73l.99.02-.02-1.75ZM106.77,5.36l-.02,1.75c2,0,2-.02,2-1.75h-1.98ZM108.74,4.03c0-.34-.02-.68-.02-.99-.02-.73-.46-.73-1.94-.73v1.71h1.96Z"/>
      <path class="cls-4" d="M118.46,9.98c-1.37,1.11-1.67,1.25-1.98,1.25-.56,0-.97-.5-.97-1.01,0-.3.14-.6.48-.81,1.73-1.01,3.47-2.78,4.7-4.84.2-.32.48-.46.77-.46.54,0,1.05.52,1.05,1.03,0,.18-.06.36-.18.54-.62.89-1.27,1.69-1.96,2.44l-.22,9.09c-.02.61-.5.91-1.01.91-.46,0-.93-.28-.93-.87v-.04l.24-7.24ZM116.73,6.43c-.46,0-1.01-.3-1.01-.91,0-.32.2-.67.67-.95,1.57-.91,2.88-2.28,3.87-3.91.22-.36.52-.5.81-.5.52,0,1.01.44,1.01.99,0,.18-.06.4-.2.6-1.63,2.36-4.13,4.68-5.14,4.68ZM127.03,9.94c.91-.02,2.24-.06,2.58-.06.97,0,1.51.56,1.51,1.29,0,.81-1.01,2.36-1.96,3.41,1.01.67,2.3,1.15,3.91,1.35.5.06.75.44.75.87,0,.5-.36,1.05-1.07,1.05-.44,0-2.76-.38-4.84-2.08-2.42,1.96-4.88,2.34-5.1,2.34-.62,0-.97-.46-.97-.93,0-.36.24-.71.73-.81,1.55-.28,2.92-1.01,4.03-1.87-.54-.65-.99-1.31-1.31-2-.93,1.19-2.7,2.88-3.47,2.88-.52,0-.93-.44-.93-.91,0-.22.1-.46.36-.62,2-1.35,2.94-2.5,4.19-4.68-.69.06-2.22.2-3.12.2-.5,0-.77-.42-.77-.87,0-.4.24-.83.75-.83.67,0,1.33-.02,2-.04l.04-.02c.44-.34.91-.68,1.37-1.11-.79-.81-1.73-1.53-2.68-2-.34-.18-.48-.44-.48-.73,0-.42.36-.83.87-.83.26,0,.69.2.93.34.75-.77,1.39-1.77,1.83-2.72.14-.3.4-.42.69-.42.52,0,1.11.42,1.11.93,0,.4-1.01,1.89-2.28,3.08.46.34.89.73,1.27,1.11.85-.91,1.63-1.89,2.2-2.76.18-.28.48-.4.77-.4.52,0,1.05.36,1.05.87,0,.99-3.41,3.97-4.05,4.5,1.25-.1,2.46-.26,3.61-.42-.14-.14-.3-.26-.44-.38-.22-.18-.32-.4-.32-.58,0-.4.42-.75.89-.75.81,0,3.25,2.3,3.25,3.22,0,.56-.48.99-.97.99-.3,0-.58-.14-.79-.48-.16-.26-.32-.52-.5-.77-1.33.26-2.84.5-4.41.69.04.1.06.2.06.3,0,.16-.04.32-.16.5l-.1.14ZM128.99,11.55c0-.18-.16-.22-.3-.22h-.06c-.14,0-1.27.04-2.18.04.32.68.77,1.37,1.35,2.02.44-.5,1.19-1.49,1.19-1.83Z"/>
      <path class="cls-4" d="M148,3.18c-.12.12-1.33,1.39-2,1.39-.5,0-.91-.4-.91-.83,0-.2.1-.42.34-.6-.08.02-.16.04-.24.04h-3.63c-1.73,2.68-2.46,2.7-2.68,2.7-.5,0-.95-.38-.95-.87,0-.2.1-.44.32-.65,1.25-1.13,2.06-2.3,2.76-3.87.14-.32.4-.46.69-.46.48,0,.99.4.99.93,0,.14-.02.28-.1.42-.04.1-.1.18-.14.28h2.74c.52,0,.79.38.79.77,0,.16-.06.3-.14.44.89-.65,1.51-1.31,2.26-2.54.14-.24.36-.34.58-.34.44,0,.91.42.91.91,0,.3-.14.48-.36.77h4.68c.52,0,.79.38.79.75,0,.38-.26.77-.79.77h-5.91ZM154.07,13.46l-3.61-.06.02.56v1.61c0,1.07-.69,2.48-2.9,2.48-.93,0-1.91-.06-1.91-1.05,0-.46.28-.93.77-.93.06,0,.12,0,.18.02.36.08.73.14,1.03.14.58,0,.99-.24.99-1.03v-.04l-.02-1.77-9.57.06c-.54,0-.83-.4-.83-.81s.28-.83.83-.83l9.55.02v-.44c0-.54.44-.81.91-.81s.95.26.95.83v.42l3.63-.02c.56,0,.85.4.85.81s-.28.83-.83.83h-.02ZM139.31,10.52c-.58,0-.89-.4-.89-.81s.3-.79.89-.79h6.35l-.02-1.29h-4.62c-.58,0-.89-.38-.89-.77,0-.4.3-.79.89-.79h4.62v-.4c0-.6.46-.91.95-.91s.93.3.93.91v.4h4.43c.58,0,.87.38.87.79s-.28.77-.87.77h-4.43l-.02,1.29h6.25c.54,0,.85.42.85.83s-.26.77-.85.77h-14.43ZM142.72,5.56c-.24-.46-.56-.77-.91-1.03-.2-.14-.28-.32-.28-.5,0-.36.36-.71.81-.71.38,0,1.83.81,1.83,1.69,0,.52-.46.91-.89.91-.22,0-.44-.12-.56-.36ZM144.09,16.27c-.6-.58-1.31-.85-1.98-1.09-.28-.1-.4-.34-.4-.58,0-.44.38-.93.91-.93.28,0,3,.64,3,1.81,0,.52-.46,1.03-.97,1.03-.2,0-.38-.08-.56-.24ZM150.28,5.54c-.24-.46-.56-.77-.91-1.03-.2-.14-.28-.32-.28-.5,0-.36.36-.71.81-.71.38,0,1.83.81,1.83,1.69,0,.52-.46.91-.89.91-.22,0-.44-.12-.56-.36Z"/>
      <path class="cls-4" d="M162.41,17.03c-1.98.68-2.3-1.47-.89-1.85,3.21-.87,4.98-3.33,5.12-6.33-2.24.02-4.45.08-5.87.12-.69.02-1.05-.42-1.05-.91s.36-.99,1.15-.99c2.86-.04,9.21-.08,12.5-.1.71,0,1.03.48.99.97-.04.48-.4.93-1.11.91-1.09-.04-2.74-.04-4.52-.02-.18,3.65-2.34,6.81-6.33,8.2ZM163.13,4.92c-1.51,0-1.41-1.92.02-1.9,2.54.02,4.33-.06,6.97-.12.71-.02,1.03.46,1.03.93s-.34.97-.95.97c-2.78.04-4.92.12-7.07.12ZM173.21,5.36c-.2-.36-.99-1.27-1.35-1.51-.91-.65.1-1.63.95-1.11.48.3,1.37,1.05,1.71,1.61.6.99-.83,1.91-1.31,1.01ZM175.71,4.13c-.34-.36-1.05-1.21-1.41-1.45-.93-.6.04-1.65.91-1.15.48.28,1.39,1.01,1.75,1.55.62.97-.54,1.79-1.25,1.05Z"/>
      <path class="cls-4" d="M180.42,13.32c-1.85,1.13-2.9-.93-1.53-1.59,3.71-1.81,7.56-5.52,9.84-9.11.89-1.39,2.66-.1,1.79,1.07-.91,1.21-1.77,2.3-2.64,3.31-.06,2.06-.1,7.34-.04,9.35.04,1.53-2.14,1.71-2.12.06.02-1.61.1-4.9.12-7.26-1.59,1.55-3.33,2.9-5.42,4.17Z"/>
      <path class="cls-4" d="M208.12,8.26c0,3.85-1.63,7.08-5.34,9.21-1.61.93-2.42-.93-1.17-1.61,3.12-1.71,4.52-4.27,4.52-7.52v-.46c-1.09,0-2.16.02-3.23.04,0,1.15,0,2.22-.02,3-.02.69-.5,1.05-1.03,1.05s-1.05-.36-1.01-1.03c.04-.83.06-1.88.06-2.98-1.27.04-2.52.08-3.65.14-1.57.08-1.51-1.83-.12-1.88,1.21-.04,2.48-.06,3.75-.08-.02-.95-.04-1.83-.08-2.52-.06-1.37,1.91-1.53,2-.08.04.67.06,1.57.08,2.56,1.09-.02,2.16-.04,3.25-.06,0-1.05,0-2.04-.02-2.6-.08-1.67,2.04-1.57,2.02-.02-.02.81-.02,1.69-.02,2.6,1.29-.02,2.58-.04,3.79-.04,1.9-.02,1.47,2,.06,1.96-1.25-.04-2.52-.06-3.83-.06v.38Z"/>
      <path class="cls-4" d="M218.87,10.02c-.73,0-1.07-.48-1.07-.97s.38-1.03,1.07-1.03h12.66c.69,0,1.03.5,1.03,1.01s-.34.99-1.03.99h-12.66Z"/>
      <path class="cls-4" d="M241.56,12.7c-.04.99.4,1.47,1.61,1.63,1.17.16,4.43-.04,5.87-.54,1.53-.52,2.4,1.65.42,2.18-1.81.48-4.9.54-7.01.28-1.77-.22-2.84-1.37-2.86-3.02-.02-2.02.12-6.51.14-8.91,0-1.41,2.08-1.13,2.06.06-.02,1.09-.06,2.6-.1,4.09,1.59-.3,4.84-1.21,6.35-1.87,1.47-.65,2.48,1.41.75,2.02-1.91.64-4.86,1.57-7.16,1.83-.02.89-.04,1.69-.06,2.26ZM248.82,5.12c-1.03-.42-.22-1.65.71-1.31.54.2,1.55.75,2,1.23.79.85-.38,2.08-1.05,1.29-.26-.32-1.25-1.03-1.65-1.21ZM250.65,3.39c-1.03-.4-.3-1.61.65-1.31.54.18,1.57.69,2.04,1.15.81.81-.32,2.08-1.01,1.31-.28-.3-1.27-.99-1.67-1.15Z"/>
      <path class="cls-4" d="M258.51,16.31c-1.47.54-2.16-1.43-.65-1.96,3.67-1.27,6.85-4.5,8.45-7.5.18-.34.1-.67-.34-.67-1.27-.02-4.05.08-5.83.12-1.21.04-1.29-1.9,0-1.96,1.47-.06,4.43-.1,6.47-.1,1.81,0,2.84,1.15,2.06,2.52-.69,1.19-1.41,2.34-2.24,3.43,1.67,1.01,4.23,2.7,5.16,3.99.81,1.13-.71,2.7-1.65,1.51-.99-1.23-3.06-3.06-4.72-4.05-1.77,1.98-3.95,3.61-6.71,4.66Z"/>
    </g>
    <path class="cls-1" d="M71.08,53.88l8.47.12s.52,25.86.52,27.41l-9.84-.18s.59-22.89.85-27.35Z"/>
    <path class="cls-1" d="M74.74,38.99c.35-1.08.93-1.08,1.28,0l.4,1.25c.35,1.08,1.57,1.97,2.71,1.97h1.31c1.14,0,1.31.55.39,1.21l-1.06.77c-.92.67-1.38,2.1-1.03,3.18l.4,1.25c.35,1.08-.11,1.42-1.03.75l-1.06-.77c-.92-.67-2.42-.67-3.34,0l-1.06.77c-.92.67-1.38.33-1.03-.75l.4-1.25c.35-1.08-.11-2.51-1.03-3.18l-1.06-.77c-.92-.67-.74-1.21.39-1.21h1.31c1.14,0,2.35-.88,2.71-1.97l.4-1.25Z"/>
  </g>
</svg>