<?xml version="1.0" encoding="UTF-8"?>
<svg id="_レイヤー_2" data-name="レイヤー 2" xmlns="http://www.w3.org/2000/svg" viewBox="0 0 171 281.68">
  <defs>
    <style>
      .cls-1 {
        fill: #fff;
      }

      .cls-2 {
        fill: #c30018;
      }

      .cls-3 {
        fill: #63a845;
      }

      .cls-4 {
        fill: #3f3c3c;
      }

      .cls-5 {
        fill: none;
      }

      .cls-6 {
        fill: #fe0;
      }

      .cls-7 {
        fill: #251e1c;
      }

      .cls-8 {
        fill: #db940f;
      }

      .cls-9 {
        fill: #232582;
      }
    </style>
  </defs>
  <g id="_レイヤー_1-2" data-name="レイヤー 1">
    <g>
      <g>
        <path class="cls-1" d="M32.14,96.06c-5.06,2.67-10.11,5.35-15.17,8.02-.47-2.37-.94-4.74-1.4-7.12-.22-1.13-.82-2.56-1.97-2.44-1.01.11-1.4,1.34-1.56,2.34-.24,1.5-.48,3-.72,4.51-.76-1.26-2-2.24-3.4-2.69-1.1-.35-2.54-.26-3.09.75-.84,1.55,1.17,3.06,2.83,3.64,1.66.58,3.74,1.88,3.1,3.52-2.28-.55-4.62-.83-6.97-.83-1.53,0-3.61.85-3.15,2.31.22.7.98,1.07,1.68,1.31,2.04.68,4.24.9,6.38.63-3.05.68-5.5,3.48-5.77,6.59,2.66,1.1,5.63-.28,8.18-1.62-.47,1.51-.93,3.14-.47,4.65s2.27,2.72,3.66,1.96c1.94-1.06.95-4.03,1.53-6.16.76-2.78,4.08-3.78,6.86-4.53,7.01-1.91,13.66-5.1,19.53-9.37,1.73-1.26,3.44-2.67,4.43-4.56,1.55-2.95.52-7.77-3.52-7.67-2.92.07-8.29,5.35-10.97,6.77Z"/>
        <path class="cls-1" d="M150.1,104.63c1.35.79,2.78,1.6,4.34,1.67-.08-3.15.52-6.31,1.74-9.22,2.88,1.3,2.79,5.36,2.24,8.47,2.04-3.03,6.56-4.06,9.71-2.2-2.78,1.86-5.56,3.71-8.35,5.57,3.19-.39,6.45-.12,9.53.79.56.53.28,1.55-.35,1.99-.63.44-1.46.47-2.23.48-1.88.03-3.75.05-5.63.08,3.58.61,6.42,4.15,6.23,7.78-.04.77-6.38-1.36-6.77-1.25-2.21.62-2.06,2.11-2.56,4.38-1.66.21-3.02-1.37-3.58-2.94s-.66-3.33-1.52-4.76c-1.19-1.98-3.52-2.9-5.69-3.69-7.61-2.77-22.46-4.61-23.12-14.81-.09-1.32.05-2.72.78-3.83,3.05-4.58,21.4,9.26,25.23,11.49Z"/>
        <path class="cls-1" d="M97.69,14.56c.06-.02.11-.05.17-.07-.05-.08-.08-.17-.13-.24-.65-1-1.71-1.81-2.44-2.77-1.26-1.63-2.72-3.82-5.08-3.71-1.64.07-3.07,1.32-4.05,2.53-1.24,1.53-2.52,3.04-3.59,4.7-1.09,1.69-2.18,3.39-3.25,5.09-3.81,6.03-7.67,12.07-11.05,18.35-1.43,2.66-5.28,9.85-5.63,10.84-.54,1.52-1.1,2.66-2.66,3.29-.94.38-1.96.55-2.93.82-.78.22-15.36,5.01-16.39,5.29-6.38,1.69-12.47,4.11-18.72,6.14-.8.26-1.6.62-2.18,1.24-2.24,2.37.81,6.16,2.51,7.86,1.37,1.37,1.86,1.48,3.36,2.42,2.22,1.39,4.24,3.37,6.35,4.9,4.68,3.42,8.67,5.74,14.04,7.6,1.22.42,2.2,1.32,3.4,1.76,1.27.47,1.91,1.28,2.1,2.68.24,1.81-.37,2.94-1.05,4.51-.58,1.36-1.06,2.76-1.5,4.18-.53,1.73-.77,3.72-1.48,5.38-.91,2.13-1.22,3.27-2.34,5.4-2.81,5.33-4.17,15.25-4.8,21.17-.27,2.56-1.9,8.34,1.07,9.91.9.48,1.97.5,2.99.45,3.12-.16,5.54-1.46,8.46-2.3,2.24-.64,14.53-6.66,17.17-8.22.37-.22,2.66-1.71,2.87-1.8,1.23-.52,2.73-1.99,3.87-2.9,2.43-1.95,5-3.64,7.54-5.45.89-.64,1.85-1.22,2.76-1.83,1.38-.93,2.82-2.4,4.54-1.52,1.02.52,1.51,1.36,2.41,1.97.71.48,1.47.88,2.17,1.38,2.54,1.81,5.11,3.49,7.54,5.45,1.14.92,6.37,4.48,6.74,4.7,2.65,1.56,14.94,7.58,17.17,8.22,1.18.34,2.33.85,3.48,1.28,1.59.59,3.06.8,4.75,1.02.78.1,1.59.19,2.35,0,1.18-.3,2.1-1.7,2.36-2.85.45-2.01-.19-5.4-.41-7.5-.18-1.68-.38-3.36-.61-5.04-.6-4.3-1.36-8.64-2.76-12.76-.3-.89-.61-1.83-1.06-2.66-.54-1-.81-1.83-1.13-2.94-.72-2.5-1.85-4.85-2.69-7.31-1.1-3.2-2.25-6.41-3.3-9.64-.12-.38-.23-.78-.15-1.17.26-1.33,1.79-1.45,2.79-1.86,1.31-.54,2.47-1.34,3.78-1.87,1.61-.65,3.17-1.54,4.71-2.34,2.81-1.46,5.63-2.98,8.31-4.69,1.92-1.22,3.55-2.83,5.4-4.17,1.45-1.05,3.21-2.23,4.76-3.6,2.15-1.91,3.88-4.21,3.81-7.09-.01-.51-.44-.85-.82-1.14-.45-.34-.94-.63-1.46-.86-.63-.27-1.3-.45-1.96-.61-2.95-.75-5.9-1.43-8.85-2.19-4.06-1.04-8.15-1.97-12.25-2.85-4.16-.88-8.42-1.36-12.6-2.23-2.02-.42-3.44-1.8-4.33-3.63-.52-1.07-1.52-2.98-1.88-4.01-.35-.99-.29-.71-.7-1.55-.21-.43-3.5-6.63-4.93-9.29-1.48-2.76-3.1-5.45-4.72-8.14-2.06-3.42-4.17-6.82-6.29-10.2-.84-1.33-1.68-2.67-2.52-4-.16-.26-.3-.53-.43-.8-.09.07-.17.13-.26.2-.11-.32-.23-.63-.36-.94Z"/>
        <path d="M170.63,108.72c-.35-.46-.46-.17-.93-.35-1.6-.63-2.67-.64-4.31-.75-.36-.02-2.1.33-1.98-.33,1.47-.64,3.66-1.84,3.94-3.6.39-2.48-2.26-2.43-3.9-2.33-.65.04-3.28.69-3.42.59-.47-.35-.18-2.22-.38-2.92-.09-.3-.82-1.69-1.03-1.92-.8-.92-2.07-1.17-2.77-.07-.52.82-.6,1.86-.79,2.78-.3,1.49-.47,3.04-1.08,4.45-.16.36-.24,1.46-.97,1.43-.32-.01-2.79-.77-3.13-.97-2.42-1.38-4.83-2.99-7.22-4.4-3.36-1.97-5.79-3.64-8.96-5.83-.52-.36-1.48-.59-1.84-.93-.29-.27-1.91-2.6-1.92-2.82,0,0-.3.33-.74.91.06.36.11.73.2,1.1.42.28,1.92,1.89,2.35,2.21,3.14,2.31,6.52,4.3,9.93,6.19.49.27.99.52,1.49.77.44.22.78.49,1.19.74.29.17.51.43.8.61.33.2.72.34,1.01.6.53.46,3.11,1.58,3.94,2.04.74.41.82.57,1.81,1.01,1.03.45,1.48,1.34,2.59.03,1.64-1.94,1.2-4.68,1.61-6.88.13-.7.89-3.14,1.82-1.67.2.31.25.69.29,1.05.08.59.23,1.15.33,1.73.09.56.06,1.19-.01,1.75-.07.54-.34,1.03-.4,1.57-.02.14-.02.28-.02.42,0,.09,0,.18.03.27.1.26.46.32.71.2.25-.12.41-.36.57-.58.33-.45.83-.95,1.29-1.26.85-.57,4.48-1.71,4.49-.05.01,1.29-2.68,3.09-3.76,3.89-1.07.79-2.22,1.08-2.95,2.25l1.06.86c1.36-1,2.93-1.25,4.58-1.42.8-.08,4.4-.22,4.84.31.72,2.89-3.26,3.12-5.3,2.84-.75-.1-2.88-.89-3.28-.87-.3.01-.55.17-.67.45-.35.81,1.75,1.75,2.27,2.07,1.09.67,2.18,1.47,3.08,2.38.35.36,1.31,1.4,1.54,1.76.19.29-.03.65-.24.86-.28.29-.48.25-.87.18-.72-.13-1.38-.48-2.04-.78-.92-.41-1.79-.94-2.77-1.21-.36-.1-.74-.18-1.04-.39-.25-.17-.5-.45-.79-.36-.18.05-.29.23-.31.41-.1.66.22,1.48.3,2.14.1.8.14,1.6.17,2.41.02.52.12,1.11-.54,1.19-.8.09-1.79-1-2.19-1.6-.62-.94-1.02-2.06-1.29-3.15-.25-1-.14-2.77-.89-3.55-.66-.69-2.43-.72-3.33-.94-1.41-.35-2.82-.71-4.19-1.2-3.14-1.11-6.17-2.68-9.16-4-1.3-.57-2.36-.99-3.36-1.41.19.48.43.98.71,1.47,1.34.62,2.64,1.26,4,1.92,1.42.68,3.12,1.23,4.52,1.94,1.39.7,3.08,1.02,4.56,1.48,1.21.38,2.48.57,3.67,1.04.43.17,1.13.36,1.42.75.33.43.37,1.28.54,1.81.45,1.32,1.08,2.57,1.71,3.81.26.51.49.96.83,1.41.25.32,1.11,1.17,1.11,1.57.11.18.22.37.38.52.32.3.78.37,1.21.43.95.14.89-.35,1.07-1.08.43-1.69.46-3.23.1-4.96-.03-.13-.04-.3.08-.37.05-.03.12-.02.18-.02,1.62.18,2.79,1.28,4.26,1.81.81.29,2.86.59,3.55-.01,1.24-1.08-.52-2.95-1.12-3.94-.47-.79-.95-1.57-1.42-2.36.52-.37,1.1-.19,1.72-.38,1.3-.4,3.19-1.34,3.68-2.76.07-.19.11-.38.12-.59.03-.46-.08-1.03-.36-1.41Z"/>
        <path d="M.12,108.19c-.07-.19-.11-.38-.12-.59-.03-.46.08-1.03.36-1.41.35-.46.46-.17.93-.35,1.6-.63,2.67-.64,4.31-.75.36-.02,2.1.33,1.98-.33-1.47-.64-3.66-1.84-3.94-3.6-.39-2.48,2.26-2.43,3.9-2.33.65.04,3.28.69,3.42.59.47-.35.18-2.22.38-2.92.09-.3.82-1.69,1.03-1.92.8-.92,2.07-1.17,2.77-.07.52.82.6,1.86.79,2.78.3,1.49.47,3.04,1.08,4.45.16.36.24,1.46.97,1.43.32-.01,2.79-.77,3.13-.97,2.42-1.38,4.83-2.99,7.22-4.4,3.36-1.97,5.79-3.64,8.96-5.83.52-.36,1.48-.59,1.84-.93.29-.27,1.91-2.6,1.92-2.82,0,0,.3.33.74.91-.06.36-.11.73-.2,1.1-.42.28-1.92,1.89-2.35,2.21-3.14,2.31-6.52,4.3-9.93,6.19-.49.27-.99.52-1.49.77-.44.22-.78.49-1.19.74-.29.17-.51.43-.8.61-.33.2-.72.34-1.01.6-.53.46-3.11,1.58-3.94,2.04-.74.41-.82.57-1.81,1.01-1.03.45-1.48,1.34-2.59.03-1.64-1.94-1.2-4.68-1.61-6.88-.13-.7-.89-3.14-1.82-1.67-.2.31-.25.69-.29,1.05-.08.59-.23,1.15-.33,1.73-.09.56-.06,1.19.01,1.75s.34,1.03.4,1.57c.02.14.02.28.02.42,0,.09,0,.18-.03.27-.1.26-.46.32-.71.2s-.41-.36-.57-.58c-.33-.45-.83-.95-1.29-1.26-.85-.57-4.48-1.71-4.49-.05-.01,1.29,2.68,3.09,3.76,3.89,1.07.79,2.22,1.08,2.95,2.25l-1.06.86c-1.36-1-2.93-1.25-4.58-1.42-.8-.08-4.4-.22-4.84.31-.72,2.89,3.26,3.12,5.3,2.84.75-.1,2.88-.89,3.28-.87.3.01.55.17.67.45.35.81-1.75,1.75-2.27,2.07-1.09.67-2.18,1.47-3.08,2.38-.35.36-1.31,1.4-1.54,1.76-.19.29.03.65.24.86.28.29.48.25.87.17.72-.13,1.38-.48,2.04-.78.92-.41,1.79-.94,2.77-1.21.36-.1.74-.18,1.04-.39.25-.17.5-.45.79-.36.18.05.29.23.31.41.1.66-.22,1.48-.3,2.14-.1.8-.14,1.6-.17,2.41-.02.52-.12,1.11.54,1.19.8.09,1.79-1,2.19-1.6.62-.94,1.02-2.06,1.29-3.15.25-1,.14-2.77.89-3.55.66-.69,2.43-.72,3.33-.94,1.41-.35,2.82-.71,4.19-1.2,3.14-1.11,6.17-2.68,9.16-4,3.42-1.5,5.24-1.97,8.43-4.08,1.15-.76,2.73-1.18,3.96-1.84l-.09-.21h.4s.03.08.03.08c0,0,.28.59.43.85-.51-.04-.94.44-1.26.52-.28.07-2.72,1.31-3.15,1.54-1.26.67-1.58,1.35-3.23,1.97-2.46.93-4.56,2.04-6.87,3.14-1.42.68-3.12,1.23-4.52,1.94-1.39.7-3.08,1.02-4.56,1.48-1.21.38-2.48.57-3.67,1.04-.43.17-1.13.36-1.42.75-.33.43-.37,1.28-.54,1.81-.45,1.32-1.08,2.57-1.71,3.81-.26.51-.49.96-.83,1.41-.25.32-1.11,1.17-1.11,1.57-.11.18-.22.37-.38.52-.32.3-.78.37-1.21.43-.95.14-.89-.35-1.07-1.08-.43-1.69-.46-3.23-.1-4.96.03-.13.04-.3-.08-.37-.05-.03-.12-.02-.18-.02-1.62.18-2.79,1.28-4.26,1.81-.81.29-2.86.59-3.55-.01-1.24-1.08.52-2.95,1.12-3.94.47-.79.95-1.57,1.42-2.36-.52-.37-1.1-.19-1.72-.38-1.3-.4-3.19-1.34-3.68-2.76Z"/>
        <path class="cls-5" d="M14.51,59.2l2.2-.6c-.29-1.56-1.86-.25-2.2.6Z"/>
        <path d="M164.31,63.67c-.45-.43-1.02-.59-1.28-.79-.08-.07-4.58-1.81-4.58-1.81-1.37-.21-2.77-.48-4.11-.82-3.83-.94-26.57-5.16-27.09-5.29-.46-.12-.83-.23-1.25-.48-1.28-.75-2.61-1.52-3.59-2.65-.84-.97-1.39-2.22-1.98-3.34-.85-1.61-1.53-3.36-2.48-4.91-.4-.66-2.57-4.28-2.72-4.69-.87-2.34-1.24-2.26-2.32-4.13-3.03-5.21-5.75-10.58-9.07-15.63-1.38-2.09-2.78-4.15-4.28-5.93-.64-.75-3.6-4.55-3.89-4.82-.49-.47-2.93-3.19-4.2-3.36-.43-.06-.77-.03-1.08.04-.31-.06-.64-.1-1.08-.04-1.27.17-3.71,2.89-4.2,3.36-.28.27-3.25,4.07-3.89,4.82-1.5,1.78-2.91,3.84-4.28,5.93-3.33,5.05-6.05,10.42-9.07,15.63-1.09,1.87-1.45,1.79-2.32,4.13-.15.41-2.32,4.03-2.72,4.69-1,1.63-2.31,2.97-3.2,4.66-.14.26-.28.53-.46.76-.71.9-1.98,1.26-2.97,1.78-1.05.55-2.14,1.11-3.28,1.43-.21.06-6.65,2.05-8.4,2.45-.56.13-5.39,1.42-6.06,1.65-4.2,1.41-7.83,2.92-12.01,3.95-2.39.59-4.73,1.19-7.04,2.09-.59.23-1.2.49-1.68.91-1.95,1.7-1.38,4.68-.12,6.58.25.37.55.71.84,1.05.69.78,1.14,1.65,1.78,2.43,1.27,1.54,3.4,2.92,4.85,4.44.12.12,1.28.83,1.73,1.03.11.05,15.52,9.6,16.04,9.84,2.81,1.27,6.53,2.3,6.21,6.11-.17,1.96-1.06,3.96-1.64,5.83-.73,2.33-1.46,4.65-2.2,6.97-.1.3-1.33,3.31-1.14,3.51-.35.53-1.45,3.76-1.54,4.12-.07.3-1.81,6.29-2.3,9.12-.95,5.49-1.4,10.98-1.46,16.49,0,.85-.16,1.71-.25,2.54.33.53,1.83,1.52,2.26,1.9.25.21,1.5.49,1.69.63.67-.12,3.31-.79,3.54-.86,1.26-.39,3.65-1.18,3.65-1.18.14-.24,1.96-.65,2.35-.89.39-.24,3.32-1.26,4.29-1.61,0,0,6.8-2.87,7.01-2.97.64-.3,2.9-1.69,3.53-1.97,1.43-.65,2.72-1.57,4.02-2.44,2.98-2,6.05-3.83,9.22-5.5,1.95-1.03,3.79-2.24,5.62-3.47,1.03-.69,1.93-1.58,3.07-2.1,1.39-.65,2.42-.29,3.7.4,1.16.63,2.31,1.27,3.42,1.96s2.14,1.66,3.28,2.33,13.57,7.8,15.57,9.01c.9.54,1.7,1.32,2.69,1.78.21.1,4.95,2.34,5.07,2.39.46.19,1.94.58,1.94.58.97.35,3.9,1.37,4.29,1.61.39.24,4.74,1.68,6,2.07.9.28,1.93.28,2.85.41,1.14.16,2.3.62,3.2-.46.41-.49.52-1.16.61-1.79.19-1.31.58-2.56.55-3.88-.03-1.69-.12-3.37-.24-5.06s-.28-3.37-.48-5.05c-.19-1.57-.71-3.3-.71-4.87-.49-2.82-2.23-8.82-2.3-9.12-.09-.36-1.6-4.05-1.65-4.02,0,0-2.34-7.05-2.59-7.92-.95-3.31-3.23-6.43-2.93-10,.1-1.18,1.9-1.65,2.73-2.3.34-.27,3.1-1.82,4.14-2.29.51-.23,6.11-3.48,6.91-4.15.1-.15,2.84-2.05,3.74-2.6.39-.23,3.96-2.94,4.93-3.3.26-.16.49-.33.77-.47.55-.27,5.06-3.33,6.27-4.79,1.2-1.45,2.31-2.99,3.13-4.69.38-.79.87-1.75.96-2.63.05-.48.06-1.95-.33-2.32ZM158.35,72.87c-1.55,1.38-3.31,2.55-4.76,3.6-1.85,1.34-3.48,2.95-5.4,4.17-2.68,1.7-5.5,3.22-8.31,4.69-1.54.8-3.1,1.7-4.71,2.34-1.31.52-2.48,1.33-3.78,1.87-1,.41-2.53.54-2.79,1.86-.08.39.02.79.15,1.17,1.05,3.22,2.2,6.43,3.3,9.64.84,2.46,1.98,4.81,2.69,7.31.32,1.12.58,1.94,1.13,2.94.45.83.76,1.77,1.06,2.66,1.41,4.12,2.16,8.46,2.76,12.76.23,1.67.44,3.35.61,5.04.22,2.1.86,5.49.41,7.5-.26,1.15-1.18,2.55-2.36,2.85-.76.19-1.57.1-2.35,0-1.69-.21-3.16-.43-4.75-1.02-1.15-.43-2.3-.94-3.48-1.28-2.24-.64-14.53-6.66-17.17-8.22-.37-.22-5.6-3.78-6.74-4.7-2.43-1.95-5-3.64-7.54-5.45-.7-.5-1.46-.9-2.17-1.38-.91-.61-1.39-1.45-2.41-1.97-1.72-.88-3.16.6-4.54,1.52-.91.61-1.86,1.2-2.76,1.83-2.54,1.81-5.11,3.49-7.54,5.45-1.14.92-2.65,2.39-3.87,2.9-.2.09-2.49,1.58-2.87,1.8-2.65,1.56-14.94,7.58-17.17,8.22-2.93.84-5.35,2.14-8.46,2.3-1.02.05-2.09.02-2.99-.45-2.97-1.57-1.34-7.35-1.07-9.91.62-5.92,1.98-15.85,4.8-21.17,1.12-2.13,1.43-3.27,2.34-5.4.71-1.66.95-3.65,1.48-5.38.44-1.41.91-2.82,1.5-4.18.67-1.57,1.29-2.7,1.05-4.51-.19-1.41-.83-2.21-2.1-2.68-1.2-.45-2.19-1.34-3.4-1.76-5.37-1.86-9.36-4.17-14.04-7.6-2.11-1.54-4.13-3.51-6.35-4.9-1.51-.95-1.99-1.05-3.36-2.42-1.7-1.7-4.76-5.48-2.51-7.86.58-.61,1.38-.98,2.18-1.24,6.26-2.04,12.34-4.46,18.72-6.14,1.04-.27,15.61-5.07,16.39-5.29.97-.27,1.99-.44,2.93-.82,1.56-.63,2.13-1.77,2.66-3.29.35-.99,4.2-8.18,5.63-10.84,3.38-6.28,7.24-12.33,11.05-18.35,1.08-1.7,2.16-3.4,3.25-5.09,1.07-1.66,2.35-3.17,3.59-4.7.97-1.21,2.4-2.46,4.05-2.53,2.36-.1,3.83,2.09,5.08,3.71.74.95,1.8,1.77,2.44,2.77.38.58.63,1.26,1.01,1.86.84,1.33,1.68,2.66,2.52,4,2.12,3.39,4.23,6.78,6.29,10.2,1.62,2.68,3.24,5.38,4.72,8.14,1.43,2.66,4.72,8.86,4.93,9.29.41.83.35.55.7,1.55.36,1.03,1.36,2.94,1.88,4.01.89,1.82,2.31,3.21,4.33,3.63,4.18.86,8.44,1.34,12.6,2.23,4.1.87,8.19,1.81,12.25,2.85,2.94.75,5.9,1.44,8.85,2.19.66.17,1.33.34,1.96.61.52.22,1.01.51,1.46.86.38.29.8.62.82,1.14.07,2.88-1.66,5.18-3.81,7.09Z"/>
        <path class="cls-6" d="M91.88,12.07c.06-.02.11-.05.17-.07-.05-.08-.08-.17-.13-.24-.65-1-1.71-1.81-2.44-2.77-1.26-1.63-2.72-3.82-5.08-3.71-1.64.07-3.07,1.32-4.05,2.53-1.24,1.53-2.52,3.04-3.59,4.7-1.09,1.69-2.18,3.39-3.25,5.09-3.81,6.03-7.67,12.07-11.05,18.35-1.43,2.66-5.28,9.85-5.63,10.84-.54,1.52-1.1,2.66-2.66,3.29-.94.38-1.96.55-2.93.82-.78.22-15.36,5.01-16.39,5.29-6.38,1.69-12.47,4.11-18.72,6.14-.8.26-1.6.62-2.18,1.24-2.24,2.37.81,6.16,2.51,7.86,1.37,1.37,1.86,1.48,3.36,2.42,2.22,1.39,4.24,3.37,6.35,4.9,4.68,3.42,8.67,5.74,14.04,7.6,1.22.42,2.2,1.32,3.4,1.76,1.27.47,1.91,1.28,2.1,2.68.24,1.81-.37,2.94-1.05,4.51-.58,1.36-1.06,2.76-1.5,4.18-.53,1.73-.77,3.72-1.48,5.38-.91,2.13-1.22,3.27-2.34,5.4-2.81,5.33-4.17,15.25-4.8,21.17-.27,2.56-1.9,8.34,1.07,9.91.9.48,1.97.5,2.99.45,3.12-.16,5.54-1.46,8.46-2.3,2.24-.64,14.53-6.66,17.17-8.22.37-.22,2.66-1.71,2.87-1.8,1.23-.52,2.73-1.99,3.87-2.9,2.43-1.95,5-3.64,7.54-5.45.89-.64,1.85-1.22,2.76-1.83,1.38-.93,2.82-2.4,4.54-1.52,1.02.52,1.51,1.36,2.41,1.97.71.48,1.47.88,2.17,1.38,2.54,1.81,5.11,3.49,7.54,5.45,1.14.92,6.37,4.48,6.74,4.7,2.65,1.56,14.94,7.58,17.17,8.22,1.18.34,2.33.85,3.48,1.28,1.59.59,3.06.8,4.75,1.02.78.1,1.59.19,2.35,0,1.18-.3,2.1-1.7,2.36-2.85.45-2.01-.19-5.4-.41-7.5-.18-1.68-.38-3.36-.61-5.04-.6-4.3-1.36-8.64-2.76-12.76-.3-.89-.61-1.83-1.06-2.66-.54-1-.81-1.83-1.13-2.94-.72-2.5-1.85-4.85-2.69-7.31-1.1-3.2-2.25-6.41-3.3-9.64-.12-.38-.23-.78-.15-1.17.26-1.33,1.79-1.45,2.79-1.86,1.31-.54,2.47-1.34,3.78-1.87,1.61-.65,3.17-1.54,4.71-2.34,2.81-1.46,5.63-2.98,8.31-4.69,1.92-1.22,3.55-2.83,5.4-4.17,1.45-1.05,3.21-2.23,4.76-3.6,2.15-1.91,3.88-4.21,3.81-7.09-.01-.51-.44-.85-.82-1.14-.45-.34-.94-.63-1.46-.86-.63-.27-1.3-.45-1.96-.61-2.95-.75-5.9-1.43-8.85-2.19-4.06-1.04-8.15-1.97-12.25-2.85-4.16-.88-8.42-1.36-12.6-2.23-2.02-.42-3.44-1.8-4.33-3.63-.52-1.07-1.52-2.98-1.88-4.01-.35-.99-.29-.71-.7-1.55-.21-.43-3.5-6.63-4.93-9.29-1.48-2.76-3.1-5.45-4.72-8.14-2.06-3.42-4.17-6.82-6.29-10.2-.84-1.33-1.68-2.67-2.52-4-.16-.26-.3-.53-.43-.8-.09.07-.17.13-.26.2-.11-.32-.23-.63-.36-.94Z"/>
        <path d="M158.39,62.19c-.45-.43-1.02-.59-1.28-.79-.08-.07-4.58-1.81-4.58-1.81-1.37-.21-2.77-.48-4.12-.82-3.83-.94-26.57-5.16-27.09-5.29-.46-.12-.83-.23-1.25-.48-1.28-.75-2.61-1.52-3.59-2.65-.84-.97-1.39-2.22-1.98-3.34-.85-1.61-1.53-3.36-2.48-4.91-.4-.66-2.57-4.28-2.72-4.69-.87-2.34-1.24-2.26-2.32-4.13-3.03-5.21-5.75-10.58-9.07-15.63-1.11-1.68-2.23-3.32-3.41-4.83-.04-.07-.08-.13-.13-.19-1.37-1.9-2.95-4.1-4.63-5.73-.49-.47-2.93-3.19-4.2-3.36-.43-.06-.77-.03-1.08.04-.31-.06-.64-.09-1.08-.04-1.27.17-3.71,2.89-4.2,3.36-.28.27-3.25,4.07-3.89,4.82-1.5,1.78-2.91,3.84-4.28,5.93-3.33,5.05-6.05,10.42-9.07,15.63-1.09,1.87-1.45,1.79-2.32,4.13-.15.41-2.32,4.03-2.72,4.69-1,1.63-2.31,2.97-3.2,4.66-.14.26-.28.53-.46.76-.71.9-1.98,1.26-2.97,1.78-1.05.55-2.14,1.11-3.28,1.43-.21.06-6.65,2.05-8.4,2.45-.56.13-5.39,1.42-6.06,1.65-4.2,1.41-7.83,2.92-12.01,3.95-2.39.59-4.73,1.19-7.04,2.09-.6.23-1.2.49-1.68.91-1.95,1.7-1.38,4.68-.12,6.58.25.37.55.71.84,1.05.69.78,1.14,1.65,1.78,2.43,1.27,1.54,3.4,2.92,4.85,4.44.12.12,1.28.83,1.73,1.03.11.05,15.52,9.6,16.04,9.84,2.81,1.27,6.53,2.3,6.21,6.11-.17,1.96-1.06,3.96-1.64,5.83-.73,2.33-1.46,4.65-2.2,6.97-.1.3-1.33,3.31-1.14,3.51-.35.53-1.45,3.76-1.54,4.12-.07.3-1.81,6.29-2.3,9.12-.95,5.49-1.4,10.98-1.46,16.49,0,.85-.16,1.71-.25,2.54.33.53,1.83,1.52,2.26,1.9.25.21,1.5.49,1.69.63.67-.12,3.31-.79,3.54-.86,1.26-.39,3.65-1.18,3.65-1.18.14-.24,1.96-.65,2.35-.89.39-.24,3.32-1.26,4.29-1.61,0,0,6.8-2.87,7.01-2.97.64-.3,2.9-1.69,3.53-1.97,1.43-.65,2.72-1.57,4.02-2.44,2.98-2,6.05-3.83,9.22-5.5,1.95-1.03,3.79-2.24,5.62-3.47,1.03-.69,1.93-1.58,3.07-2.1,1.39-.65,2.42-.29,3.7.4,1.16.63,2.31,1.27,3.42,1.96,1.13.71,2.14,1.66,3.28,2.33,1.17.68,13.57,7.8,15.57,9.01.9.54,1.7,1.32,2.69,1.78.21.1,4.95,2.34,5.07,2.39.46.19,1.94.58,1.94.58.97.35,3.9,1.37,4.29,1.61.39.24,4.74,1.68,6,2.07.9.28,1.93.28,2.85.41,1.14.16,2.3.62,3.2-.46.41-.49.52-1.16.61-1.79.19-1.31.58-2.56.55-3.88-.03-1.69-.12-3.37-.24-5.06-.12-1.69-.28-3.37-.48-5.05-.19-1.57-.71-3.3-.71-4.87-.49-2.82-2.23-8.82-2.3-9.12-.09-.36-1.6-4.05-1.65-4.02,0,0-2.34-7.05-2.59-7.92-.95-3.31-3.23-6.43-2.93-10,.1-1.18,1.9-1.65,2.73-2.3.34-.27,3.1-1.82,4.14-2.29.51-.23,6.11-3.48,6.91-4.15.1-.15,2.84-2.05,3.74-2.6.39-.23,3.96-2.94,4.93-3.3.26-.16.49-.33.77-.47.55-.27,5.06-3.33,6.27-4.79,1.2-1.45,2.31-2.99,3.13-4.69.38-.79.87-1.75.96-2.63.05-.48.06-1.95-.33-2.32ZM152.43,71.38c-1.55,1.38-3.31,2.55-4.76,3.6-1.85,1.34-3.48,2.95-5.4,4.17-2.68,1.7-5.5,3.22-8.31,4.69-1.54.8-3.1,1.7-4.71,2.34-1.31.52-2.48,1.33-3.78,1.87-1,.41-2.53.54-2.79,1.86-.08.39.02.79.15,1.17,1.05,3.22,2.2,6.43,3.3,9.64.84,2.46,1.98,4.81,2.69,7.31.32,1.12.58,1.94,1.13,2.94.45.83.76,1.77,1.06,2.66,1.41,4.12,2.16,8.46,2.76,12.76.23,1.67.44,3.35.61,5.04.22,2.1.86,5.49.41,7.5-.26,1.15-1.18,2.55-2.36,2.85-.76.19-1.57.1-2.35,0-1.69-.21-3.16-.43-4.75-1.02-1.15-.43-2.3-.94-3.48-1.28-2.24-.64-14.53-6.66-17.17-8.22-.37-.22-5.6-3.78-6.74-4.7-2.43-1.95-5-3.64-7.54-5.45-.7-.5-1.46-.9-2.17-1.38-.91-.61-1.39-1.45-2.41-1.97-1.72-.88-3.16.6-4.54,1.52-.91.61-1.86,1.2-2.76,1.83-2.54,1.81-5.11,3.49-7.54,5.45-1.14.92-2.65,2.39-3.87,2.9-.2.09-2.49,1.58-2.87,1.8-2.65,1.56-14.94,7.58-17.17,8.22-2.93.84-5.35,2.14-8.46,2.3-1.02.05-2.09.02-2.99-.45-2.97-1.57-1.34-7.35-1.07-9.91.62-5.92,1.98-15.85,4.8-21.17,1.12-2.13,1.43-3.27,2.34-5.4.71-1.66.95-3.65,1.48-5.38.44-1.41.91-2.82,1.5-4.18.67-1.57,1.29-2.7,1.05-4.51-.19-1.41-.83-2.21-2.1-2.68-1.2-.45-2.19-1.34-3.4-1.76-5.37-1.86-9.36-4.17-14.04-7.6-2.11-1.54-4.13-3.51-6.35-4.9-1.51-.95-1.99-1.05-3.36-2.42-1.7-1.7-4.76-5.48-2.51-7.86.58-.61,1.38-.98,2.18-1.24,6.26-2.04,12.34-4.46,18.72-6.14,1.04-.27,15.61-5.07,16.39-5.29.97-.27,1.99-.44,2.93-.82,1.56-.63,2.13-1.77,2.66-3.29.35-.99,4.2-8.18,5.63-10.84,3.38-6.28,7.24-12.33,11.05-18.35,1.08-1.7,2.16-3.4,3.25-5.09,1.07-1.66,2.35-3.17,3.59-4.7.97-1.21,2.4-2.46,4.05-2.53,2.36-.1,3.83,2.09,5.08,3.71.65.84,1.52,1.5,2.17,2.35.29.38.86,1.91,1.3,2.29.84,1.33,1.68,2.66,2.51,3.99,2.12,3.39,4.23,6.78,6.29,10.2,1.62,2.68,3.24,5.38,4.72,8.14,1.43,2.66,4.72,8.86,4.93,9.29.41.83.35.55.7,1.55.36,1.03,1.36,2.94,1.88,4.01.89,1.82,2.31,3.21,4.33,3.63,4.18.86,8.44,1.34,12.6,2.23,4.1.87,8.19,1.81,12.25,2.85,2.94.75,5.9,1.44,8.85,2.19.66.17,1.33.34,1.96.61.52.22,1.01.51,1.46.86.38.29.8.62.82,1.14.07,2.88-1.66,5.18-3.81,7.09Z"/>
        <path d="M63.77,86.14c.19.56-.09,2.39-.11,2.74-.06,1.1-.07,2.22.19,3.3.11.45,1.74,2.73,2.16,3.04.78.57,1.66,1.04,2.5,1.52,1.03.58,2.2,1.34,3.39,1.49,2.25.28,4.5.57,6.76.77,1.14.1,2.28.19,3.43.24.95.04,1.87-.11,2.83-.1,3.53.02,7.08.66,10.51-.44,1.77-.57,3.48-1.3,5.11-2.17,1.01-.54,2.08-1.05,3.01-1.71.68-.49,1.31-1.03,1.89-1.63.47-.48,1.04-1.15,1.26-1.8.32-.94,1.31-2.88,1.31-2.88l.54-.97s.4.11.4.11c.32.46,0,1.38-.08,1.86-.16.88-.39,1.76-.77,2.58-.2.42-.51.76-.74,1.17-.25.44-.49.87-.8,1.27-.45.59-.98,1.11-1.57,1.55-.61.46-1.19.97-1.9,1.29-.05.02-.1.04-.15.06-.99.39-1.86,1.12-2.82,1.6-1.03.51-2.1.94-3.19,1.28-1.92.6-3.94.94-5.96.95-2.17.02-4.34-.27-6.52-.15-1.36.07-2.75-.11-4.11-.2-3.38-.24-6.76-.41-10.09-1.07-.57-.11-1.14-.29-1.69-.47-.99-.33-1.93-1.08-2.72-1.75-.57-.48-1.37-1.03-1.76-1.67-.48-.77-1.08-1.45-1.48-2.27s-.63-1.7-.72-2.59c-.06-.68-.11-1.55.12-2.21.26-.75.66-1.48.96-2.22.07-.19.15-.38.3-.52.1-.09.23-.16.37-.13.06.01.1.07.13.16Z"/>
        <path class="cls-7" d="M64.33,84.23c-1.34,2.07-3.45,3.62-5.83,4.3-.57.16-1.32.5-1.19,1.09.1.45.66.6,1.12.63,1.64.12,3.31-.14,4.85-.74,1.18-.46,2.35-1.21,2.78-2.4s-.28-2.8-1.54-2.88"/>
        <path class="cls-7" d="M114.37,89.65c-2.46-1.29-4.92-2.59-7.37-3.88-.46.35-.45,1.09-.14,1.57s.84.78,1.35,1.06c.93.51,1.87,1.02,2.8,1.53.7.38,1.48.78,2.27.63"/>
        <g>
          <path class="cls-1" d="M63.3,65.6c-.48,2.72-.33,5.74,1.32,7.95,2.08,2.78,5.97,3.56,9.42,3.19,1.19-.13,2.4-.38,3.44-.97,2.52-1.44,3.54-4.51,4.09-7.36,3.12-16.1-15.76-16.99-18.27-2.81Z"/>
          <path class="cls-7" d="M72.41,77.74c-3.66,0-6.77-1.31-8.52-3.65-2.02-2.7-1.92-6.2-1.49-8.65.87-4.9,3.8-8.69,7.86-10.14,3.27-1.17,6.81-.59,9.24,1.5,2.9,2.49,3.95,6.68,2.96,11.79-.51,2.6-1.52,6.26-4.53,7.98-1.31.75-2.8.98-3.8,1.09-.59.06-1.16.09-1.72.09ZM73.7,56.51c-.93,0-1.88.17-2.83.5-3.48,1.24-5.91,4.43-6.68,8.74h0c-.37,2.1-.47,5.07,1.15,7.25,1.62,2.18,4.83,3.23,8.59,2.83,1.33-.14,2.31-.41,3.09-.86,2.36-1.35,3.21-4.49,3.64-6.74.86-4.44.02-8.01-2.36-10.06-1.28-1.1-2.9-1.66-4.61-1.66Z"/>
        </g>
        <g>
          <path class="cls-1" d="M106.9,65.6c.48,2.72.33,5.74-1.32,7.95-2.08,2.78-5.97,3.56-9.42,3.19-1.19-.13-2.4-.38-3.44-.97-2.52-1.44-3.54-4.51-4.09-7.36-3.12-16.1,15.76-16.99,18.27-2.81Z"/>
          <path class="cls-7" d="M97.79,77.74c-.56,0-1.14-.03-1.72-.09-1-.11-2.48-.34-3.8-1.09-3.01-1.72-4.02-5.38-4.53-7.98-.99-5.11.06-9.3,2.96-11.79,2.43-2.09,5.97-2.66,9.24-1.5,4.05,1.45,6.99,5.24,7.86,10.14.43,2.46.53,5.95-1.49,8.65-1.75,2.34-4.86,3.65-8.52,3.65ZM96.5,56.51c-1.72,0-3.34.57-4.61,1.66-2.38,2.05-3.22,5.62-2.36,10.06.44,2.25,1.29,5.4,3.64,6.74.77.44,1.75.71,3.09.86,3.76.4,6.96-.66,8.59-2.83,1.63-2.18,1.53-5.15,1.15-7.25h0c-.76-4.31-3.2-7.5-6.68-8.74-.94-.34-1.9-.5-2.83-.5Z"/>
        </g>
        <path class="cls-7" d="M73.7,68.63c2.3-.05,4.66-1.45,5.07-3.72.53-2.87.83-6.36-1.52-8.17-1.08-.84-2.55-1.1-3.92-.93-4.31.54-6.83,5.55-5.44,9.45.64,1.79,1.43,2.37,3.22,2.9.54.16,1.06.37,1.61.48.44.09.53,0,.98,0Z"/>
        <path class="cls-7" d="M95.61,68.63c-2.3-.05-4.66-1.45-5.07-3.72-.53-2.87-.83-6.36,1.52-8.17,1.08-.84,2.55-1.1,3.92-.93,4.31.54,6.83,5.55,5.44,9.45-.64,1.79-1.43,2.37-3.22,2.9-.54.16-1.06.37-1.61.48-.44.09-.53,0-.98,0Z"/>
        <path class="cls-7" d="M104.1,52.74c.53.82.08,1.97-.66,2.61-.87.75-2.62,1.3-3.54.51,1.55-.91,3.04-1.64,4.2-3.12Z"/>
        <path class="cls-7" d="M68.87,56.48c-1.45-.49-2.65-1.67-3.16-3.11-.7.08-1.1.96-.89,1.64s.83,1.15,1.47,1.44c.84.37,1.77.52,2.69.42-.13-.13-.25-.25-.38-.38"/>
        <path d="M118.44,76.49c.35.54,1.05.51,1.54.12s.81-1.03,1.12-1.65c1.75-3.55,3.4-6.77,4.4-10.75-.34-.14-.69-.27-1.04-.39-.36,1.27-1.07,2.16-1.67,3.24s-1.12,2.24-1.63,3.39c-.21.48-2.8,5.92-2.73,6.03Z"/>
        <path class="cls-7" d="M123.87,76.89c.42.12.84.24,1.26.35,2.22-3.49,4.09-7.22,5.56-11.09-.4-.09-1.35-.3-1.74-.08s-.46.85-.61,1.31c-.38,1.13-.8,2.24-1.27,3.33-.26.6-2.74,6.31-3.21,6.18Z"/>
        <path class="cls-7" d="M129.52,77.32c.42.07.82.21,1.2.42.14-.77.48-1.49.83-2.19,1.36-2.77,3.19-5.63,4.17-8.55-1.03-.29-1.52-.15-1.9.82-.43,1.09-.74,2.22-1.18,3.31s-.92,2.15-1.45,3.2c-.16.32-1.4,3.03-1.67,2.99Z"/>
        <g>
          <path class="cls-6" d="M91.05,9.6c7.76-1.01,25.16-3.13,25.34-4.03-7.36-8.98-19.28-2.78-28.14.38.76.99,1.39,1.81,1.8,2.32.34.43.67.89,1.01,1.33Z"/>
          <path d="M91.05,10.51c-.28,0-.54-.13-.72-.35-.16-.21-.32-.42-.47-.63-.17-.23-.35-.47-.53-.69-.41-.52-1.05-1.34-1.81-2.34-.18-.23-.23-.53-.15-.81.08-.28.29-.5.57-.6,1.07-.38,2.18-.81,3.36-1.26,8.43-3.22,18.92-7.23,25.8,1.16.17.21.24.49.19.75-.2,1.01-.28,1.43-23.11,4.36l-3.01.39s-.08,0-.12,0ZM89.72,6.38c.42.54.77.99,1.03,1.32.19.24.38.49.57.74l.13.18,2.49-.32c5.88-.76,17.37-2.23,20.9-3.09-6.05-6.12-14.98-2.71-22.9.32-.76.29-1.5.57-2.22.84Z"/>
        </g>
        <g>
          <path class="cls-6" d="M99.38,21.81c8.61-1.73,27.9-5.41,28.14-6.61-7.68-11.6-21.12-2.76-31.05,1.89.79,1.29,1.44,2.34,1.87,3,.36.56.69,1.15,1.04,1.72Z"/>
          <path d="M99.38,22.72c-.31,0-.6-.16-.77-.43-.17-.26-.33-.53-.49-.8-.18-.31-.36-.61-.55-.91-.41-.63-1.02-1.62-1.88-3.02-.14-.22-.17-.49-.1-.74.07-.25.25-.45.49-.56,1.2-.56,2.45-1.18,3.76-1.84,9.47-4.71,21.25-10.58,28.44.27.13.2.18.45.13.68-.22,1.12-1.4,1.87-25.52,6.66-1.22.24-2.35.47-3.33.66-.06.01-.12.02-.18.02ZM97.78,17.48c.58.94,1.02,1.65,1.33,2.12.2.31.39.64.59.96.05.08.09.15.14.23.83-.17,1.74-.35,2.71-.54,6.83-1.36,20.44-4.06,23.69-5.31-6.34-8.46-16.54-3.38-25.57,1.12-1,.5-1.95.97-2.88,1.42Z"/>
        </g>
        <g>
          <path class="cls-6" d="M106.83,34.44c9.82-1.97,31.82-6.17,32.09-7.53-8.76-13.23-24.08-3.15-35.41,2.15.9,1.47,1.64,2.67,2.13,3.42.41.63.79,1.32,1.19,1.96Z"/>
          <path d="M106.83,35.35c-.31,0-.6-.16-.77-.43-.19-.3-.37-.61-.55-.92-.21-.35-.41-.7-.63-1.03-.46-.72-1.18-1.88-2.14-3.44-.14-.22-.17-.49-.1-.74s.25-.45.49-.56c1.37-.64,2.79-1.35,4.29-2.1,10.75-5.35,24.13-12.02,32.26.27.13.2.18.45.13.68-.26,1.28-2.95,2.32-29.01,7.49-1.39.28-2.67.53-3.8.76-.06.01-.12.02-.18.02ZM104.81,29.45c.69,1.12,1.22,1.97,1.59,2.54.23.35.45.72.67,1.09.07.11.14.23.2.34.97-.19,2.04-.41,3.18-.63,7.91-1.57,23.75-4.72,27.19-6.12-7.29-9.92-19.03-4.07-29.41,1.1-1.18.59-2.31,1.15-3.41,1.68Z"/>
        </g>
      </g>
      <path class="cls-6" d="M19.25,248.52c-.29-.16-.54-.42-.75-.79-.71-1.28-.68-2.84-1-4.23-.22-.94-.73-1.9-.67-2.89.1-1.57,1.86-1.32,3.1-1.56,3.81-.73,7.61-1.57,11.41-2.38-.9-2.09-1.95-4.13-2.95-6.17-.39-.8-.79-1.59-1.18-2.39-.27-.54-1.25-1.85-1.2-2.43.06-.72,1.11-.79,1.74-.96.91-.25,1.83-.49,2.74-.74,1.36-.37,2.66-.94,4.03-1.29.6-.15,1.42-.44,2.05-.32.78.15.71.47.85,1.21.43,2.35.59,5.22,1.46,7.45,0,0,1.16,2.98,1.16,2.98.04.09,4.47-1.43,4.76-1.52,1.55-.52,7.24-3.77,8.17-1.85.5,1.03.55,2.48.75,3.59.19,1.05.57,2.06.7,3.12.2,1.69-.23,1.9-1.81,2.27-.83.2-9.74,2.4-9.76,2.34.41,1.32,1.41,3.89,2.48,7.28.04.13,4.04-1.46,4.3-1.57,1.16-.48,2.32-.99,3.47-1.5,1.26-.56,2.74-1.75,3.55-.15.54,1.07.88,2.3,1.3,3.42.51,1.34,1.55,2.7,1.58,4.18.04,1.56-2.09,1.48-3.32,1.76-2.61.6-5.22,1.2-7.82,1.8,1.28,3.44,2.53,6.89,3.76,10.35.49,1.39,1.19,2.71,1.5,4.16.34,1.61.08,1.85-1.25,2.52-1.44.73-3.12,2.02-4.71,2.37-1.93.43-2.58-4.58-3.06-5.94-1.34-3.79-2.74-7.56-4.19-11.31-.09-.24-6.96,2.17-7.51,2.37-1.52.54-3.03,1.1-4.54,1.68-1.01.39-2.83,1.62-3.81.57-.7-.74-.94-2.83-1.25-3.81-.38-1.19-2.43-4.76-1.23-5.86.43-.39,1.75-.2,2.33-.26,1.05-.1,2.1-.22,3.14-.35,1.92-.25,3.84-.56,5.74-.96.5-.17,2.07-.66,3.89-1.16-.41-1.24-1.49-3.89-2.65-7.2-3.58.98-7.11,2.13-10.64,3.25-1.41.45-3.38,1.62-4.68.9Z"/>
      <path class="cls-6" d="M98.68,258.27c2.03-2.81,4.44-6.23,5.38-9.61.02-.07.03-.16-.01-.21-.05-.07-.16-.07-.24-.06-2.63.32-5.2.22-7.88.27-4.62.09-9.28-.01-13.69,1.57-1.18.42-3.5,1.68-4.77,1.2-1.34-.51-.89-3.33-.99-4.45-.12-1.34-.28-2.68-.39-4.02-.03-.44-.41-1.69-.26-1.92.25-.38,1.47-.31,1.83-.33,1.51-.07,3.01.12,4.51.09,1.7-.04,3.39-.09,5.09-.11,6.42-.09,12.92.05,19.28-.91,1.34-.2,3.13-1.22,4.06.13,1.19,1.74,1.85,3.69,2.67,5.61s1.21,3.13.21,5.07c-.73,1.42-1.54,2.8-2.4,4.15-2.18,3.44-4.63,6.71-7.17,9.89-2.88,3.6-5.83,7.19-9.25,10.3-.65.59-1.33,1.17-2.02,1.71-.49.38-1.3,1.29-1.89,1.36-1.51.17-2.72-2.54-3.5-3.46-.77-.91-1.54-1.83-2.31-2.74-.62-.74-2.34-1.54-.58-2.12,6.15-2.02,10.61-6.28,14.33-11.42ZM109.69,226.55c1.06.45.72,2,.97,3.34.17.92,1.5,5.02.59,5.58-1,.62-3.33.04-4.44-.02-1.67-.08-3.34-.17-5.01-.23-3.29-.12-6.58-.16-9.86.04-1.64.1-3.26.35-4.87.66-1.5.28-3.33,1.03-4.85.99-1.92-.05-2.04-3.08-2.49-4.51-.4-1.25-.93-2.55-1.15-3.85-.15-.91.17-.93,1.1-1.08.86-.14,1.75-.13,2.61-.12,1.44,0,2.87.15,4.31.17,3.15.04,6.3.08,9.45,0,2.53-.07,5.05-.26,7.57-.54,1.72-.19,3.41-.42,5.13-.53.4-.03.71.02.95.12Z"/>
      <path class="cls-6" d="M153.14,258.27c2.03-2.81,4.44-6.23,5.38-9.61.02-.07.03-.16-.01-.21-.05-.07-.16-.07-.24-.06-2.63.32-5.2.22-7.88.27-4.62.09-9.28-.01-13.69,1.57-1.18.42-3.5,1.68-4.77,1.2-1.34-.51-.89-3.33-.99-4.45-.12-1.34-.28-2.68-.39-4.02-.03-.44-.41-1.69-.26-1.92.25-.38,1.47-.31,1.83-.33,1.51-.07,3.01.12,4.51.09,1.7-.04,3.39-.09,5.09-.11,6.42-.09,12.92.05,19.28-.91,1.34-.2,3.13-1.22,4.06.13,1.19,1.74,1.85,3.69,2.67,5.61.81,1.9,1.21,3.13.21,5.07-.73,1.42-1.54,2.8-2.4,4.15-2.18,3.44-4.63,6.71-7.17,9.89-2.88,3.6-5.83,7.19-9.25,10.3-.65.59-1.33,1.17-2.02,1.71-.49.38-1.3,1.29-1.89,1.36-1.51.17-2.72-2.54-3.5-3.46-.77-.91-1.54-1.83-2.31-2.74-.62-.74-2.34-1.54-.58-2.12,6.15-2.02,10.61-6.28,14.33-11.42ZM164.15,226.55c1.06.45.72,2,.97,3.34.17.92,1.5,5.02.59,5.58-1,.62-3.33.04-4.44-.02-1.67-.08-3.34-.17-5.01-.23-3.29-.12-6.58-.16-9.86.04-1.64.1-3.26.35-4.87.66-1.5.28-3.33,1.03-4.85.99-1.92-.05-2.04-3.08-2.49-4.51-.4-1.25-.93-2.55-1.15-3.85-.15-.91.17-.93,1.1-1.08.86-.14,1.75-.13,2.61-.12,1.44,0,2.87.15,4.31.17,3.15.04,6.3.08,9.45,0,2.53-.07,5.05-.26,7.57-.54,1.72-.19,3.41-.42,5.13-.53.4-.03.71.02.95.12Z"/>
      <path class="cls-7" d="M44.63,280.29c-2.01,0-2.78-3.19-3.3-5.35-.12-.49-.23-.96-.32-1.21-1.15-3.27-2.44-6.75-3.92-10.62-1.4.39-4.86,1.57-6.66,2.21-1.4.5-2.87,1.04-4.52,1.67-.18.07-.39.17-.62.28-1.09.52-2.91,1.38-4.14.08-.66-.7-.95-1.99-1.2-3.14-.09-.39-.16-.74-.25-1.01-.07-.23-.24-.62-.43-1.03-.82-1.88-1.95-4.45-.56-5.73.56-.51,1.48-.49,2.28-.48.22,0,.41.01.56,0,1.04-.1,2.08-.22,3.12-.35,2.07-.27,3.91-.57,5.62-.94.5-.17,1.63-.52,2.99-.9-.15-.42-.34-.91-.55-1.47-.43-1.14-.96-2.52-1.51-4.08-2.81.79-5.63,1.69-8.36,2.56l-1.46.47c-.31.1-.65.24-1.01.38-1.34.54-3,1.21-4.36.44h0c-.44-.25-.81-.63-1.09-1.13-.55-1-.71-2.08-.86-3.13-.07-.47-.13-.91-.23-1.32-.07-.28-.16-.57-.26-.85-.23-.68-.48-1.45-.43-2.28.13-1.97,1.95-2.16,3.04-2.26.26-.03.52-.05.76-.1,2.99-.57,6.03-1.22,8.96-1.86l1.38-.3c-.59-1.31-1.24-2.61-1.87-3.87l-1.81-3.67c-.07-.14-.2-.34-.33-.56-.59-.95-1.01-1.67-.96-2.32.1-1.24,1.36-1.51,2.05-1.66.12-.03.23-.05.33-.08l2.74-.74c.62-.17,1.22-.38,1.86-.6.7-.24,1.43-.5,2.18-.69l.3-.08c.63-.17,1.41-.39,2.13-.25,1.27.25,1.4,1.06,1.5,1.66l.04.25c.13.71.24,1.47.34,2.25.25,1.76.5,3.57,1.07,5.04l.76,1.95c.04.11.08.21.12.31.58-.18,1.67-.53,3.7-1.23l.25-.08c.3-.1.82-.34,1.44-.62,2.83-1.29,6.7-3.05,7.79-.78.42.87.56,1.93.68,2.86.04.33.09.66.14.96.08.43.19.85.3,1.27.16.6.33,1.23.41,1.89.29,2.39-.79,2.83-2.47,3.23-.21.05-.91.22-1.86.45-1.43.35-3.4.83-5.01,1.22-.82.2-1.45.35-1.95.46.12.35.26.75.42,1.19.43,1.21.95,2.67,1.5,4.38,1.08-.39,3.04-1.15,3.39-1.3,1.16-.48,2.31-.98,3.45-1.49.2-.09.41-.2.62-.31.85-.44,1.81-.93,2.77-.62.54.17.97.57,1.28,1.18.39.77.67,1.6.95,2.4.13.38.26.75.39,1.11.15.39.36.8.58,1.24.48.96,1.03,2.04,1.06,3.23.05,2.02-2.01,2.32-3.23,2.5-.27.04-.54.08-.76.13l-6.86,1.58c1.12,3.02,2.24,6.12,3.42,9.43.17.46.35.92.54,1.38.38.92.77,1.87.99,2.89.43,2.02-.05,2.64-1.71,3.48-.44.22-.9.5-1.37.79-1.14.68-2.32,1.39-3.54,1.66-.16.03-.31.05-.46.05ZM37.73,261.24c.51,0,.6.24.73.58,1.6,4.15,2.97,7.86,4.2,11.33.12.33.23.82.37,1.38.87,3.61,1.44,4.08,1.68,4,.94-.21,2-.84,3.02-1.45.51-.31,1.01-.6,1.48-.84q1.02-.52.79-1.57c-.19-.87-.53-1.71-.9-2.59-.2-.48-.4-.97-.57-1.46-1.3-3.65-2.53-7.03-3.76-10.34l-.35-.93,8.79-2.02c.27-.06.58-.11.9-.16,1.36-.2,1.76-.37,1.75-.74-.02-.8-.44-1.62-.88-2.49-.23-.46-.47-.93-.65-1.41-.14-.38-.28-.77-.41-1.17-.25-.74-.52-1.51-.85-2.17-.05-.1-.16-.28-.26-.31-.27-.09-.95.26-1.44.51-.24.13-.48.25-.71.35-1.16.52-2.32,1.03-3.49,1.51-4.39,1.84-4.71,1.69-4.99,1.56l-.35-.16-.12-.37c-.65-2.04-1.25-3.76-1.74-5.13-.32-.9-.58-1.62-.74-2.15l.83-.26-.1-.86c.44-.07,5.4-1.28,7.78-1.87.95-.23,1.67-.41,1.87-.46q1.26-.3,1.14-1.32c-.07-.54-.21-1.08-.36-1.66-.12-.45-.25-.92-.33-1.41-.06-.32-.11-.68-.15-1.04-.11-.84-.23-1.71-.52-2.33-.11-.22-.85-.5-5.5,1.61-.68.31-1.22.56-1.61.69l-.24.08q-5.27,1.79-5.61.93l-.4-1.03c-.46-1.18-.66-1.7-.75-1.95h0c-.65-1.66-.91-3.57-1.17-5.43-.11-.75-.21-1.48-.33-2.17l-.05-.29c-.01-.07-.02-.14-.03-.21-.02,0-.04-.01-.07-.02-.32-.06-.91.1-1.34.22l-.33.09c-.68.17-1.34.4-2.03.65-.64.22-1.3.45-1.98.64l-2.74.74c-.13.03-.27.07-.42.1-.18.04-.48.1-.65.17.1.27.48.87.67,1.18.18.28.33.53.42.71l1.81,3.66c.8,1.6,1.62,3.26,2.34,4.94l.42.97-3.46.74c-2.94.63-5.99,1.29-9,1.86-.29.06-.6.09-.92.12-1.33.13-1.45.27-1.47.64-.03.49.15,1.04.34,1.62.11.34.22.68.3,1.01.11.49.19.99.26,1.47.13.93.26,1.81.66,2.53.12.22.26.37.42.46.63.35,1.86-.14,2.85-.54.4-.16.78-.31,1.13-.42l1.46-.47c3-.96,6.11-1.95,9.21-2.8l.78-.21.27.77c.65,1.85,1.27,3.49,1.77,4.81.39,1.03.7,1.85.88,2.4l.29.87-.89.24c-1.82.5-3.39.99-3.85,1.14l-.09.02c-1.78.38-3.68.7-5.81.98-1.05.14-2.11.25-3.17.36-.2.02-.47.02-.76.01-.31,0-.95-.02-1.13.06-.25.24.08,1.51,1.04,3.7.21.48.39.9.49,1.21.1.31.19.71.29,1.16.17.78.44,1.97.77,2.32.35.38,1.42-.13,2.12-.46.27-.13.53-.25.74-.33,1.66-.64,3.15-1.19,4.56-1.69,5.1-1.81,7.05-2.45,7.88-2.45Z"/>
      <path class="cls-7" d="M87.79,281.68c-1.54,0-2.62-1.67-3.42-2.91-.23-.35-.44-.68-.6-.87l-2.31-2.74c-.1-.12-.29-.28-.47-.44-.54-.46-1.22-1.04-1.06-1.86.16-.82,1.06-1.11,1.35-1.21,5.24-1.72,9.66-5.25,13.9-11.11,1.56-2.16,3.85-5.32,4.95-8.4-1.65.14-3.28.15-4.87.16-.7,0-1.4,0-2.11.02l-1.47.03c-4,.06-8.14.13-11.95,1.5-.24.09-.53.21-.85.34-1.43.6-3.2,1.35-4.53.85-1.6-.61-1.56-2.82-1.54-4.28,0-.35.01-.67,0-.9-.05-.51-.1-1.02-.15-1.53-.09-.84-.17-1.67-.24-2.51,0-.13-.06-.35-.11-.59-.2-.94-.29-1.45-.01-1.87.43-.65,1.34-.71,2.31-.72h.21c.85-.04,1.7,0,2.51.03.7.03,1.36.06,2.02.05l1.92-.05c1.06-.03,2.12-.05,3.18-.07,1.15-.02,2.3-.03,3.46-.03,5.18-.04,10.54-.08,15.71-.87.27-.04.6-.13.94-.23,1.16-.32,2.91-.81,3.97.73.98,1.43,1.62,3,2.23,4.51.17.42.34.84.52,1.26.87,2.04,1.35,3.54.18,5.82-.68,1.32-1.48,2.7-2.44,4.22-1.92,3.04-4.22,6.2-7.23,9.96-2.82,3.52-5.86,7.22-9.35,10.4-.74.68-1.42,1.25-2.08,1.76-.12.09-.26.22-.41.36-.56.51-1.21,1.1-1.91,1.18-.08.01-.17.01-.25.01ZM81.97,273.27c.05.05.11.09.15.13.24.2.48.41.68.64l2.31,2.74c.23.27.46.63.73,1.05.49.76,1.44,2.19,2,2.11.19-.05.7-.51.94-.73.19-.17.36-.33.51-.45.62-.48,1.26-1.02,1.97-1.67,3.4-3.09,6.39-6.73,9.16-10.2,2.97-3.71,5.23-6.83,7.11-9.81.93-1.48,1.7-2.81,2.36-4.09.8-1.56.56-2.47-.23-4.33-.18-.43-.36-.85-.53-1.28-.61-1.49-1.18-2.9-2.05-4.18-.3-.43-.8-.39-2.06-.03-.38.1-.77.21-1.14.27-5.29.8-10.71.84-15.95.89-1.15,0-2.3.02-3.45.03-1.05.02-2.11.04-3.16.07l-1.92.05c-.72.01-1.44-.02-2.14-.05-.81-.04-1.58-.07-2.35-.04-.07,0-.17,0-.28,0-.13,0-.45,0-.7.03.03.16.07.34.09.46.07.33.13.63.14.82.06.82.15,1.64.23,2.46.05.52.11,1.03.15,1.55.03.3.02.67.02,1.09-.01.73-.04,2.45.42,2.62.67.26,2.27-.42,3.22-.82.35-.15.67-.28.94-.38,4.09-1.47,8.37-1.53,12.51-1.6l1.46-.03c.72-.01,1.43-.02,2.14-.02,1.94,0,3.77-.02,5.65-.25.59-.06.9.21,1.04.39.12.16.3.5.16.99-1.01,3.66-3.72,7.4-5.51,9.88h0c-4.43,6.12-9.08,9.84-14.63,11.69ZM100.43,251.23s0,0,0,0c0,0,0,0,0,0ZM79.55,240.57s-.09,0-.14,0c-2.19-.06-2.71-2.48-3.05-4.09-.08-.39-.16-.75-.25-1.03-.11-.34-.23-.69-.35-1.04-.32-.94-.66-1.92-.83-2.92-.07-.41-.11-.95.21-1.39.35-.5.9-.58,1.53-.68.99-.16,1.89-.16,2.77-.15.83,0,1.59.05,2.35.09.68.04,1.36.07,2.03.08,3.09.04,6.28.08,9.41,0,2.4-.07,4.92-.25,7.49-.54l1.24-.14c1.28-.15,2.6-.31,3.93-.39.53-.03.96.03,1.34.18h0c1.25.53,1.33,1.84,1.39,2.89.02.37.04.75.11,1.09.03.17.11.46.2.81.72,2.77,1.18,4.94,0,5.67-1,.62-2.56.41-3.94.23-.39-.05-.74-.1-1.01-.11h-.19c-1.6-.09-3.21-.17-4.82-.23-3.93-.15-6.94-.14-9.77.04-1.38.09-2.85.28-4.76.64-.49.09-1.02.24-1.59.4-1.09.3-2.22.61-3.3.61ZM76.64,231.18s0,.01,0,.01c.15.86.46,1.77.76,2.65.13.36.25.72.36,1.08.11.35.2.76.29,1.2.31,1.47.63,2.69,1.39,2.71.88.03,1.91-.27,2.93-.55.58-.16,1.17-.32,1.73-.43,1.98-.37,3.52-.58,4.98-.67,2.89-.18,5.96-.19,9.95-.04,1.61.06,3.23.14,4.84.22h.19c.31.02.71.08,1.15.14.81.11,2.12.28,2.68.07.16-.7-.45-3.02-.65-3.81-.1-.4-.19-.73-.23-.92-.09-.45-.11-.91-.13-1.32-.04-.77-.09-1.28-.32-1.38-.08-.03-.25-.07-.56-.05-1.28.08-2.58.23-3.83.38l-1.25.15c-2.62.3-5.19.48-7.64.55-3.17.09-6.38.05-9.48,0-.7,0-1.4-.05-2.11-.09-.73-.04-1.46-.08-2.2-.08-.88,0-1.71-.01-2.47.11-.14.02-.27.04-.38.06Z"/>
      <path class="cls-7" d="M142.25,281.68c-1.54,0-2.62-1.67-3.42-2.91-.23-.35-.44-.68-.6-.87l-2.31-2.74c-.1-.12-.29-.28-.47-.44-.54-.46-1.22-1.04-1.06-1.86.16-.82,1.06-1.11,1.35-1.21,5.24-1.72,9.66-5.25,13.9-11.11,1.56-2.16,3.85-5.32,4.95-8.4-1.65.14-3.28.15-4.87.16-.7,0-1.4,0-2.11.02l-1.47.03c-4,.06-8.14.13-11.95,1.5-.24.09-.53.21-.85.34-1.43.6-3.2,1.35-4.53.85-1.6-.61-1.56-2.82-1.54-4.28,0-.35.01-.67,0-.9-.05-.51-.1-1.03-.15-1.54-.09-.83-.17-1.66-.23-2.5-.01-.13-.06-.35-.11-.58-.2-.94-.29-1.45-.01-1.88.43-.65,1.34-.71,2.31-.72h.21c.85-.04,1.7,0,2.51.03.7.03,1.36.06,2.02.05l1.92-.05c1.06-.03,2.12-.05,3.18-.07,1.15-.02,2.3-.03,3.46-.03,5.18-.04,10.54-.08,15.71-.87.27-.04.6-.13.94-.23,1.16-.32,2.91-.81,3.97.73.98,1.43,1.61,3,2.23,4.51.17.42.34.84.52,1.26.87,2.04,1.35,3.54.18,5.82-.67,1.31-1.47,2.69-2.44,4.22-1.92,3.03-4.21,6.2-7.23,9.96-2.82,3.52-5.86,7.22-9.35,10.4-.75.68-1.43,1.25-2.08,1.76-.12.09-.26.22-.41.36-.56.51-1.2,1.1-1.91,1.18-.08.01-.17.01-.25.01ZM136.43,273.27c.05.05.11.09.15.13.24.2.48.41.68.64l2.3,2.74c.23.27.46.63.73,1.05.49.76,1.4,2.19,2,2.11.19-.05.7-.51.94-.73.19-.17.36-.33.51-.45.62-.48,1.26-1.02,1.97-1.67,3.39-3.09,6.38-6.73,9.16-10.2,2.97-3.71,5.23-6.83,7.11-9.81.94-1.48,1.71-2.82,2.36-4.08.8-1.56.56-2.47-.23-4.34-.18-.43-.36-.86-.53-1.28-.61-1.49-1.18-2.9-2.05-4.18-.3-.43-.8-.38-2.06-.03-.38.1-.77.21-1.14.27-5.29.8-10.71.84-15.95.89-1.15,0-2.3.02-3.45.03-1.05.02-2.11.04-3.16.07l-1.92.05c-.73.01-1.44-.02-2.14-.05-.81-.04-1.58-.07-2.35-.04-.07,0-.17,0-.28,0-.13,0-.45,0-.7.03.03.16.07.34.1.46.07.33.13.63.14.82.06.82.15,1.63.23,2.45.05.52.11,1.04.16,1.56.03.3.02.67.02,1.09-.01.73-.04,2.44.42,2.62.67.26,2.27-.42,3.22-.82.35-.15.67-.28.94-.38,4.08-1.47,8.37-1.53,12.51-1.6l1.46-.03c.72-.01,1.43-.02,2.14-.02,1.94,0,3.77-.02,5.65-.25.59-.06.9.21,1.04.39.12.15.3.48.17.98-1.01,3.67-3.72,7.41-5.51,9.89h0c-4.43,6.12-9.08,9.84-14.63,11.69ZM134,240.57s-.1,0-.14,0c-2.19-.06-2.71-2.48-3.05-4.09-.08-.39-.16-.75-.25-1.04-.11-.35-.23-.69-.35-1.05-.32-.94-.66-1.92-.83-2.92-.07-.42-.11-.95.21-1.39.35-.5.9-.58,1.53-.68.99-.16,1.89-.16,2.77-.15.83,0,1.59.05,2.35.09.68.04,1.36.07,2.03.08,3.09.04,6.28.08,9.41,0,2.39-.07,4.92-.25,7.49-.54l1.24-.14c1.28-.15,2.6-.31,3.93-.39.52-.03.97.03,1.34.18h0c1.25.53,1.33,1.84,1.39,2.89.02.37.04.75.11,1.09.03.17.11.46.2.82.72,2.76,1.17,4.94-.01,5.67-1,.62-2.56.41-3.94.23-.38-.05-.73-.1-1.01-.11h-.19c-1.6-.09-3.2-.17-4.81-.23-3.93-.15-6.94-.13-9.77.04-1.38.09-2.85.28-4.76.64-.49.09-1.02.24-1.59.4-1.1.3-2.23.61-3.3.61ZM131.1,231.18v.02c.15.86.46,1.77.76,2.64.13.37.25.73.36,1.09.11.35.2.76.29,1.2.31,1.47.63,2.69,1.39,2.71.85.03,1.91-.27,2.93-.55.58-.16,1.17-.32,1.73-.43,1.98-.37,3.52-.58,4.98-.67,2.89-.18,5.95-.19,9.94-.04,1.61.06,3.22.14,4.83.22h.19c.31.02.71.08,1.15.14.81.11,2.12.28,2.68.07.16-.7-.45-3.02-.65-3.8-.11-.41-.19-.73-.23-.93-.09-.45-.11-.91-.13-1.32-.04-.77-.09-1.28-.32-1.38h0c-.07-.03-.23-.07-.56-.05-1.28.08-2.58.23-3.83.38l-1.25.15c-2.62.3-5.19.48-7.64.55-3.17.09-6.38.05-9.48,0-.7,0-1.4-.05-2.11-.09-.73-.04-1.47-.08-2.2-.08-.88,0-1.71-.01-2.47.11-.14.02-.27.04-.38.06Z"/>
      <path class="cls-8" d="M15.94,188.23c-.17,8.06-.35,16.13-.52,24.19-.02,1.13-.03,2.34.58,3.29.99,1.55,3.12,1.79,4.96,1.85,8.53.3,17.06.33,25.59.09,2.05-.06,4.27-.19,5.85-1.5,1.92-1.59,2.28-4.35,2.45-6.83.61-8.88.65-17.8.09-26.69-.06-.91-.13-1.85-.57-2.64-.67-1.21-2.06-1.82-3.39-2.21-3.5-1.02-7.21-1.05-10.86-1.07-5.91-.03-11.82-.06-17.72-.08-7.66-.04-6.34,5.65-6.46,11.59Z"/>
      <path class="cls-2" d="M60.1,215.52c-.02.47-.01,1,.34,1.33.34.32.87.35,1.35.36,10.26.23,20.51.43,30.77.6,1.28.02,2.65.02,3.69-.68,1.56-1.03,1.71-3.1,1.72-4.88.03-7.46.06-14.91.09-22.37,0-2.05-.01-4.21-1.1-6-1.76-2.89-5.66-3.85-9.18-4.34-7.44-1.02-23.44-3.86-26.12,3.8-3.16,9.06-1.22,22.62-1.56,32.17Z"/>
      <path class="cls-9" d="M136.12,180.29c2.7,11.55,1.78,23.48.86,35.24-.06.78-.14,1.6-.6,2.27-1.01,1.45-3.32,1.61-5.27,1.58-7.2-.09-14.39-.46-21.55-1.11-1.63-.15-3.39-.36-4.55-1.37-1.28-1.11-1.44-2.84-1.51-4.41-.35-7.99-.44-15.98-.28-23.97.15-7.13,1.34-9.01,9.5-9.2,2.22-.05,23.08-.45,23.41.97Z"/>
      <path class="cls-3" d="M144.4,215.33c0,.81.02,1.68.47,2.35.78,1.15,2.41,1.21,3.79,1.16,5.95-.22,11.9-.44,17.85-.66.45-.02.94-.05,1.28-.34.46-.39.49-1.07.48-1.67-.11-7.77-.32-15.55-.62-23.32-.03-.71-.07-1.46-.48-2.03-.57-.8-1.65-1.01-2.62-1.13-5.49-.71-16.59-3.22-19.67,2.72-2.82,5.46-.49,16.85-.48,22.91Z"/>
      <path class="cls-1" d="M36.43,200.24s7.78,5.07,12.16,8.57l-5.12,5.81s-9.3-8.96-10.49-9.9l-.1,9.5s-3.59-.1-6.6,0l.3-30.28,7.24.2.25,12.41s4.63-4.28,9.5-8.37l4.23,5.81s-10.29,6.1-11.37,6.25Z"/>
      <path class="cls-1" d="M126.86,194.38s-.54-5.81-.59-11.22l6.3.1c-.15,20.68,0,26.34,0,31.8l-6.3-.1.25-4.63c-1.08,2.31-4.38,4.38-9.75,3.94-4.87-.39-9.8-4.87-9.6-12.7.2-7.43,5.91-11.62,11.91-11.22,4.63.34,6.7,2.46,7.78,4.04ZM124.45,202.45c0-2.02-.94-4.68-4.23-5.37-3.3-.69-6.74,1.67-6.4,5.86.2,2.9,2.51,4.97,5.66,4.97,2.36,0,4.97-2.02,4.97-5.46Z"/>
      <path class="cls-1" d="M154.09,198.83c-.04.5.08,1.13.88,1.64,2.1,1.26,7.52,1.26,8.57,5.59.8,3.11-.59,7.23-5.84,8.11-5.51.88-9.33-2.61-10.21-6.26l3.82-2.4c.84,2.4,2.31,3.87,4.45,3.87,1.39,0,2.4-1.01,2.48-2.02.04-.76-.34-1.85-1.97-2.27-4.88-1.3-6.51-2.35-7.19-4.83-.97-3.53,1.51-7.02,6.14-7.48,4.41-.42,8.11,2.02,8.83,5.67l-4.08,1.93c-.34-1.77-2.06-3.03-3.53-3.07-1.22-.08-2.23.55-2.35,1.51Z"/>
      <path class="cls-7" d="M143.14,171.1l2.34.9,1.13,2.57v2.57c-.93,2.19-2.16,4.22-3.69,6.08l-1.4.22-1.4-1.17v-.95l2.3-3.47-3.69-.95c-.93-.78-1.32-1.71-1.17-2.79l.67-1.4c1.41-1.23,3.05-1.77,4.91-1.62Z"/>
      <g>
        <path class="cls-4" d="M29.59,158.81c-.18,1.88-.71,3.71-1.66,5.26.71.8,1.61,1.49,2.82,2.04.32.14.44.39.44.65,0,.41-.35.84-.8.84-.51,0-2.19-1.07-3.27-2.4-1.16,1.39-3.06,2.52-3.62,2.52-.44,0-.75-.39-.75-.77,0-.26.14-.5.47-.63,1.33-.53,2.35-1.3,3.11-2.25-.68-1.12-1.13-2.34-1.39-3.51l-.02.02c-.17.26-.42.36-.66.36-.21,0-.42-.09-.54-.23v.21c-.11,3.39-.36,6.35-2.55,6.35-.29,0-1.34-.06-1.34-.88,0-.33.2-.65.56-.65.08,0,.18.01.29.06.17.08.32.11.44.11.36,0,.62-.24.75-.66.42-1.22.5-2.73.51-4.06,0-.44-.23-.5-.83-.5-.15,0-.32,0-.48.01-.26,2.46-.8,4.96-2.11,6.57-.17.2-.38.29-.59.29-.41,0-.8-.32-.8-.68,0-.12.04-.26.15-.38,1.66-2.05,2.01-5.52,2.16-8.49l-1.21.03h-.02c-.45,0-.68-.33-.68-.66s.23-.66.68-.66h.02l1.67.03-.02-1.69c0-.47.38-.69.74-.69s.75.23.75.69v1.69s1.79-.03,1.79-.03h.02c.44,0,.65.33.65.65,0,.35-.21.68-.65.68h-.02l-2.34-.03c-.03.48-.06.98-.11,1.49.32-.02.68-.02.98-.02.74,0,1.22.06,1.46.68.03-.08.06-.17.12-.26.9-1.27,1.63-3.44,1.85-4.85.06-.38.38-.56.69-.56.38,0,.75.24.75.66,0,.53-.59,2.16-.66,2.35h4.1c.42-.01.62.3.62.63s-.2.65-.62.65h-.87ZM25.85,158.8l-.02.03c.2,1.48.56,2.86,1.25,4.07.63-1.19.96-2.58,1.1-4.09h-2.34Z"/>
        <path class="cls-4" d="M33.74,158.14c-.42,0-.65-.32-.65-.62,0-.32.23-.62.65-.62h4.22c.44,0,.65.3.65.62s-.21.62-.65.62h-4.22ZM42.94,167.21c0,.41-.35.6-.68.6s-.69-.21-.69-.62v-.02l.05-3.17c-.84,1.39-2.5,3.14-3.2,3.14-.36,0-.63-.29-.65-.6-.3.63-.84.71-2.08.71-.39,0-.78-.01-1.04-.03-.65-.04-1.07-.53-1.09-1.19,0-.39-.02-.74-.02-1.09s.02-.66.02-.99c.01-.57.38-1.12,1.07-1.15.3-.01.71-.03,1.1-.03s.77.02.99.03c.54.03,1.15.42,1.16,1.07.02.35.02.71.02,1.09s0,.72-.02,1.05c0,.05-.02.08-.02.12.04-.08.14-.14.23-.2,1.33-.84,2.32-1.94,3.06-3.2l-2.16.05h-.02c-.39,0-.59-.3-.59-.59,0-.32.2-.62.6-.62l2.64.03-.02-.98c-.41-.01-.81-.03-1.13-.04-1-.04-1.46-.6-1.51-1.36-.02-.45-.03-.95-.03-1.45s.02-1.03.03-1.49c.03-.6.44-1.25,1.52-1.3.5-.03,1.12-.03,1.76-.03s1.28,0,1.81.03c.96.03,1.51.63,1.54,1.28.01.54.03,1.13.03,1.72,0,.42,0,.84-.03,1.22-.05.69-.63,1.31-1.54,1.37-.33.03-.75.04-1.21.04v.98l2.91-.03c.42,0,.63.32.63.62s-.2.59-.62.59h-.02l-2.52-.05c.93,1.18,2.07,2.11,3.24,2.83.26.15.36.38.36.6,0,.39-.35.78-.77.78-.84,0-3-2.73-3.21-3.01l.05,3.24h0ZM34.32,156.07c-.41,0-.6-.3-.6-.6s.2-.6.6-.6h3.11c.41,0,.62.3.62.6s-.21.6-.62.6h-3.11ZM34.35,160.1c-.41,0-.6-.3-.6-.6s.2-.6.6-.6h2.96c.41,0,.62.3.62.6s-.21.6-.62.6h-2.96ZM34.35,162.04c-.41,0-.6-.3-.6-.6s.2-.6.6-.6h2.96c.41,0,.62.3.62.6s-.21.6-.62.6h-2.96ZM36.7,165.01c0-.24,0-.5-.02-.71-.03-.38-.29-.41-.98-.41-.96,0-.96.01-.96,1.1,0,.24.02.5.02.72.02.27.04.36,1.06.36.3,0,.87,0,.87-.38.02-.21.02-.45.02-.69ZM41.6,155.99c-1.33,0-1.37,0-1.37,1.28h1.39l-.02-1.28ZM41.61,158.27h-1.39c0,.98,0,1.27.66,1.3l.74.02-.02-1.31ZM42.9,158.27l-.02,1.31c1.49,0,1.49-.02,1.49-1.31h-1.48ZM44.37,157.28c0-.26-.02-.51-.02-.74-.02-.54-.35-.54-1.45-.54v1.28h1.46Z"/>
        <path class="cls-4" d="M50.54,161.72c-1.03.83-1.25.93-1.48.93-.42,0-.72-.38-.72-.75,0-.23.11-.45.36-.6,1.3-.75,2.59-2.08,3.51-3.62.15-.24.36-.35.57-.35.41,0,.78.39.78.77,0,.14-.05.27-.14.41-.47.66-.95,1.27-1.46,1.82l-.17,6.8c-.02.45-.38.68-.75.68-.35,0-.69-.21-.69-.65v-.03l.18-5.41ZM49.24,159.07c-.35,0-.75-.23-.75-.68,0-.24.15-.5.5-.71,1.18-.68,2.16-1.7,2.89-2.92.17-.27.39-.38.6-.38.39,0,.75.33.75.74,0,.14-.04.3-.15.45-1.22,1.76-3.09,3.5-3.84,3.5ZM56.94,161.69c.68-.02,1.67-.04,1.93-.04.72,0,1.13.42,1.13.96,0,.6-.75,1.76-1.46,2.55.75.5,1.72.86,2.92,1.01.38.04.56.33.56.65,0,.38-.27.78-.8.78-.33,0-2.07-.29-3.62-1.55-1.81,1.46-3.65,1.75-3.81,1.75-.47,0-.72-.35-.72-.69,0-.27.18-.53.54-.6,1.16-.21,2.19-.75,3.02-1.4-.41-.48-.74-.98-.98-1.49-.69.89-2.02,2.16-2.59,2.16-.39,0-.69-.33-.69-.68,0-.17.08-.35.27-.47,1.49-1.01,2.2-1.87,3.14-3.5-.51.05-1.66.15-2.34.15-.38,0-.57-.32-.57-.65,0-.3.18-.62.56-.62.5,0,1-.02,1.49-.03h.03c.33-.27.68-.53,1.03-.84-.59-.6-1.3-1.15-2.01-1.49-.26-.14-.36-.33-.36-.54,0-.32.27-.62.65-.62.2,0,.51.15.69.26.56-.57,1.04-1.33,1.37-2.04.11-.23.3-.32.51-.32.39,0,.83.32.83.69,0,.3-.75,1.42-1.7,2.31.35.26.66.54.95.83.63-.68,1.22-1.42,1.64-2.07.14-.21.36-.3.57-.3.39,0,.78.27.78.65,0,.74-2.55,2.97-3.03,3.36.93-.08,1.84-.2,2.7-.32-.11-.11-.23-.2-.33-.29-.17-.14-.24-.3-.24-.44,0-.3.32-.56.66-.56.6,0,2.43,1.72,2.43,2.41,0,.42-.36.74-.72.74-.23,0-.44-.11-.59-.36-.12-.2-.24-.39-.38-.57-1,.2-2.13.38-3.3.51.03.08.05.15.05.23,0,.12-.03.24-.12.38l-.08.11ZM58.41,162.9c0-.14-.12-.17-.23-.17h-.04c-.11,0-.95.03-1.63.03.24.51.57,1.03,1.01,1.51.33-.38.89-1.12.89-1.37Z"/>
        <path class="cls-4" d="M71.52,156.64c-.09.09-.99,1.04-1.49,1.04-.38,0-.68-.3-.68-.62,0-.15.08-.32.26-.45-.06.02-.12.03-.18.03h-2.71c-1.3,2.01-1.84,2.02-2,2.02-.38,0-.71-.29-.71-.65,0-.15.08-.33.24-.48.93-.84,1.54-1.72,2.07-2.89.11-.24.3-.35.51-.35.36,0,.74.3.74.69,0,.11-.02.21-.08.32-.03.08-.08.14-.11.21h2.05c.39,0,.59.29.59.57,0,.12-.05.23-.11.33.66-.48,1.13-.98,1.69-1.9.11-.18.27-.26.44-.26.33,0,.68.32.68.68,0,.23-.11.36-.27.57h3.5c.39,0,.59.29.59.56,0,.29-.2.57-.59.57h-4.42ZM76.06,164.33l-2.7-.04.02.42v1.21c0,.8-.51,1.85-2.17,1.85-.69,0-1.43-.04-1.43-.78,0-.35.21-.69.57-.69.05,0,.09,0,.14.02.27.06.54.11.77.11.44,0,.74-.18.74-.77v-1.36s-7.18.04-7.18.04c-.41,0-.62-.3-.62-.6s.21-.62.62-.62h7.15s0-.3,0-.3h0c0-.42.33-.62.68-.62s.71.2.71.62v.32h2.71c.42-.01.63.29.63.59s-.21.62-.62.62h-.02ZM65.03,162.13c-.44,0-.66-.3-.66-.6,0-.29.23-.59.66-.59h4.75l-.02-.96h-3.45c-.44,0-.66-.29-.66-.57s.23-.59.66-.59h3.45v-.3c0-.45.35-.68.71-.68s.69.23.69.68v.3h3.32c.44,0,.65.29.65.59s-.21.57-.65.57h-3.32v.96s4.66,0,4.66,0c.41,0,.63.32.63.62,0,.29-.2.57-.63.57h-10.79ZM67.57,158.42c-.18-.35-.42-.57-.68-.77-.15-.11-.21-.24-.21-.38,0-.27.27-.53.6-.53.29,0,1.37.6,1.37,1.27,0,.39-.35.68-.66.68-.17,0-.33-.09-.42-.27ZM68.6,166.43c-.45-.44-.98-.63-1.48-.81-.21-.08-.3-.26-.3-.44,0-.33.29-.69.68-.69.21,0,2.25.48,2.25,1.36,0,.39-.35.77-.72.77-.15,0-.29-.06-.42-.18ZM73.23,158.41c-.18-.35-.42-.57-.68-.77-.15-.11-.21-.24-.21-.38,0-.27.27-.53.6-.53.29,0,1.37.6,1.37,1.27,0,.39-.35.68-.66.68-.17,0-.33-.09-.42-.27Z"/>
        <path class="cls-4" d="M81.2,167c-1.48.51-1.72-1.1-.66-1.39,2.4-.65,3.72-2.49,3.83-4.73-1.67.02-3.33.06-4.39.09-.51.01-.78-.32-.78-.68s.27-.74.86-.74c2.14-.03,6.89-.06,9.35-.08.53,0,.77.36.74.72-.03.36-.3.69-.83.68-.81-.03-2.05-.03-3.38-.01-.14,2.73-1.75,5.1-4.73,6.14ZM81.75,157.94c-1.13,0-1.06-1.43.02-1.42,1.9.01,3.24-.05,5.22-.09.53-.01.77.35.77.69s-.26.72-.71.72c-2.08.03-3.68.09-5.29.09ZM89.28,158.27c-.15-.27-.74-.95-1.01-1.13-.68-.48.08-1.22.71-.83.36.23,1.02.78,1.28,1.21.45.74-.62,1.43-.98.75ZM91.15,157.35c-.26-.27-.78-.9-1.06-1.09-.69-.45.03-1.24.68-.86.36.21,1.04.75,1.31,1.16.47.72-.41,1.34-.93.78Z"/>
        <path class="cls-4" d="M93.59,164.23c-1.39.84-2.17-.69-1.15-1.19,2.77-1.36,5.65-4.13,7.36-6.81.66-1.04,1.99-.08,1.34.8-.68.9-1.33,1.72-1.98,2.47-.04,1.54-.08,5.49-.03,7,.03,1.15-1.6,1.28-1.58.04.01-1.21.08-3.66.09-5.43-1.19,1.16-2.49,2.17-4.06,3.12Z"/>
        <path class="cls-4" d="M113.23,160.44c0,2.88-1.22,5.29-4,6.89-1.21.69-1.81-.69-.87-1.21,2.34-1.28,3.38-3.2,3.38-5.62v-.35c-.81,0-1.61.02-2.41.03,0,.86,0,1.66-.02,2.25-.02.51-.38.78-.77.78s-.78-.27-.75-.77c.03-.62.05-1.4.05-2.23-.95.03-1.88.06-2.73.11-1.18.06-1.13-1.37-.09-1.4.9-.03,1.85-.04,2.8-.06-.02-.71-.03-1.37-.06-1.88-.05-1.03,1.43-1.15,1.49-.06.03.5.04,1.18.06,1.92.81-.02,1.61-.03,2.43-.05,0-.78,0-1.52-.02-1.94-.06-1.25,1.52-1.18,1.51-.01-.02.6-.02,1.27-.02,1.94.96-.01,1.93-.03,2.83-.03,1.42-.01,1.1,1.49.05,1.46-.93-.03-1.88-.05-2.86-.05v.29Z"/>
        <path class="cls-4" d="M120.17,161.75c-.54,0-.8-.36-.8-.72s.29-.77.8-.77h9.47c.51,0,.77.38.77.75s-.26.74-.77.74h-9.47Z"/>
        <path class="cls-4" d="M136.05,163.76c-.03.74.3,1.1,1.21,1.22.87.12,3.32-.03,4.39-.41,1.15-.39,1.79,1.24.32,1.63-1.36.36-3.66.41-5.25.21-1.33-.17-2.13-1.03-2.14-2.26-.02-1.51.09-4.87.11-6.66,0-1.06,1.55-.84,1.54.04-.02.81-.04,1.95-.08,3.06,1.19-.23,3.62-.9,4.75-1.4,1.1-.48,1.85,1.06.56,1.51-1.43.48-3.63,1.18-5.35,1.37-.01.66-.03,1.27-.04,1.69ZM141.48,158.09c-.77-.32-.17-1.24.53-.98.41.15,1.16.56,1.49.92.59.63-.29,1.55-.78.96-.2-.24-.93-.77-1.24-.91ZM142.85,156.79c-.77-.3-.23-1.21.48-.98.41.14,1.18.51,1.52.86.6.6-.24,1.55-.75.98-.21-.23-.95-.74-1.25-.86Z"/>
        <path class="cls-4" d="M147.63,166.46c-1.1.41-1.61-1.07-.48-1.46,2.74-.95,5.13-3.36,6.32-5.61.14-.26.08-.5-.26-.5-.95-.01-3.03.06-4.36.09-.9.03-.96-1.42,0-1.46,1.1-.05,3.32-.08,4.84-.08,1.36,0,2.13.86,1.54,1.88-.51.89-1.06,1.75-1.67,2.56,1.25.75,3.17,2.02,3.86,2.98.6.84-.53,2.02-1.24,1.13-.74-.92-2.29-2.29-3.53-3.03-1.33,1.48-2.96,2.7-5.02,3.48Z"/>
      </g>
      <path class="cls-1" d="M74.87,192.53l7.08.1s.44,21.63.44,22.93l-8.23-.15s.49-19.15.71-22.88Z"/>
      <path class="cls-1" d="M77.93,180.08c.29-.9.77-.9,1.07,0l.34,1.04c.29.9,1.31,1.64,2.26,1.64h1.1c.95,0,1.1.46.33,1.02l-.89.64c-.77.56-1.16,1.76-.86,2.66l.34,1.04c.29.9-.1,1.19-.86.63l-.89-.64c-.77-.56-2.03-.56-2.8,0l-.89.64c-.77.56-1.16.28-.86-.63l.34-1.04c.29-.9-.1-2.1-.86-2.66l-.89-.64c-.77-.56-.62-1.02.33-1.02h1.1c.95,0,1.97-.74,2.26-1.64l.34-1.04Z"/>
    </g>
  </g>
</svg>