<?xml version="1.0" encoding="UTF-8"?>
<svg id="_レイヤー_2" data-name="レイヤー 2" xmlns="http://www.w3.org/2000/svg" viewBox="0 0 389.43 88.2">
  <defs>
    <style>
      .cls-1 {
        fill: #fff;
      }

      .cls-2 {
        fill: #c30018;
      }

      .cls-3 {
        fill: #63a845;
      }

      .cls-4 {
        fill: #3f3c3c;
      }

      .cls-5 {
        fill: none;
      }

      .cls-6 {
        fill: #fe0;
      }

      .cls-7 {
        fill: #251e1c;
      }

      .cls-8 {
        fill: #db940f;
      }

      .cls-9 {
        fill: #232582;
      }
    </style>
  </defs>
  <g id="_レイヤー_1-2" data-name="レイヤー 1">
    <g>
      <path class="cls-1" d="M19.44,58.1c-3.06,1.62-6.12,3.23-9.18,4.85-.28-1.43-.57-2.87-.85-4.3-.14-.68-.5-1.55-1.19-1.47-.61.07-.84.81-.94,1.42-.15.91-.29,1.82-.44,2.73-.46-.76-1.21-1.35-2.06-1.63-.66-.21-1.54-.16-1.87.45-.51.94.71,1.85,1.71,2.2s2.26,1.14,1.88,2.13c-1.38-.33-2.8-.5-4.22-.5-.92,0-2.18.51-1.91,1.39.13.43.59.65,1.02.79,1.24.41,2.57.55,3.86.38-1.85.41-3.33,2.1-3.49,3.99,1.61.66,3.41-.17,4.94-.98-.28.92-.56,1.9-.29,2.82s1.37,1.64,2.21,1.18c1.17-.64.58-2.43.93-3.72.46-1.68,2.47-2.28,4.15-2.74,4.24-1.15,8.26-3.08,11.81-5.67,1.05-.76,2.08-1.61,2.68-2.76.94-1.79.32-4.7-2.13-4.64-1.77.04-5.01,3.24-6.64,4.1Z"/>
      <path class="cls-1" d="M90.79,63.28c.82.48,1.68.97,2.63,1.01-.05-1.9.31-3.82,1.05-5.57,1.74.78,1.69,3.24,1.35,5.12,1.23-1.83,3.97-2.45,5.87-1.33-1.68,1.12-3.37,2.24-5.05,3.37,1.93-.24,3.9-.07,5.77.48.34.32.17.94-.21,1.2s-.88.28-1.35.29c-1.14.02-2.27.03-3.41.05,2.17.37,3.88,2.51,3.77,4.7-.02.47-3.86-.82-4.1-.75-1.34.38-1.24,1.28-1.55,2.65-1,.13-1.83-.83-2.16-1.78s-.4-2.01-.92-2.88c-.72-1.19-2.13-1.75-3.44-2.23-4.6-1.68-13.59-2.79-13.98-8.96-.05-.8.03-1.65.47-2.31,1.85-2.77,12.95,5.6,15.26,6.95Z"/>
      <path class="cls-1" d="M59.08,8.81s.07-.03.1-.04c-.03-.05-.05-.1-.08-.15-.39-.6-1.03-1.1-1.48-1.67-.76-.98-1.65-2.31-3.07-2.25-.99.04-1.86.8-2.45,1.53-.75.93-1.52,1.84-2.17,2.84-.66,1.02-1.32,2.05-1.97,3.08-2.3,3.65-4.64,7.3-6.68,11.1-.86,1.61-3.19,5.96-3.41,6.56-.33.92-.67,1.61-1.61,1.99-.57.23-1.18.33-1.77.5-.47.13-9.29,3.03-9.92,3.2-3.86,1.02-7.54,2.48-11.32,3.71-.49.16-.97.38-1.32.75-1.36,1.43.49,3.72,1.52,4.75.83.83,1.12.89,2.03,1.47,1.34.84,2.57,2.04,3.84,2.97,2.83,2.07,5.25,3.47,8.49,4.59.74.25,1.33.8,2.06,1.07.77.28,1.15.77,1.27,1.62.15,1.09-.23,1.78-.63,2.73-.35.82-.64,1.67-.91,2.53-.32,1.05-.47,2.25-.9,3.25-.55,1.29-.74,1.98-1.42,3.27-1.7,3.22-2.52,9.22-2.9,12.81-.16,1.55-1.15,5.05.65,5.99.55.29,1.19.3,1.81.27,1.88-.1,3.35-.88,5.12-1.39,1.35-.39,8.79-4.03,10.39-4.97.23-.13,1.61-1.04,1.73-1.09.74-.31,1.65-1.2,2.34-1.76,1.47-1.18,3.03-2.2,4.56-3.29.54-.38,1.12-.74,1.67-1.11.83-.56,1.71-1.45,2.75-.92.62.31.91.82,1.46,1.19.43.29.89.53,1.31.84,1.54,1.09,3.09,2.11,4.56,3.29.69.56,3.85,2.71,4.08,2.84,1.6.94,9.03,4.58,10.39,4.97.72.21,1.41.51,2.11.77.96.36,1.85.49,2.87.61.47.06.96.12,1.42,0,.71-.18,1.27-1.03,1.43-1.73.27-1.21-.12-3.27-.25-4.54-.11-1.02-.23-2.03-.37-3.05-.36-2.6-.82-5.23-1.67-7.72-.18-.54-.37-1.11-.64-1.61-.33-.61-.49-1.11-.68-1.78-.43-1.51-1.12-2.94-1.63-4.42-.66-1.94-1.36-3.88-1.99-5.83-.07-.23-.14-.47-.09-.71.16-.8,1.08-.88,1.69-1.13.79-.33,1.5-.81,2.29-1.13.97-.39,1.92-.93,2.85-1.42,1.7-.89,3.41-1.8,5.03-2.83,1.16-.74,2.15-1.71,3.27-2.52.88-.63,1.94-1.35,2.88-2.18,1.3-1.16,2.35-2.55,2.3-4.29,0-.31-.26-.51-.49-.69-.27-.21-.57-.38-.88-.52-.38-.16-.78-.27-1.19-.37-1.78-.45-3.57-.87-5.35-1.32-2.46-.63-4.93-1.19-7.41-1.72-2.51-.53-5.09-.82-7.62-1.35-1.22-.25-2.08-1.09-2.62-2.19-.32-.65-.92-1.8-1.14-2.43-.21-.6-.18-.43-.43-.94-.13-.26-2.12-4.01-2.98-5.62-.9-1.67-1.87-3.3-2.85-4.92-1.25-2.07-2.52-4.12-3.81-6.17-.51-.81-1.01-1.61-1.52-2.42-.1-.15-.18-.32-.26-.48-.05.04-.1.08-.16.12-.07-.19-.14-.38-.22-.57Z"/>
      <path d="M103.2,65.75c-.21-.28-.28-.1-.56-.21-.97-.38-1.61-.39-2.61-.45-.22-.01-1.27.2-1.2-.2.89-.39,2.21-1.11,2.38-2.18.24-1.5-1.37-1.47-2.36-1.41-.4.02-1.99.42-2.07.36-.29-.21-.11-1.34-.23-1.77-.05-.18-.5-1.02-.62-1.16-.48-.56-1.25-.71-1.67-.04-.31.49-.36,1.12-.48,1.68-.18.9-.29,1.84-.65,2.69-.09.22-.15.88-.59.86-.19,0-1.68-.47-1.89-.59-1.46-.83-2.92-1.81-4.37-2.66-2.03-1.19-3.5-2.2-5.42-3.52-.32-.22-.89-.36-1.11-.56-.18-.16-1.15-1.57-1.16-1.71,0,0-.18.2-.45.55.04.22.06.44.12.66.25.17,1.16,1.14,1.42,1.33,1.9,1.4,3.95,2.6,6,3.75.3.16.6.31.9.47.27.14.47.3.72.45.17.11.31.26.48.37.2.12.43.21.61.36.32.28,1.88.96,2.38,1.23.45.25.5.35,1.09.61.62.27.89.81,1.57.02.99-1.17.72-2.83.97-4.16.08-.43.54-1.9,1.1-1.01.12.19.15.41.18.63.05.36.14.69.2,1.05.05.34.04.72,0,1.06-.04.32-.2.63-.24.95-.01.08,0,.17,0,.26,0,.05,0,.11.02.16.06.16.28.19.43.12.15-.07.25-.22.35-.35.2-.27.5-.57.78-.76.51-.34,2.71-1.04,2.72-.03,0,.78-1.62,1.87-2.27,2.35-.65.48-1.34.65-1.79,1.36l.64.52c.82-.6,1.77-.76,2.77-.86.49-.05,2.66-.14,2.93.19.44,1.75-1.97,1.89-3.21,1.72-.45-.06-1.74-.54-1.98-.52-.18,0-.33.1-.41.27-.21.49,1.06,1.06,1.37,1.25.66.4,1.32.89,1.86,1.44.21.22.79.85.93,1.07.11.17-.02.39-.14.52-.17.18-.29.15-.53.11-.44-.08-.83-.29-1.24-.47-.56-.25-1.08-.57-1.67-.73-.22-.06-.45-.11-.63-.24-.15-.1-.3-.27-.48-.22-.11.03-.17.14-.19.25-.06.4.13.89.18,1.29.06.48.09.97.1,1.46.01.32.08.67-.33.72-.48.05-1.08-.61-1.32-.97-.37-.57-.61-1.25-.78-1.91-.15-.6-.08-1.68-.54-2.15-.4-.42-1.47-.43-2.01-.57-.85-.21-1.7-.43-2.53-.72-1.9-.67-3.73-1.62-5.54-2.42-.78-.34-1.43-.6-2.03-.85.12.29.26.59.43.89.81.37,1.6.77,2.42,1.16.86.41,1.89.75,2.73,1.17.84.42,1.86.62,2.76.9.73.23,1.5.35,2.22.63.26.1.69.22.86.45.2.26.22.78.33,1.1.27.8.65,1.55,1.03,2.3.16.31.3.58.5.86.15.2.67.71.67.95.07.11.13.22.23.31.19.18.47.22.73.26.57.08.54-.21.65-.65.26-1.02.28-1.95.06-3-.02-.08-.02-.18.05-.22.03-.02.07-.01.11-.01.98.11,1.69.78,2.57,1.1.49.18,1.73.36,2.15,0,.75-.65-.31-1.78-.67-2.38l-.86-1.43c.32-.22.67-.11,1.04-.23.78-.24,1.93-.81,2.23-1.67.04-.11.06-.23.07-.36.02-.28-.05-.62-.22-.85Z"/>
      <path d="M.07,65.44c-.04-.11-.06-.23-.07-.36-.02-.28.05-.62.22-.85.21-.28.28-.1.56-.21.97-.38,1.61-.39,2.61-.45.22-.01,1.27.2,1.2-.2-.89-.39-2.21-1.11-2.38-2.18-.24-1.5,1.37-1.47,2.36-1.41.4.02,1.99.42,2.07.36.29-.21.11-1.34.23-1.77.05-.18.5-1.02.62-1.16.48-.56,1.25-.71,1.67-.04.31.49.36,1.12.48,1.68.18.9.29,1.84.65,2.69.09.22.15.88.59.86.19,0,1.68-.47,1.89-.59,1.46-.83,2.92-1.81,4.37-2.66,2.03-1.19,3.5-2.2,5.42-3.52.32-.22.89-.36,1.11-.56.18-.16,1.15-1.57,1.16-1.71,0,0,.18.2.45.55-.04.22-.06.44-.12.66-.25.17-1.16,1.14-1.42,1.33-1.9,1.4-3.95,2.6-6,3.75-.3.16-.6.31-.9.47-.27.14-.47.3-.72.45-.17.11-.31.26-.48.37-.2.12-.43.21-.61.36-.32.28-1.88.96-2.38,1.23-.45.25-.5.35-1.09.61-.62.27-.89.81-1.57.02-.99-1.17-.72-2.83-.97-4.16-.08-.43-.54-1.9-1.1-1.01-.12.19-.15.41-.18.63-.05.36-.14.69-.2,1.05-.05.34-.04.72,0,1.06s.2.63.24.95c.01.08,0,.17,0,.26,0,.05,0,.11-.02.16-.06.16-.28.19-.43.12s-.25-.22-.35-.35c-.2-.27-.5-.57-.78-.76-.51-.34-2.71-1.04-2.72-.03,0,.78,1.62,1.87,2.27,2.35.65.48,1.34.65,1.79,1.36l-.64.52c-.82-.6-1.77-.76-2.77-.86-.49-.05-2.66-.14-2.93.19-.44,1.75,1.97,1.89,3.21,1.72.45-.06,1.74-.54,1.98-.52.18,0,.33.1.41.27.21.49-1.06,1.06-1.37,1.25-.66.4-1.32.89-1.86,1.44-.21.22-.79.85-.93,1.07-.11.17.02.39.14.52.17.18.29.15.53.11.44-.08.83-.29,1.24-.47.56-.25,1.08-.57,1.67-.73.22-.06.45-.11.63-.24.15-.1.3-.27.48-.22.11.03.17.14.19.25.06.4-.13.89-.18,1.29-.06.48-.09.97-.1,1.46-.01.32-.08.67.33.72.48.05,1.08-.61,1.32-.97.37-.57.61-1.25.78-1.91.15-.6.08-1.68.54-2.15.4-.42,1.47-.43,2.01-.57.85-.21,1.7-.43,2.53-.72,1.9-.67,3.73-1.62,5.54-2.42,2.07-.91,3.17-1.19,5.1-2.47.69-.46,1.65-.72,2.39-1.11l-.05-.13h.24s.02.05.02.05c0,0,.17.36.26.51-.31-.02-.57.27-.76.31-.17.04-1.64.79-1.91.93-.76.41-.96.82-1.95,1.19-1.49.56-2.76,1.23-4.16,1.9-.86.41-1.89.75-2.73,1.17-.84.42-1.86.62-2.76.9-.73.23-1.5.35-2.22.63-.26.1-.69.22-.86.45-.2.26-.22.78-.33,1.1-.27.8-.65,1.55-1.03,2.3-.16.31-.3.58-.5.86-.15.2-.67.71-.67.95-.07.11-.13.22-.23.31-.19.18-.47.22-.73.26-.57.08-.54-.21-.65-.65-.26-1.02-.28-1.95-.06-3,.02-.08.02-.18-.05-.22-.03-.02-.07-.01-.11-.01-.98.11-1.69.78-2.57,1.1-.49.18-1.73.36-2.15,0-.75-.65.31-1.78.67-2.38l.86-1.43c-.32-.22-.67-.11-1.04-.23-.78-.24-1.93-.81-2.23-1.67Z"/>
      <path class="cls-5" d="M8.78,35.81l1.33-.36c-.18-.94-1.13-.15-1.33.36Z"/>
      <path d="M99.38,38.51c-.27-.26-.62-.35-.77-.48-.05-.04-2.77-1.1-2.77-1.1-.83-.13-1.68-.29-2.49-.49-2.31-.57-16.07-3.12-16.38-3.2-.28-.07-.5-.14-.76-.29-.77-.45-1.58-.92-2.17-1.6-.51-.58-.84-1.34-1.2-2.02-.51-.97-.92-2.03-1.5-2.97-.24-.4-1.56-2.59-1.65-2.83-.53-1.42-.75-1.37-1.41-2.5-1.83-3.15-3.48-6.4-5.49-9.45-.83-1.27-1.68-2.51-2.59-3.59-.38-.45-2.18-2.75-2.35-2.92-.29-.28-1.77-1.93-2.54-2.03-.26-.04-.46-.02-.65.02-.19-.04-.39-.06-.65-.02-.77.1-2.25,1.75-2.54,2.03-.17.17-1.97,2.46-2.35,2.92-.91,1.08-1.76,2.32-2.59,3.59-2.01,3.06-3.66,6.3-5.49,9.45-.66,1.13-.88,1.08-1.41,2.5-.09.25-1.4,2.44-1.65,2.83-.6.99-1.4,1.79-1.93,2.82-.08.16-.17.32-.28.46-.43.55-1.2.76-1.79,1.07-.63.33-1.29.67-1.98.87-.13.04-4.02,1.24-5.08,1.48-.34.08-3.26.86-3.67,1-2.54.86-4.73,1.76-7.26,2.39-1.45.36-2.86.72-4.26,1.27-.36.14-.72.29-1.02.55-1.18,1.03-.84,2.83-.07,3.98.15.23.33.43.51.64.42.47.69,1,1.08,1.47.77.93,2.06,1.77,2.94,2.69.07.07.77.5,1.05.62.07.03,9.39,5.81,9.7,5.95,1.7.77,3.95,1.39,3.75,3.69-.1,1.18-.64,2.4-.99,3.52-.44,1.41-.88,2.81-1.33,4.22-.06.18-.81,2-.69,2.12-.21.32-.88,2.27-.93,2.49-.04.18-1.1,3.81-1.39,5.51-.57,3.32-.85,6.64-.88,9.98,0,.51-.1,1.03-.15,1.54.2.32,1.11.92,1.37,1.15.15.13.91.3,1.02.38.4-.07,2-.48,2.14-.52.76-.23,2.21-.71,2.21-.71.08-.14,1.18-.4,1.42-.54.23-.14,2.01-.76,2.59-.97,0,0,4.11-1.74,4.24-1.8.39-.18,1.76-1.02,2.14-1.19.87-.39,1.64-.95,2.43-1.47,1.8-1.21,3.66-2.31,5.58-3.33,1.18-.62,2.29-1.36,3.4-2.1.62-.42,1.17-.95,1.85-1.27.84-.39,1.47-.17,2.24.24.7.38,1.4.77,2.07,1.19s1.3,1.01,1.99,1.41,8.21,4.72,9.42,5.45c.55.33,1.03.8,1.63,1.08.13.06,3,1.42,3.07,1.44.28.11,1.18.35,1.18.35.59.21,2.36.83,2.59.97.24.15,2.87,1.02,3.63,1.25.54.17,1.17.17,1.73.25.69.1,1.39.38,1.94-.28.25-.3.31-.7.37-1.08.12-.79.35-1.55.33-2.35-.02-1.02-.07-2.04-.14-3.06s-.17-2.04-.29-3.05c-.12-.95-.43-1.99-.43-2.95-.3-1.71-1.35-5.33-1.39-5.51-.05-.22-.97-2.45-1-2.43,0,0-1.41-4.26-1.57-4.79-.58-2-1.95-3.89-1.77-6.05.06-.71,1.15-1,1.65-1.39.21-.16,1.88-1.1,2.5-1.39.31-.14,3.7-2.1,4.18-2.51.06-.09,1.72-1.24,2.26-1.57.23-.14,2.4-1.78,2.98-1.99.15-.09.3-.2.47-.28.33-.16,3.06-2.02,3.79-2.9.72-.88,1.4-1.81,1.89-2.84.23-.48.52-1.06.58-1.59.03-.29.04-1.18-.2-1.41ZM95.78,44.07c-.93.83-2,1.54-2.88,2.18-1.12.81-2.1,1.78-3.27,2.52-1.62,1.03-3.33,1.95-5.03,2.83-.93.48-1.87,1.03-2.85,1.42-.79.32-1.5.8-2.29,1.13-.6.25-1.53.33-1.69,1.13-.05.24.01.48.09.71.63,1.95,1.33,3.89,1.99,5.83.51,1.49,1.19,2.91,1.63,4.42.19.68.35,1.18.68,1.78.27.5.46,1.07.64,1.61.85,2.49,1.31,5.12,1.67,7.72.14,1.01.26,2.03.37,3.05.13,1.27.52,3.32.25,4.54-.15.69-.71,1.54-1.43,1.73-.46.12-.95.06-1.42,0-1.02-.13-1.91-.26-2.87-.61-.7-.26-1.39-.57-2.11-.77-1.35-.39-8.79-4.03-10.39-4.97-.23-.13-3.39-2.29-4.08-2.84-1.47-1.18-3.03-2.2-4.56-3.29-.42-.3-.88-.55-1.31-.84-.55-.37-.84-.88-1.46-1.19-1.04-.53-1.91.36-2.75.92-.55.37-1.13.72-1.67,1.11-1.54,1.09-3.09,2.11-4.56,3.29-.69.56-1.6,1.44-2.34,1.76-.12.05-1.51.95-1.73,1.09-1.6.94-9.03,4.58-10.39,4.97-1.77.51-3.23,1.29-5.12,1.39-.62.03-1.26.02-1.81-.27-1.8-.95-.81-4.44-.65-5.99.38-3.58,1.2-9.58,2.9-12.81.68-1.29.87-1.98,1.42-3.27.43-1,.57-2.21.9-3.25.26-.85.55-1.7.91-2.53.41-.95.78-1.63.63-2.73-.11-.85-.5-1.34-1.27-1.62-.73-.27-1.32-.81-2.06-1.07-3.25-1.12-5.66-2.52-8.49-4.59-1.27-.93-2.5-2.12-3.84-2.97-.91-.57-1.2-.64-2.03-1.47-1.03-1.03-2.88-3.32-1.52-4.75.35-.37.83-.59,1.32-.75,3.78-1.23,7.47-2.69,11.32-3.71.63-.17,9.44-3.07,9.92-3.2.59-.16,1.2-.27,1.77-.5.95-.38,1.29-1.07,1.61-1.99.21-.6,2.54-4.95,3.41-6.56,2.04-3.8,4.38-7.45,6.68-11.1.65-1.03,1.3-2.06,1.97-3.08.65-1,1.42-1.91,2.17-2.84.59-.73,1.45-1.49,2.45-1.53,1.43-.06,2.31,1.26,3.07,2.25.44.58,1.09,1.07,1.48,1.67.23.35.38.76.61,1.13.51.81,1.02,1.61,1.52,2.42,1.28,2.05,2.56,4.1,3.81,6.17.98,1.62,1.96,3.25,2.85,4.92.86,1.61,2.85,5.36,2.98,5.62.25.5.21.33.43.94.22.63.82,1.78,1.14,2.43.54,1.1,1.4,1.94,2.62,2.19,2.53.52,5.11.81,7.62,1.35,2.48.53,4.95,1.09,7.41,1.72,1.78.46,3.57.87,5.35,1.32.4.1.8.21,1.19.37.31.14.61.31.88.52.23.18.49.38.49.69.05,1.74-1,3.13-2.3,4.29Z"/>
      <path class="cls-6" d="M55.57,7.3s.07-.03.1-.04c-.03-.05-.05-.1-.08-.15-.39-.6-1.03-1.1-1.48-1.67-.76-.98-1.65-2.31-3.07-2.25-.99.04-1.86.8-2.45,1.53-.75.93-1.52,1.84-2.17,2.84-.66,1.02-1.32,2.05-1.97,3.08-2.3,3.65-4.64,7.3-6.68,11.1-.86,1.61-3.19,5.96-3.41,6.56-.33.92-.67,1.61-1.61,1.99-.57.23-1.18.33-1.77.5-.47.13-9.29,3.03-9.92,3.2-3.86,1.02-7.54,2.48-11.32,3.71-.49.16-.97.38-1.32.75-1.36,1.43.49,3.72,1.52,4.75.83.83,1.12.89,2.03,1.47,1.34.84,2.57,2.04,3.84,2.97,2.83,2.07,5.25,3.47,8.49,4.59.74.25,1.33.8,2.06,1.07.77.28,1.15.77,1.27,1.62.15,1.09-.23,1.78-.63,2.73-.35.82-.64,1.67-.91,2.53-.32,1.05-.47,2.25-.9,3.25-.55,1.29-.74,1.98-1.42,3.27-1.7,3.22-2.52,9.22-2.9,12.81-.16,1.55-1.15,5.05.65,5.99.55.29,1.19.3,1.81.27,1.88-.1,3.35-.88,5.12-1.39,1.35-.39,8.79-4.03,10.39-4.97.23-.13,1.61-1.04,1.73-1.09.74-.31,1.65-1.2,2.34-1.76,1.47-1.18,3.03-2.2,4.56-3.29.54-.38,1.12-.74,1.67-1.11.83-.56,1.71-1.45,2.75-.92.62.31.91.82,1.46,1.19.43.29.89.53,1.31.84,1.54,1.09,3.09,2.11,4.56,3.29.69.56,3.85,2.71,4.08,2.84,1.6.94,9.03,4.58,10.39,4.97.72.21,1.41.51,2.11.77.96.36,1.85.49,2.87.61.47.06.96.12,1.42,0,.71-.18,1.27-1.03,1.43-1.73.27-1.21-.12-3.27-.25-4.54-.11-1.02-.23-2.03-.37-3.05-.36-2.6-.82-5.23-1.67-7.72-.18-.54-.37-1.11-.64-1.61-.33-.61-.49-1.11-.68-1.78-.43-1.51-1.12-2.94-1.63-4.42-.66-1.94-1.36-3.88-1.99-5.83-.07-.23-.14-.47-.09-.71.16-.8,1.08-.88,1.69-1.13.79-.33,1.5-.81,2.29-1.13.97-.39,1.92-.93,2.85-1.42,1.7-.89,3.41-1.8,5.03-2.83,1.16-.74,2.15-1.71,3.27-2.52.88-.63,1.94-1.35,2.88-2.18,1.3-1.16,2.35-2.55,2.3-4.29,0-.31-.26-.51-.49-.69-.27-.21-.57-.38-.88-.52-.38-.16-.78-.27-1.19-.37-1.78-.45-3.57-.87-5.35-1.32-2.46-.63-4.93-1.19-7.41-1.72-2.51-.53-5.09-.82-7.62-1.35-1.22-.25-2.08-1.09-2.62-2.19-.32-.65-.92-1.8-1.14-2.43-.21-.6-.18-.43-.43-.94-.13-.26-2.12-4.01-2.98-5.62-.9-1.67-1.87-3.3-2.85-4.92-1.25-2.07-2.52-4.12-3.81-6.17-.51-.81-1.01-1.61-1.52-2.42-.1-.15-.18-.32-.26-.48-.05.04-.1.08-.16.12-.07-.19-.14-.38-.22-.57Z"/>
      <path d="M95.8,37.61c-.27-.26-.62-.35-.77-.48-.05-.04-2.77-1.1-2.77-1.1-.83-.13-1.68-.29-2.49-.49-2.31-.57-16.07-3.12-16.38-3.2-.28-.07-.5-.14-.76-.29-.77-.45-1.58-.92-2.17-1.6-.51-.58-.84-1.34-1.2-2.02-.51-.97-.92-2.03-1.5-2.97-.24-.4-1.56-2.59-1.65-2.83-.53-1.42-.75-1.37-1.41-2.5-1.83-3.15-3.48-6.4-5.49-9.45-.67-1.02-1.35-2.01-2.06-2.92-.02-.04-.05-.08-.08-.12-.83-1.15-1.78-2.48-2.8-3.46-.29-.28-1.77-1.93-2.54-2.03-.26-.04-.46-.02-.65.02-.19-.04-.39-.06-.65-.02-.77.1-2.24,1.75-2.54,2.03-.17.17-1.97,2.46-2.35,2.92-.91,1.08-1.76,2.32-2.59,3.59-2.01,3.06-3.66,6.3-5.49,9.45-.66,1.13-.88,1.08-1.41,2.5-.09.25-1.4,2.44-1.65,2.83-.6.99-1.4,1.79-1.93,2.82-.08.16-.17.32-.28.46-.43.55-1.2.76-1.79,1.07-.63.33-1.29.67-1.98.87-.13.04-4.02,1.24-5.08,1.48-.34.08-3.26.86-3.67,1-2.54.86-4.73,1.76-7.26,2.39-1.45.36-2.86.72-4.26,1.27-.36.14-.72.29-1.02.55-1.18,1.03-.84,2.83-.07,3.98.15.23.33.43.51.64.42.47.69,1,1.08,1.47.77.93,2.06,1.77,2.94,2.69.07.07.77.5,1.05.62.07.03,9.39,5.81,9.7,5.95,1.7.77,3.95,1.39,3.75,3.69-.1,1.18-.64,2.4-.99,3.52-.44,1.41-.88,2.81-1.33,4.22-.06.18-.81,2-.69,2.12-.21.32-.88,2.27-.93,2.49-.04.18-1.1,3.81-1.39,5.51-.57,3.32-.85,6.64-.88,9.98,0,.51-.1,1.03-.15,1.54.2.32,1.11.92,1.37,1.15.15.13.91.3,1.02.38.4-.07,2-.48,2.14-.52.76-.23,2.21-.71,2.21-.71.08-.14,1.18-.4,1.42-.54.23-.14,2.01-.76,2.59-.97,0,0,4.11-1.74,4.24-1.8.39-.18,1.76-1.02,2.14-1.19.87-.39,1.64-.95,2.43-1.47,1.8-1.21,3.66-2.31,5.58-3.33,1.18-.62,2.29-1.36,3.4-2.1.62-.42,1.17-.95,1.85-1.27.84-.39,1.47-.17,2.24.24.7.38,1.4.77,2.07,1.19.68.43,1.3,1.01,1.99,1.41.71.41,8.21,4.72,9.42,5.45.55.33,1.03.8,1.63,1.08.13.06,3,1.42,3.07,1.44.28.11,1.18.35,1.18.35.59.21,2.36.83,2.59.97.24.15,2.87,1.02,3.63,1.25.54.17,1.17.17,1.73.25.69.1,1.39.38,1.94-.28.25-.3.31-.7.37-1.08.12-.79.35-1.55.33-2.35-.02-1.02-.07-2.04-.14-3.06-.07-1.02-.17-2.04-.29-3.05-.12-.95-.43-1.99-.43-2.95-.3-1.71-1.35-5.33-1.39-5.51-.05-.22-.97-2.45-1-2.43,0,0-1.41-4.26-1.57-4.79-.58-2-1.95-3.89-1.77-6.05.06-.71,1.15-1,1.65-1.39.21-.16,1.88-1.1,2.5-1.39.31-.14,3.7-2.1,4.18-2.51.06-.09,1.72-1.24,2.26-1.57.23-.14,2.4-1.78,2.98-1.99.15-.09.3-.2.47-.28.33-.16,3.06-2.02,3.79-2.9.72-.88,1.4-1.81,1.89-2.84.23-.48.52-1.06.58-1.59.03-.29.04-1.18-.2-1.41ZM92.19,43.18c-.93.83-2,1.54-2.88,2.18-1.12.81-2.1,1.78-3.27,2.52-1.62,1.03-3.33,1.95-5.03,2.83-.93.48-1.87,1.03-2.85,1.42-.79.32-1.5.8-2.29,1.13-.6.25-1.53.33-1.69,1.13-.05.24.01.48.09.71.63,1.95,1.33,3.89,1.99,5.83.51,1.49,1.19,2.91,1.63,4.42.19.68.35,1.18.68,1.78.27.5.46,1.07.64,1.61.85,2.49,1.31,5.12,1.67,7.72.14,1.01.26,2.03.37,3.05.13,1.27.52,3.32.25,4.54-.15.69-.71,1.54-1.43,1.73-.46.12-.95.06-1.42,0-1.02-.13-1.91-.26-2.87-.61-.7-.26-1.39-.57-2.11-.77-1.35-.39-8.79-4.03-10.39-4.97-.23-.13-3.39-2.29-4.08-2.84-1.47-1.18-3.03-2.2-4.56-3.29-.42-.3-.88-.55-1.31-.84-.55-.37-.84-.88-1.46-1.19-1.04-.53-1.91.36-2.75.92-.55.37-1.13.72-1.67,1.11-1.54,1.09-3.09,2.11-4.56,3.29-.69.56-1.6,1.44-2.34,1.76-.12.05-1.51.95-1.73,1.09-1.6.94-9.03,4.58-10.39,4.97-1.77.51-3.23,1.29-5.12,1.39-.62.03-1.26.01-1.81-.27-1.8-.95-.81-4.44-.65-5.99.38-3.58,1.2-9.58,2.9-12.81.68-1.29.87-1.98,1.42-3.27.43-1,.57-2.21.9-3.25.26-.85.55-1.7.91-2.53.41-.95.78-1.63.63-2.73-.11-.85-.5-1.34-1.27-1.62-.73-.27-1.32-.81-2.06-1.07-3.25-1.12-5.66-2.52-8.49-4.59-1.27-.93-2.5-2.12-3.84-2.97-.91-.57-1.2-.64-2.03-1.47-1.03-1.03-2.88-3.32-1.52-4.75.35-.37.83-.59,1.32-.75,3.78-1.23,7.47-2.69,11.32-3.71.63-.17,9.44-3.07,9.92-3.2.59-.16,1.2-.27,1.77-.5.95-.38,1.29-1.07,1.61-1.99.21-.6,2.54-4.95,3.41-6.56,2.04-3.8,4.38-7.45,6.68-11.1.65-1.03,1.3-2.06,1.97-3.08.65-1,1.42-1.91,2.17-2.84.59-.73,1.45-1.49,2.45-1.53,1.43-.06,2.31,1.26,3.07,2.25.39.51.92.91,1.31,1.42.18.23.52,1.15.78,1.39.51.8,1.01,1.61,1.52,2.41,1.28,2.05,2.56,4.1,3.81,6.17.98,1.62,1.96,3.25,2.85,4.92.86,1.61,2.85,5.36,2.98,5.62.25.5.21.33.43.94.22.63.82,1.78,1.14,2.43.54,1.1,1.4,1.94,2.62,2.19,2.53.52,5.11.81,7.62,1.35,2.48.53,4.95,1.09,7.41,1.72,1.78.46,3.57.87,5.35,1.32.4.1.8.21,1.19.37.31.14.61.31.88.52.23.18.49.38.49.69.05,1.74-1,3.13-2.3,4.29Z"/>
      <path d="M38.57,52.1c.12.34-.06,1.44-.07,1.66-.04.67-.04,1.34.11,2,.06.27,1.05,1.65,1.3,1.84.47.35,1,.63,1.51.92.62.35,1.33.81,2.05.9,1.36.17,2.72.34,4.09.47.69.06,1.38.11,2.07.14.57.03,1.13-.07,1.71-.06,2.14.01,4.28.4,6.36-.27,1.07-.34,2.11-.78,3.09-1.31.61-.33,1.26-.63,1.82-1.04.41-.29.79-.62,1.14-.98.28-.29.63-.7.76-1.09.2-.57.79-1.74.79-1.74l.32-.59s.24.07.24.07c.19.28,0,.83-.05,1.13-.1.53-.24,1.07-.46,1.56-.12.26-.31.46-.44.71-.15.27-.3.52-.48.77-.27.35-.59.67-.95.94s-.72.58-1.15.78c-.03.01-.06.03-.09.04-.6.24-1.12.68-1.7.96-.62.31-1.27.57-1.93.77-1.16.36-2.38.57-3.6.58-1.32.01-2.62-.16-3.94-.09-.82.04-1.67-.07-2.49-.12-2.04-.15-4.09-.25-6.1-.65-.35-.07-.69-.17-1.02-.29-.6-.2-1.17-.65-1.64-1.06-.34-.29-.83-.62-1.07-1.01-.29-.47-.65-.87-.89-1.38s-.38-1.03-.44-1.57c-.04-.41-.07-.94.07-1.34.16-.45.4-.89.58-1.34.05-.11.09-.23.18-.32.06-.06.14-.1.22-.08.04,0,.06.04.08.1Z"/>
      <path class="cls-7" d="M38.91,50.94c-.81,1.25-2.09,2.19-3.52,2.6-.35.1-.8.3-.72.66.06.27.4.36.68.38.99.07,2-.08,2.93-.45.71-.28,1.42-.73,1.68-1.45s-.17-1.7-.93-1.74"/>
      <path class="cls-7" d="M69.17,54.23c-1.49-.78-2.97-1.57-4.46-2.35-.28.21-.28.66-.09.95s.51.47.82.64c.56.31,1.13.62,1.69.93.43.23.9.47,1.37.38"/>
      <g>
        <path class="cls-1" d="M38.28,39.68c-.29,1.65-.2,3.47.8,4.81,1.26,1.68,3.61,2.16,5.7,1.93.72-.08,1.45-.23,2.08-.59,1.52-.87,2.14-2.73,2.47-4.45,1.89-9.74-9.53-10.28-11.05-1.7Z"/>
        <path class="cls-7" d="M43.79,47.02c-2.22,0-4.1-.79-5.15-2.21-1.22-1.63-1.16-3.75-.9-5.23.52-2.96,2.3-5.26,4.75-6.13,1.98-.71,4.12-.36,5.59.9,1.75,1.51,2.39,4.04,1.79,7.13-.31,1.57-.92,3.79-2.74,4.82-.79.45-1.69.59-2.3.66-.35.04-.7.06-1.04.06ZM44.57,34.18c-.56,0-1.14.1-1.71.3-2.1.75-3.58,2.68-4.04,5.29h0c-.23,1.27-.29,3.06.7,4.38.98,1.32,2.92,1.96,5.19,1.71.81-.09,1.4-.25,1.87-.52,1.42-.81,1.94-2.72,2.2-4.08.52-2.69.01-4.85-1.43-6.08-.77-.66-1.75-1.01-2.79-1.01Z"/>
      </g>
      <g>
        <path class="cls-1" d="M64.66,39.68c.29,1.65.2,3.47-.8,4.81-1.26,1.68-3.61,2.16-5.7,1.93-.72-.08-1.45-.23-2.08-.59-1.52-.87-2.14-2.73-2.47-4.45-1.89-9.74,9.53-10.28,11.05-1.7Z"/>
        <path class="cls-7" d="M59.15,47.02c-.34,0-.69-.02-1.04-.06-.61-.06-1.5-.2-2.3-.66-1.82-1.04-2.43-3.25-2.74-4.82-.6-3.09.04-5.62,1.79-7.13,1.47-1.26,3.61-1.61,5.59-.9,2.45.88,4.23,3.17,4.75,6.13.26,1.49.32,3.6-.9,5.23-1.06,1.41-2.94,2.21-5.15,2.21ZM58.37,34.18c-1.04,0-2.02.34-2.79,1.01-1.44,1.24-1.95,3.4-1.43,6.08.26,1.36.78,3.26,2.2,4.08.47.27,1.06.43,1.87.52,2.27.24,4.21-.4,5.19-1.71.98-1.32.92-3.11.7-4.38h0c-.46-2.61-1.93-4.53-4.04-5.29-.57-.2-1.15-.3-1.71-.3Z"/>
      </g>
      <path class="cls-7" d="M44.57,41.51c1.39-.03,2.82-.88,3.07-2.25.32-1.73.5-3.84-.92-4.94-.66-.51-1.54-.67-2.37-.56-2.6.33-4.13,3.36-3.29,5.71.39,1.08.86,1.44,1.95,1.75.33.09.64.22.97.29.27.06.32,0,.59,0Z"/>
      <path class="cls-7" d="M57.83,41.51c-1.39-.03-2.82-.88-3.07-2.25-.32-1.73-.5-3.84.92-4.94.66-.51,1.54-.67,2.37-.56,2.6.33,4.13,3.36,3.29,5.71-.39,1.08-.86,1.44-1.95,1.75-.33.09-.64.22-.97.29-.27.06-.32,0-.59,0Z"/>
      <path class="cls-7" d="M62.96,31.9c.32.5.05,1.19-.4,1.58-.52.45-1.59.78-2.14.31.94-.55,1.84-.99,2.54-1.88Z"/>
      <path class="cls-7" d="M41.65,34.16c-.88-.29-1.6-1.01-1.91-1.88-.43.05-.67.58-.54.99s.5.7.89.87c.51.23,1.07.32,1.62.25-.08-.08-.15-.15-.23-.23"/>
      <path d="M71.63,46.26c.21.33.64.31.93.08s.49-.62.68-1c1.06-2.15,2.06-4.09,2.66-6.5-.21-.09-.42-.16-.63-.24-.22.77-.65,1.3-1.01,1.96s-.68,1.35-.98,2.05c-.13.29-1.69,3.58-1.65,3.65Z"/>
      <path class="cls-7" d="M74.92,46.51c.25.07.51.14.76.21,1.35-2.11,2.47-4.36,3.36-6.71-.24-.05-.82-.18-1.05-.05s-.28.51-.37.79c-.23.68-.48,1.36-.77,2.02-.15.36-1.66,3.82-1.94,3.74Z"/>
      <path class="cls-7" d="M78.34,46.77c.25.04.5.13.72.25.08-.47.29-.9.5-1.32.82-1.68,1.93-3.41,2.52-5.17-.62-.18-.92-.09-1.15.49-.26.66-.45,1.34-.71,2s-.56,1.3-.88,1.93c-.1.19-.84,1.83-1.01,1.81Z"/>
      <g>
        <path class="cls-6" d="M55.07,5.81c4.69-.61,15.22-1.9,15.33-2.43-4.45-5.43-11.66-1.68-17.02.23.46.6.84,1.09,1.09,1.4.21.26.4.54.61.8Z"/>
        <path d="M55.07,6.36c-.17,0-.33-.08-.43-.21-.1-.12-.19-.25-.29-.38-.1-.14-.21-.28-.32-.42-.25-.31-.63-.81-1.09-1.41-.11-.14-.14-.32-.09-.49.05-.17.18-.3.34-.36.65-.23,1.32-.49,2.03-.76,5.1-1.95,11.44-4.37,15.6.7.1.13.15.3.11.46-.12.61-.17.87-13.98,2.64l-1.82.23s-.05,0-.07,0ZM54.27,3.86c.25.33.46.6.62.8.12.15.23.3.34.45l.08.11,1.51-.19c3.56-.46,10.51-1.35,12.64-1.87-3.66-3.7-9.06-1.64-13.85.19-.46.18-.91.35-1.34.51Z"/>
      </g>
      <g>
        <path class="cls-6" d="M60.11,13.19c5.21-1.05,16.88-3.27,17.02-4-4.64-7.02-12.77-1.67-18.78,1.14.48.78.87,1.41,1.13,1.82.22.34.42.7.63,1.04Z"/>
        <path d="M60.11,13.74c-.19,0-.36-.1-.47-.26-.1-.16-.2-.32-.29-.49-.11-.18-.22-.37-.33-.55-.25-.38-.62-.98-1.14-1.83-.08-.13-.1-.3-.06-.45.05-.15.15-.27.29-.34.73-.34,1.48-.72,2.28-1.11,5.73-2.85,12.85-6.4,17.2.17.08.12.11.27.08.41-.13.68-.85,1.13-15.44,4.03-.74.15-1.42.28-2.02.4-.04,0-.07.01-.11.01ZM59.14,10.57c.35.57.62,1,.8,1.28.12.19.24.39.36.58.03.05.05.09.08.14.5-.1,1.05-.21,1.64-.33,4.13-.82,12.36-2.45,14.33-3.21-3.84-5.11-10-2.04-15.46.67-.6.3-1.18.59-1.74.86Z"/>
      </g>
      <g>
        <path class="cls-6" d="M64.61,20.83c5.94-1.19,19.25-3.73,19.41-4.56-5.3-8-14.57-1.9-21.42,1.3.54.89.99,1.61,1.29,2.07.25.38.48.8.72,1.18Z"/>
        <path d="M64.61,21.38c-.19,0-.36-.1-.47-.26-.11-.18-.22-.37-.34-.55-.13-.21-.25-.42-.38-.63-.28-.43-.72-1.13-1.29-2.08-.08-.13-.1-.3-.06-.45s.15-.27.29-.34c.83-.39,1.69-.82,2.6-1.27,6.5-3.24,14.6-7.27,19.51.16.08.12.11.27.08.41-.15.78-1.78,1.4-17.55,4.53-.84.17-1.62.32-2.3.46-.04,0-.07.01-.11.01ZM63.39,17.81c.42.68.74,1.19.96,1.54.14.21.27.44.4.66.04.07.08.14.12.21.59-.12,1.23-.25,1.92-.38,4.78-.95,14.36-2.85,16.45-3.7-4.41-6-11.51-2.46-17.79.66-.71.36-1.4.7-2.06,1.02Z"/>
      </g>
    </g>
    <path class="cls-6" d="M271.4,56.25c-.23-.13-.43-.33-.59-.63-.56-1.01-.54-2.24-.79-3.34-.17-.74-.58-1.5-.53-2.28.08-1.24,1.47-1.05,2.45-1.23,3.02-.58,6.02-1.24,9.02-1.88-.71-1.65-1.54-3.26-2.33-4.88-.31-.63-.62-1.26-.93-1.89-.21-.43-.99-1.46-.95-1.92.04-.57.87-.62,1.37-.76.72-.2,1.45-.39,2.17-.59,1.08-.29,2.1-.74,3.18-1.02.47-.12,1.13-.35,1.62-.25.61.12.56.37.67.96.34,1.86.47,4.13,1.16,5.89l.92,2.36c.03.07,3.54-1.13,3.76-1.2,1.23-.41,5.73-2.98,6.46-1.46.39.82.43,1.96.59,2.84.15.83.45,1.63.56,2.46.16,1.33-.18,1.5-1.43,1.8-.65.15-7.7,1.9-7.71,1.85.33,1.05,1.11,3.08,1.96,5.76.03.1,3.2-1.16,3.4-1.24.92-.38,1.83-.78,2.74-1.19.99-.44,2.16-1.38,2.81-.12.43.84.69,1.82,1.03,2.7.4,1.06,1.22,2.14,1.25,3.31.03,1.24-1.65,1.17-2.63,1.4-2.06.47-4.12.95-6.19,1.42,1.01,2.72,2,5.45,2.98,8.18.39,1.1.94,2.14,1.19,3.29.27,1.27.06,1.46-.99,2-1.14.58-2.47,1.59-3.72,1.87-1.53.34-2.04-3.62-2.42-4.7-1.06-3-2.17-5.97-3.31-8.94-.07-.19-5.5,1.72-5.94,1.87-1.2.43-2.4.87-3.59,1.33-.8.31-2.23,1.28-3.01.45-.55-.59-.74-2.24-.99-3.01-.3-.94-1.92-3.76-.97-4.63.34-.31,1.39-.16,1.85-.2.83-.08,1.66-.17,2.49-.28,1.52-.2,3.04-.44,4.54-.76.39-.13,1.64-.52,3.08-.92-.33-.98-1.18-3.08-2.09-5.69-2.83.77-5.62,1.68-8.41,2.57-1.11.35-2.67,1.28-3.7.71Z"/>
    <path class="cls-6" d="M334.21,63.96c1.61-2.22,3.51-4.92,4.25-7.6.02-.06.03-.12-.01-.17-.04-.05-.12-.05-.19-.04-2.08.25-4.11.17-6.23.22-3.65.07-7.34,0-10.83,1.24-.93.33-2.77,1.33-3.77.95-1.06-.41-.7-2.63-.79-3.51-.1-1.06-.23-2.12-.31-3.18-.03-.35-.32-1.34-.21-1.52.19-.3,1.16-.25,1.45-.26,1.19-.05,2.38.09,3.57.07,1.34-.03,2.68-.07,4.03-.09,5.08-.07,10.21.04,15.25-.72,1.06-.16,2.47-.96,3.21.11.94,1.37,1.46,2.92,2.11,4.44s.96,2.47.16,4.01c-.58,1.12-1.22,2.21-1.9,3.28-1.72,2.72-3.66,5.3-5.67,7.82-2.28,2.85-4.61,5.68-7.32,8.14-.52.47-1.05.93-1.6,1.36-.39.3-1.03,1.02-1.49,1.07-1.19.14-2.15-2-2.77-2.74-.61-.72-1.22-1.44-1.82-2.17-.49-.58-1.85-1.22-.45-1.67,4.86-1.59,8.39-4.96,11.33-9.03ZM342.91,38.88c.84.35.57,1.58.77,2.64.14.73,1.19,3.97.46,4.41-.79.49-2.63.03-3.51-.01-1.32-.07-2.64-.13-3.96-.18-2.6-.1-5.2-.13-7.8.03-1.29.08-2.58.28-3.85.52-1.18.22-2.63.82-3.83.78-1.52-.04-1.61-2.43-1.97-3.57-.31-.99-.74-2.02-.91-3.04-.12-.72.13-.74.87-.86.68-.11,1.38-.1,2.07-.1,1.14,0,2.27.12,3.41.13,2.49.03,4.98.06,7.47,0,2-.06,4-.21,5.98-.43,1.36-.15,2.69-.33,4.05-.42.32-.02.56.01.75.09Z"/>
    <path class="cls-6" d="M377.27,63.96c1.61-2.22,3.51-4.92,4.25-7.6.02-.06.03-.12-.01-.17-.04-.05-.12-.05-.19-.04-2.08.25-4.11.17-6.23.22-3.65.07-7.34,0-10.83,1.24-.93.33-2.77,1.33-3.77.95-1.06-.41-.7-2.63-.79-3.51-.1-1.06-.23-2.12-.31-3.18-.03-.35-.32-1.34-.21-1.52.19-.3,1.16-.25,1.45-.26,1.19-.05,2.38.09,3.57.07,1.34-.03,2.68-.07,4.03-.09,5.08-.07,10.21.04,15.25-.72,1.06-.16,2.47-.96,3.21.11.94,1.37,1.46,2.92,2.11,4.44s.96,2.47.16,4.01c-.58,1.12-1.22,2.21-1.9,3.28-1.72,2.72-3.66,5.3-5.67,7.82-2.28,2.85-4.61,5.68-7.32,8.14-.52.47-1.05.93-1.6,1.36-.39.3-1.03,1.02-1.49,1.07-1.19.14-2.15-2-2.77-2.74-.61-.72-1.22-1.44-1.82-2.17-.49-.58-1.85-1.22-.45-1.67,4.86-1.59,8.39-4.96,11.33-9.03ZM385.97,38.88c.84.35.57,1.58.77,2.64.14.73,1.19,3.97.46,4.41-.79.49-2.63.03-3.51-.01-1.32-.07-2.64-.13-3.96-.18-2.6-.1-5.2-.13-7.8.03-1.29.08-2.58.28-3.85.52-1.18.22-2.63.82-3.83.78-1.52-.04-1.61-2.43-1.97-3.57-.31-.99-.74-2.02-.91-3.04-.12-.72.13-.74.87-.86.68-.11,1.38-.1,2.07-.1,1.14,0,2.27.12,3.41.13,2.49.03,4.98.06,7.47,0,2-.06,4-.21,5.98-.43,1.36-.15,2.69-.33,4.05-.42.32-.02.56.01.75.09Z"/>
    <path class="cls-7" d="M291.47,81.37c-1.59,0-2.19-2.52-2.61-4.23-.09-.39-.18-.76-.25-.95-.91-2.59-1.93-5.34-3.1-8.4-1.11.31-3.84,1.24-5.27,1.75-1.1.39-2.27.83-3.57,1.32-.14.06-.31.14-.49.22-.86.41-2.3,1.09-3.27.06-.52-.55-.75-1.58-.95-2.48-.07-.31-.13-.59-.2-.8-.06-.18-.19-.49-.34-.82-.65-1.49-1.54-3.52-.44-4.53.44-.41,1.17-.39,1.8-.38.17,0,.33,0,.44,0,.82-.08,1.64-.17,2.46-.28,1.63-.21,3.09-.45,4.44-.74.4-.13,1.29-.41,2.36-.72-.12-.33-.27-.72-.44-1.16-.34-.9-.76-2-1.2-3.23-2.22.62-4.45,1.33-6.61,2.02l-1.16.37c-.25.08-.52.19-.8.3-1.06.42-2.37.95-3.44.35h0c-.35-.2-.64-.5-.86-.89-.44-.79-.56-1.64-.68-2.47-.05-.37-.1-.72-.18-1.05-.05-.22-.13-.45-.2-.68-.18-.54-.38-1.15-.34-1.81.1-1.56,1.54-1.7,2.4-1.79.21-.02.41-.04.6-.08,2.37-.45,4.77-.97,7.09-1.47l1.09-.23c-.47-1.03-.98-2.06-1.48-3.06l-1.43-2.9c-.06-.11-.15-.27-.26-.44-.47-.75-.8-1.32-.76-1.83.08-.98,1.08-1.2,1.62-1.31.09-.02.18-.04.26-.06l2.17-.59c.49-.13.97-.3,1.47-.47.55-.19,1.13-.39,1.72-.54l.23-.06c.5-.14,1.12-.3,1.69-.2,1.01.2,1.11.84,1.18,1.31l.03.2c.1.56.19,1.16.27,1.78.19,1.39.4,2.83.85,3.99l.6,1.54c.03.08.06.17.09.24.46-.14,1.32-.42,2.93-.97l.2-.07c.23-.08.65-.27,1.14-.49,2.23-1.02,5.29-2.41,6.16-.62.33.69.44,1.52.54,2.26.03.26.07.52.11.76.06.34.15.67.24,1.01.13.48.26.97.32,1.5.23,1.89-.62,2.24-1.95,2.55-.16.04-.72.17-1.47.36-1.13.28-2.69.66-3.96.97-.65.16-1.15.28-1.54.36.1.28.21.59.33.94.34.95.75,2.11,1.19,3.46.85-.31,2.41-.91,2.68-1.03.92-.38,1.82-.78,2.73-1.18.16-.07.33-.16.49-.24.67-.35,1.43-.74,2.19-.49.43.14.77.45,1.01.93.31.61.53,1.26.75,1.89.1.3.2.59.31.88.12.31.28.64.46.98.38.76.82,1.61.84,2.56.04,1.59-1.59,1.84-2.56,1.98-.22.03-.42.06-.6.1l-5.42,1.25c.89,2.39,1.77,4.84,2.71,7.46.13.37.28.73.43,1.09.3.73.61,1.48.78,2.29.34,1.59-.04,2.09-1.35,2.75-.35.18-.71.4-1.09.62-.9.54-1.83,1.1-2.8,1.31-.13.03-.25.04-.36.04ZM286.01,66.31c.4,0,.47.19.58.46,1.26,3.28,2.35,6.21,3.32,8.96.09.26.19.65.29,1.09.69,2.86,1.14,3.22,1.33,3.17.75-.17,1.58-.67,2.39-1.15.4-.24.8-.48,1.17-.67q.8-.41.63-1.24c-.15-.69-.42-1.35-.71-2.05-.16-.38-.32-.76-.45-1.15-1.03-2.88-2-5.56-2.97-8.17l-.27-.74,6.95-1.6c.21-.05.46-.09.71-.12,1.08-.16,1.39-.29,1.38-.58-.02-.63-.34-1.28-.69-1.97-.18-.36-.37-.73-.52-1.11-.11-.3-.22-.61-.33-.92-.2-.59-.41-1.19-.67-1.72-.04-.08-.12-.22-.21-.25-.22-.07-.75.21-1.14.41-.19.1-.38.2-.56.28-.92.41-1.83.81-2.76,1.2-3.47,1.45-3.73,1.33-3.95,1.23l-.28-.13-.1-.29c-.51-1.61-.99-2.97-1.38-4.06-.25-.71-.45-1.28-.59-1.7l.66-.21-.08-.68c.35-.05,4.27-1.02,6.15-1.48.75-.19,1.32-.32,1.48-.36q1-.24.9-1.04c-.05-.43-.17-.86-.29-1.31-.1-.36-.19-.73-.26-1.12-.05-.26-.08-.53-.12-.82-.09-.66-.18-1.35-.41-1.84-.08-.17-.67-.39-4.35,1.28-.54.25-.97.44-1.27.54l-.19.06q-4.17,1.41-4.43.74l-.32-.82c-.36-.93-.52-1.34-.59-1.54h0c-.51-1.31-.72-2.83-.93-4.29-.08-.59-.16-1.17-.26-1.72l-.04-.23c0-.05-.02-.11-.03-.16-.02,0-.04,0-.06-.01-.25-.05-.72.08-1.06.17l-.26.07c-.54.14-1.06.32-1.61.51-.51.18-1.03.36-1.57.5l-2.17.59c-.1.03-.22.05-.34.08-.14.03-.38.08-.51.14.08.21.38.69.53.93.14.22.26.42.33.56l1.43,2.9c.63,1.27,1.28,2.57,1.85,3.9l.33.77-2.74.59c-2.33.5-4.73,1.02-7.12,1.47-.23.04-.48.07-.73.09-1.05.1-1.15.21-1.17.51-.03.39.12.82.27,1.28.09.27.18.53.24.8.09.39.15.78.2,1.16.11.74.21,1.43.52,2,.1.17.2.29.33.36.5.28,1.47-.11,2.26-.43.32-.13.62-.25.9-.34l1.15-.37c2.38-.76,4.83-1.54,7.28-2.21l.62-.17.21.61c.51,1.47,1,2.76,1.4,3.8.31.82.55,1.46.7,1.9l.23.69-.7.19c-1.44.39-2.68.79-3.04.9l-.07.02c-1.4.3-2.91.55-4.59.77-.83.11-1.67.2-2.51.28-.15.02-.37.01-.6,0-.24,0-.75-.02-.89.05-.2.19.06,1.19.82,2.93.17.38.31.71.39.96.08.24.15.56.23.91.14.62.35,1.56.61,1.83.28.3,1.12-.1,1.68-.36.22-.1.42-.2.59-.26,1.31-.5,2.49-.94,3.6-1.34,4.03-1.43,5.57-1.93,6.23-1.93Z"/>
    <path class="cls-7" d="M325.6,82.47c-1.21,0-2.07-1.32-2.7-2.3-.18-.28-.35-.54-.47-.69l-1.82-2.16c-.08-.1-.23-.22-.38-.35-.43-.36-.96-.82-.84-1.47.13-.65.84-.88,1.07-.96,4.14-1.36,7.64-4.15,10.99-8.78,1.23-1.71,3.04-4.2,3.91-6.64-1.3.11-2.59.12-3.85.12-.55,0-1.11,0-1.67.02l-1.16.02c-3.16.05-6.43.1-9.45,1.18-.19.07-.42.17-.67.27-1.13.48-2.53,1.07-3.58.67-1.27-.49-1.24-2.23-1.22-3.38,0-.28.01-.53,0-.71-.04-.4-.08-.81-.12-1.21-.07-.66-.14-1.32-.19-1.98,0-.1-.05-.28-.09-.46-.16-.74-.23-1.15-.01-1.48.34-.52,1.06-.56,1.83-.57h.17c.67-.03,1.34,0,1.99.03.55.03,1.07.05,1.6.04l1.52-.04c.84-.02,1.68-.04,2.51-.05.91-.01,1.82-.02,2.73-.03,4.1-.03,8.34-.07,12.42-.68.22-.03.47-.1.74-.18.92-.25,2.3-.64,3.14.58.78,1.13,1.28,2.37,1.76,3.56.13.33.27.66.41.99.69,1.61,1.07,2.8.14,4.6-.54,1.04-1.17,2.13-1.93,3.34-1.52,2.4-3.33,4.9-5.71,7.88-2.23,2.78-4.63,5.71-7.39,8.22-.59.54-1.13.99-1.64,1.39-.09.07-.2.17-.32.28-.45.41-.95.87-1.51.93-.07,0-.13.01-.19.01ZM321,75.82s.08.07.12.1c.19.16.38.32.54.51l1.82,2.16c.18.22.37.5.58.83.39.6,1.14,1.73,1.58,1.67.15-.04.55-.4.74-.58.15-.14.29-.26.41-.35.49-.38,1-.81,1.56-1.32,2.69-2.44,5.05-5.32,7.24-8.06,2.35-2.93,4.13-5.4,5.63-7.75.74-1.17,1.35-2.22,1.87-3.23.63-1.23.44-1.96-.18-3.43-.14-.34-.28-.68-.42-1.01-.48-1.18-.93-2.29-1.62-3.3-.23-.34-.63-.31-1.63-.03-.3.08-.61.17-.9.21-4.18.63-8.47.67-12.61.7-.91,0-1.82.01-2.72.03-.83.01-1.67.03-2.5.05l-1.52.04c-.57.01-1.14-.01-1.69-.04-.64-.03-1.25-.06-1.86-.03-.05,0-.13,0-.22,0-.11,0-.35,0-.56.02.02.13.05.27.08.37.06.26.1.5.11.65.05.65.12,1.3.18,1.95.04.41.08.82.12,1.22.02.24.02.53.01.86,0,.58-.03,1.93.33,2.07.53.2,1.79-.33,2.55-.65.28-.12.53-.22.74-.3,3.23-1.16,6.62-1.21,9.89-1.26l1.15-.02c.57-.01,1.13-.01,1.69-.02,1.53,0,2.98-.01,4.47-.19.46-.05.71.17.82.31.1.13.24.39.13.78-.8,2.89-2.94,5.85-4.36,7.81h0c-3.5,4.84-7.18,7.78-11.56,9.25ZM335.59,58.39s0,0,0,0c0,0,0,0,0,0ZM319.08,49.96s-.08,0-.11,0c-1.73-.05-2.14-1.96-2.41-3.23-.06-.3-.12-.59-.2-.82-.09-.27-.18-.55-.28-.82-.26-.75-.52-1.52-.66-2.31-.06-.33-.09-.75.16-1.1.28-.39.71-.46,1.21-.54.78-.13,1.5-.12,2.19-.12.66,0,1.26.04,1.86.07.54.03,1.07.06,1.61.07,2.44.03,4.96.07,7.44,0,1.89-.05,3.89-.2,5.92-.43l.98-.11c1.01-.12,2.06-.24,3.1-.31.42-.03.76.02,1.06.15h0c.99.42,1.05,1.45,1.1,2.29.02.29.03.59.08.86.03.13.09.36.16.64.57,2.19.93,3.91,0,4.49-.79.49-2.03.32-3.11.18-.3-.04-.58-.08-.8-.09h-.15c-1.27-.07-2.54-.14-3.81-.18-3.11-.12-5.49-.11-7.73.03-1.09.07-2.25.22-3.76.51-.39.07-.81.19-1.26.31-.87.24-1.76.48-2.61.48ZM316.78,42.54s0,0,0,.01c.12.68.36,1.4.6,2.09.1.29.2.57.29.86.09.28.16.6.23.95.25,1.16.5,2.13,1.1,2.14.7.02,1.51-.21,2.32-.43.46-.13.93-.26,1.37-.34,1.57-.3,2.78-.46,3.93-.53,2.28-.14,4.71-.15,7.86-.03,1.28.05,2.55.11,3.83.18h.15c.25.02.56.06.91.11.64.09,1.68.22,2.12.06.13-.55-.35-2.39-.51-3.01-.08-.32-.15-.58-.18-.73-.07-.36-.09-.72-.11-1.04-.03-.61-.07-1.01-.25-1.09-.07-.03-.2-.06-.44-.04-1.01.06-2.04.19-3.03.3l-.99.12c-2.07.23-4.11.38-6.04.43-2.5.07-5.04.04-7.5,0-.56,0-1.11-.04-1.66-.07-.58-.03-1.16-.06-1.74-.07-.69,0-1.35,0-1.95.09-.11.02-.21.03-.3.05Z"/>
    <path class="cls-7" d="M368.66,82.47c-1.21,0-2.07-1.32-2.7-2.3-.18-.28-.35-.54-.47-.69l-1.82-2.16c-.08-.1-.23-.22-.38-.35-.43-.36-.96-.82-.84-1.47.13-.65.84-.88,1.07-.96,4.14-1.36,7.64-4.15,10.99-8.78,1.23-1.71,3.04-4.2,3.91-6.64-1.3.11-2.59.12-3.85.12-.55,0-1.11,0-1.67.02l-1.16.02c-3.16.05-6.43.1-9.45,1.18-.19.07-.42.17-.67.27-1.13.48-2.53,1.07-3.58.67-1.26-.49-1.24-2.23-1.22-3.38,0-.28.01-.53,0-.71-.04-.41-.08-.81-.12-1.22-.07-.66-.14-1.32-.19-1.97,0-.1-.05-.28-.09-.46-.16-.74-.23-1.15-.01-1.48.34-.52,1.06-.56,1.83-.57h.17c.67-.03,1.34,0,1.99.03.55.02,1.07.05,1.6.04l1.52-.04c.84-.02,1.68-.04,2.51-.05.91-.01,1.82-.02,2.73-.03,4.1-.03,8.34-.07,12.42-.68.22-.03.47-.1.74-.18.92-.25,2.3-.64,3.14.58.78,1.13,1.28,2.37,1.76,3.56.13.33.27.66.41.99.69,1.61,1.07,2.8.14,4.6-.53,1.04-1.16,2.13-1.93,3.34-1.52,2.4-3.33,4.9-5.71,7.88-2.23,2.78-4.63,5.71-7.39,8.22-.59.54-1.13.99-1.64,1.39-.09.07-.2.17-.32.28-.45.41-.95.87-1.51.93-.07,0-.13.01-.19.01ZM364.05,75.82s.08.07.12.1c.19.16.38.32.54.51l1.82,2.16c.18.22.37.5.58.83.39.6,1.11,1.73,1.59,1.67.15-.04.55-.4.74-.58.15-.14.29-.26.41-.35.49-.38,1-.81,1.56-1.32,2.68-2.44,5.05-5.32,7.24-8.06,2.35-2.94,4.14-5.4,5.63-7.75.74-1.17,1.35-2.23,1.87-3.23.64-1.23.44-1.96-.18-3.43-.14-.34-.28-.68-.42-1.01-.48-1.18-.93-2.29-1.62-3.3-.23-.34-.63-.3-1.63-.03-.3.08-.61.17-.9.21-4.18.63-8.47.67-12.61.7-.91,0-1.82.01-2.72.03-.83.01-1.67.03-2.5.05l-1.52.04c-.58.01-1.14-.01-1.69-.04-.64-.03-1.25-.06-1.86-.03-.05,0-.13,0-.22,0-.11,0-.35,0-.56.02.02.13.05.27.08.37.06.26.1.5.11.64.05.65.12,1.29.18,1.94.04.41.08.82.12,1.23.02.24.02.53.01.86,0,.58-.03,1.93.33,2.07.53.2,1.79-.33,2.55-.65.28-.12.53-.22.74-.3,3.23-1.16,6.62-1.21,9.89-1.26l1.15-.02c.57-.01,1.13-.01,1.69-.02,1.53,0,2.98-.01,4.47-.19.47-.05.71.17.82.31.09.12.24.38.13.77-.8,2.9-2.94,5.86-4.36,7.82h0c-3.5,4.84-7.18,7.78-11.56,9.25ZM362.14,49.96s-.08,0-.11,0c-1.73-.05-2.14-1.96-2.41-3.23-.06-.3-.12-.59-.2-.82-.09-.27-.18-.55-.28-.83-.26-.74-.52-1.52-.66-2.31-.06-.33-.09-.75.17-1.1.28-.39.71-.46,1.21-.54.78-.13,1.5-.12,2.19-.12.66,0,1.26.04,1.86.07.54.03,1.07.06,1.61.07,2.44.03,4.97.07,7.44,0,1.89-.05,3.89-.2,5.92-.43l.98-.11c1.01-.12,2.06-.24,3.1-.31.41-.03.76.02,1.06.15h0c.99.42,1.05,1.45,1.1,2.28.02.29.03.59.08.86.03.14.09.36.16.64.57,2.18.93,3.9,0,4.48-.79.49-2.03.32-3.11.18-.3-.04-.58-.08-.8-.09h-.15c-1.27-.07-2.53-.14-3.8-.18-3.11-.12-5.49-.11-7.73.03-1.09.07-2.25.22-3.76.51-.38.07-.81.19-1.26.31-.87.24-1.76.48-2.61.48ZM359.84,42.54h0c.12.69.36,1.41.6,2.1.1.29.2.58.29.86.09.28.16.6.23.95.25,1.16.5,2.12,1.1,2.14.67.02,1.51-.21,2.32-.43.46-.13.93-.25,1.37-.34,1.57-.3,2.78-.46,3.93-.53,2.28-.14,4.71-.15,7.86-.03,1.27.05,2.55.11,3.82.18h.15c.25.02.56.06.91.11.64.09,1.68.22,2.12.06.12-.55-.35-2.38-.51-3.01-.08-.32-.15-.58-.18-.73-.07-.36-.09-.72-.11-1.04-.03-.61-.07-1.01-.25-1.09h0c-.05-.02-.18-.06-.44-.04-1.01.06-2.04.19-3.03.3l-.99.12c-2.08.23-4.11.38-6.04.43-2.5.07-5.04.04-7.5,0-.56,0-1.11-.04-1.67-.07-.58-.03-1.16-.06-1.74-.07-.69,0-1.35,0-1.95.09-.11.02-.22.03-.3.05Z"/>
    <path class="cls-8" d="M120.3,53.32c-.16,7.46-.32,14.92-.48,22.38-.02,1.05-.03,2.16.54,3.04.92,1.44,2.89,1.65,4.59,1.71,7.89.28,15.79.31,23.68.09,1.9-.05,3.95-.18,5.42-1.39,1.78-1.47,2.11-4.02,2.27-6.32.57-8.22.6-16.47.09-24.69-.05-.84-.12-1.71-.53-2.44-.62-1.12-1.91-1.69-3.14-2.05-3.24-.95-6.67-.97-10.05-.99-5.47-.03-10.93-.05-16.4-.08-7.08-.03-5.86,5.23-5.98,10.72Z"/>
    <path class="cls-2" d="M161.15,78.56c-.02.44-.01.92.32,1.23.31.3.8.32,1.25.33,9.49.21,18.98.39,28.46.55,1.18.02,2.45.01,3.41-.62,1.44-.96,1.58-2.87,1.59-4.52.03-6.9.06-13.8.08-20.7,0-1.9-.01-3.9-1.02-5.55-1.63-2.67-5.24-3.56-8.49-4.01-6.89-.94-21.69-3.58-24.16,3.51-2.93,8.38-1.13,20.93-1.44,29.76Z"/>
    <path class="cls-9" d="M231.48,45.97c2.49,10.69,1.65,21.72.79,32.6-.06.72-.12,1.48-.56,2.1-.94,1.34-3.07,1.49-4.88,1.46-6.66-.09-13.31-.43-19.94-1.03-1.51-.14-3.14-.34-4.21-1.26-1.19-1.03-1.33-2.63-1.39-4.08-.32-7.39-.41-14.78-.26-22.18.13-6.6,1.24-8.33,8.79-8.51,2.05-.05,21.35-.41,21.66.9Z"/>
    <path class="cls-3" d="M239.15,77.41c0,.75.02,1.55.44,2.17.72,1.06,2.23,1.12,3.51,1.08,5.5-.2,11.01-.41,16.51-.61.42-.02.87-.04,1.18-.31.42-.36.45-.99.44-1.54-.11-7.19-.3-14.38-.58-21.57-.03-.65-.06-1.35-.44-1.88-.53-.74-1.53-.93-2.43-1.05-5.08-.66-15.35-2.98-18.19,2.52-2.61,5.05-.45,15.59-.44,21.2Z"/>
    <path class="cls-1" d="M139.26,64.43s7.2,4.69,11.25,7.93l-4.74,5.37s-8.61-8.29-9.7-9.15l-.09,8.79s-3.32-.09-6.1,0l.27-28.01,6.69.18.23,11.48s4.28-3.96,8.79-7.74l3.92,5.37s-9.52,5.65-10.52,5.78Z"/>
    <path class="cls-1" d="M222.91,59.01s-.5-5.37-.55-10.38l5.83.09c-.14,19.13,0,24.37,0,29.42l-5.83-.09.23-4.28c-1,2.14-4.05,4.05-9.02,3.64-4.51-.36-9.06-4.51-8.88-11.75.18-6.88,5.47-10.75,11.02-10.38,4.28.32,6.19,2.28,7.2,3.74ZM220.68,66.48c0-1.87-.87-4.33-3.92-4.96-3.05-.64-6.24,1.55-5.92,5.42.18,2.69,2.32,4.6,5.24,4.6,2.19,0,4.6-1.87,4.6-5.06Z"/>
    <path class="cls-1" d="M248.11,62.15c-.04.47.08,1.05.82,1.52,1.94,1.17,6.96,1.17,7.93,5.17.74,2.88-.54,6.69-5.4,7.5-5.09.82-8.63-2.41-9.45-5.79l3.54-2.22c.78,2.22,2.14,3.58,4.12,3.58,1.28,0,2.22-.93,2.29-1.87.04-.7-.31-1.71-1.83-2.1-4.51-1.21-6.03-2.18-6.65-4.47-.89-3.27,1.4-6.49,5.68-6.92,4.08-.39,7.5,1.87,8.16,5.25l-3.77,1.79c-.31-1.63-1.9-2.8-3.27-2.84-1.13-.08-2.06.51-2.18,1.4Z"/>
    <path class="cls-7" d="M237.97,37.47l2.17.83,1.04,2.37v2.37c-.86,2.03-2,3.9-3.42,5.62l-1.29.21-1.29-1.08v-.87l2.12-3.21-3.42-.87c-.86-.72-1.22-1.58-1.08-2.58l.62-1.29c1.31-1.14,2.82-1.64,4.54-1.5Z"/>
    <g>
      <path class="cls-4" d="M187.54,20.31c-.19,1.95-.73,3.84-1.72,5.45.73.83,1.67,1.54,2.92,2.11.33.14.45.41.45.67,0,.42-.36.87-.83.87-.53,0-2.26-1.11-3.39-2.48-1.2,1.44-3.17,2.61-3.75,2.61-.45,0-.78-.41-.78-.8,0-.27.14-.52.48-.66,1.37-.55,2.44-1.34,3.22-2.33-.7-1.16-1.17-2.42-1.44-3.64l-.02.02c-.17.27-.44.38-.69.38-.22,0-.44-.09-.56-.23v.22c-.11,3.51-.38,6.57-2.64,6.57-.3,0-1.39-.06-1.39-.91,0-.34.2-.67.58-.67.08,0,.19.02.3.06.17.08.33.11.45.11.37,0,.64-.25.78-.69.44-1.26.51-2.83.53-4.2,0-.45-.23-.52-.86-.52-.16,0-.33,0-.5.02-.27,2.54-.83,5.14-2.19,6.81-.17.2-.39.3-.61.3-.42,0-.83-.33-.83-.7,0-.12.05-.27.16-.39,1.72-2.12,2.08-5.71,2.23-8.79l-1.25.03h-.02c-.47,0-.7-.34-.7-.69s.23-.69.7-.69h.02l1.73.03-.02-1.75c0-.48.39-.72.77-.72s.78.23.78.72l-.02,1.75,1.87-.03h.02c.45,0,.67.34.67.67,0,.36-.22.7-.67.7h-.02l-2.42-.03c-.03.5-.06,1.01-.11,1.54.33-.02.7-.02,1.01-.02.76,0,1.26.06,1.51.7.03-.08.06-.17.12-.27.94-1.31,1.69-3.56,1.92-5.03.06-.39.39-.58.72-.58.39,0,.78.25.78.69,0,.55-.61,2.23-.69,2.44l4.25-.02c.44,0,.64.33.64.67s-.2.67-.64.67h-.91ZM183.67,20.29l-.02.03c.2,1.53.58,2.97,1.29,4.21.66-1.23,1-2.67,1.14-4.23l-2.42-.02Z"/>
      <path class="cls-4" d="M192.99,19.61c-.44,0-.67-.33-.67-.64,0-.33.23-.64.67-.64h4.37c.45,0,.67.31.67.64s-.22.64-.67.64h-4.37ZM202.52,29c0,.42-.36.62-.7.62s-.72-.22-.72-.64v-.02l.05-3.28c-.87,1.44-2.59,3.25-3.31,3.25-.38,0-.66-.3-.67-.62-.31.66-.87.73-2.15.73-.41,0-.81-.02-1.08-.03-.67-.05-1.11-.55-1.12-1.23,0-.41-.02-.77-.02-1.12s.02-.69.02-1.03c.02-.59.39-1.16,1.11-1.19.31-.02.73-.03,1.14-.03s.8.02,1.03.03c.56.03,1.19.44,1.2,1.11.02.36.02.73.02,1.12s0,.75-.02,1.09c0,.05-.02.08-.02.12.05-.08.14-.14.23-.2,1.37-.87,2.4-2.01,3.17-3.31l-2.23.05h-.02c-.41,0-.61-.31-.61-.61,0-.33.2-.64.62-.64l2.73.03-.02-1.01c-.42-.02-.84-.03-1.17-.05-1.03-.05-1.51-.62-1.56-1.4-.02-.47-.03-.98-.03-1.5s.02-1.06.03-1.54c.03-.62.45-1.3,1.58-1.34.52-.03,1.16-.03,1.83-.03s1.33,0,1.87.03c1,.03,1.56.66,1.59,1.33.02.56.03,1.17.03,1.78,0,.44,0,.87-.03,1.26-.05.72-.66,1.36-1.59,1.42-.34.03-.78.05-1.25.05v1.01l3.01-.03c.44,0,.66.33.66.64s-.2.61-.64.61h-.02l-2.61-.05c.97,1.22,2.14,2.19,3.36,2.93.27.16.38.39.38.62,0,.41-.36.81-.8.81-.87,0-3.11-2.83-3.33-3.12l.05,3.36h0ZM193.59,17.47c-.42,0-.62-.31-.62-.62s.2-.62.62-.62h3.22c.42,0,.64.31.64.62s-.22.62-.64.62h-3.22ZM193.62,21.64c-.42,0-.62-.31-.62-.62s.2-.62.62-.62h3.06c.42,0,.64.31.64.62s-.22.62-.64.62h-3.06ZM193.62,23.65c-.42,0-.62-.31-.62-.62s.2-.62.62-.62h3.06c.42,0,.64.31.64.62s-.22.62-.64.62h-3.06ZM196.05,26.73c0-.25,0-.52-.02-.73-.03-.39-.3-.42-1.01-.42-1,0-1,.02-1,1.14,0,.25.02.51.02.75.02.28.05.38,1.09.38.31,0,.91,0,.91-.39.02-.22.02-.47.02-.72ZM201.13,17.39c-1.37,0-1.42,0-1.42,1.33h1.44l-.02-1.33ZM201.14,19.75h-1.44c0,1.01,0,1.31.69,1.34l.76.02-.02-1.36ZM202.47,19.75l-.02,1.36c1.54,0,1.54-.02,1.54-1.36h-1.53ZM204,18.72c0-.27-.01-.53-.01-.76-.02-.56-.36-.56-1.5-.56v1.33h1.51Z"/>
      <path class="cls-4" d="M211.54,23.32c-1.06.86-1.29.97-1.53.97-.44,0-.75-.39-.75-.78,0-.23.11-.47.38-.62,1.34-.78,2.68-2.15,3.64-3.75.16-.25.38-.36.59-.36.42,0,.81.41.81.8,0,.14-.05.28-.14.42-.48.69-.98,1.31-1.51,1.89l-.17,7.04c-.02.47-.39.7-.78.7-.36,0-.72-.22-.72-.67v-.03l.19-5.6ZM210.2,20.58c-.36,0-.78-.23-.78-.7,0-.25.16-.52.52-.73,1.22-.7,2.23-1.76,3-3.03.17-.28.41-.39.62-.39.41,0,.78.34.78.76,0,.14-.05.31-.16.47-1.26,1.83-3.2,3.62-3.98,3.62ZM218.17,23.29c.7-.02,1.73-.05,2-.05.75,0,1.17.44,1.17,1,0,.62-.78,1.83-1.51,2.64.78.51,1.78.89,3.03,1.05.39.05.58.34.58.67,0,.39-.28.81-.83.81-.34,0-2.14-.3-3.75-1.61-1.87,1.51-3.78,1.81-3.95,1.81-.48,0-.75-.36-.75-.72,0-.28.19-.55.56-.62,1.2-.22,2.26-.78,3.12-1.45-.42-.5-.76-1.01-1.01-1.55-.72.92-2.09,2.23-2.68,2.23-.41,0-.72-.34-.72-.7,0-.17.08-.36.28-.48,1.54-1.05,2.28-1.94,3.25-3.62-.53.05-1.72.16-2.42.16-.39,0-.59-.33-.59-.67,0-.31.19-.64.58-.64.52,0,1.03-.02,1.55-.03l.03-.02c.34-.27.7-.53,1.06-.86-.61-.62-1.34-1.19-2.08-1.55-.27-.14-.38-.34-.38-.56,0-.33.28-.64.67-.64.2,0,.53.16.72.26.58-.59,1.08-1.37,1.42-2.11.11-.23.31-.33.53-.33.41,0,.86.33.86.72,0,.31-.78,1.47-1.76,2.39.36.26.69.56.98.86.66-.7,1.26-1.47,1.7-2.14.14-.22.38-.31.59-.31.41,0,.81.28.81.67,0,.76-2.64,3.08-3.14,3.48.97-.08,1.9-.2,2.79-.33-.11-.11-.23-.2-.34-.3-.17-.14-.25-.31-.25-.45,0-.31.33-.58.69-.58.62,0,2.51,1.78,2.51,2.5,0,.44-.37.77-.75.77-.23,0-.45-.11-.61-.38-.12-.2-.25-.41-.39-.59-1.03.2-2.2.39-3.42.53.03.08.05.16.05.23,0,.12-.03.25-.12.39l-.08.11ZM219.69,24.54c0-.14-.12-.17-.23-.17h-.05c-.11,0-.98.03-1.69.03.25.53.59,1.06,1.05,1.56.34-.39.92-1.16.92-1.42Z"/>
      <path class="cls-4" d="M234.43,18.06c-.09.09-1.03,1.08-1.54,1.08-.39,0-.7-.31-.7-.64,0-.16.08-.33.27-.47-.06.02-.12.03-.19.03h-2.81c-1.34,2.08-1.9,2.09-2.08,2.09-.39,0-.73-.3-.73-.67,0-.16.08-.34.25-.5.97-.88,1.59-1.78,2.14-3,.11-.25.31-.36.53-.36.38,0,.76.31.76.72,0,.11-.02.22-.08.33-.03.08-.08.14-.11.22h2.12c.41,0,.61.3.61.59,0,.12-.05.23-.11.34.69-.5,1.17-1.01,1.75-1.97.11-.19.28-.27.45-.27.34,0,.7.33.7.7,0,.23-.11.38-.28.59h3.62c.41,0,.61.3.61.58,0,.3-.2.59-.61.59h-4.57ZM239.13,26.02l-2.79-.05.02.44v1.25c0,.83-.53,1.92-2.25,1.92-.72,0-1.48-.05-1.48-.81,0-.36.22-.72.59-.72.05,0,.09,0,.14.02.28.06.56.11.8.11.45,0,.77-.19.77-.8v-.03l-.02-1.37-7.42.05c-.42,0-.64-.31-.64-.62s.22-.64.64-.64l7.4.02v-.34c0-.42.34-.62.7-.62s.73.2.73.64v.33l2.81-.02c.44,0,.66.31.66.62s-.22.64-.64.64h-.02ZM227.7,23.74c-.45,0-.69-.31-.69-.62,0-.3.23-.61.69-.61h4.92l-.02-1h-3.58c-.45,0-.69-.3-.69-.59,0-.31.23-.61.69-.61h3.58v-.31c0-.47.36-.7.73-.7s.72.23.72.7v.31h3.43c.45,0,.67.3.67.61,0,.3-.22.59-.67.59h-3.43l-.02,1h4.84c.42,0,.66.33.66.64s-.2.59-.66.59h-11.18ZM230.34,19.9c-.19-.36-.44-.59-.7-.8-.16-.11-.22-.25-.22-.39,0-.28.28-.55.62-.55.3,0,1.42.62,1.42,1.31,0,.41-.36.7-.69.7-.17,0-.34-.09-.44-.28ZM231.4,28.19c-.47-.45-1.01-.66-1.53-.84-.22-.08-.31-.27-.31-.45,0-.34.3-.72.7-.72.22,0,2.33.5,2.33,1.41,0,.41-.36.8-.75.8-.16,0-.3-.06-.44-.19ZM236.19,19.89c-.19-.36-.44-.59-.7-.8-.16-.11-.22-.25-.22-.39,0-.28.28-.55.62-.55.3,0,1.42.62,1.42,1.31,0,.41-.36.7-.69.7-.17,0-.34-.09-.44-.28Z"/>
      <path class="cls-4" d="M245.61,28.79c-1.53.53-1.78-1.14-.69-1.44,2.48-.67,3.86-2.58,3.97-4.9-1.73.02-3.45.06-4.54.09-.53.02-.81-.33-.81-.7s.28-.77.89-.77c2.22-.03,7.13-.06,9.68-.08.55,0,.8.37.77.75-.03.37-.31.72-.86.7-.84-.03-2.12-.03-3.5-.02-.14,2.83-1.81,5.28-4.9,6.35ZM246.17,19.4c-1.17,0-1.09-1.48.02-1.47,1.97.02,3.36-.05,5.4-.09.55-.02.8.36.8.72s-.27.75-.73.75c-2.15.03-3.81.09-5.48.09ZM253.97,19.75c-.16-.28-.76-.98-1.05-1.17-.7-.5.08-1.26.73-.86.37.23,1.06.81,1.33,1.25.47.76-.64,1.48-1.01.78ZM255.91,18.8c-.26-.28-.81-.94-1.09-1.12-.72-.47.03-1.28.7-.89.38.22,1.08.78,1.36,1.2.48.75-.42,1.39-.97.81Z"/>
      <path class="cls-4" d="M259.59,25.91c-1.44.87-2.25-.72-1.19-1.23,2.87-1.41,5.85-4.28,7.62-7.06.69-1.08,2.06-.08,1.39.83-.7.94-1.37,1.78-2.04,2.56-.05,1.59-.08,5.68-.03,7.24.03,1.19-1.66,1.33-1.64.05.02-1.25.08-3.79.09-5.62-1.23,1.2-2.58,2.25-4.2,3.23Z"/>
      <path class="cls-4" d="M281.08,22c0,2.98-1.26,5.48-4.14,7.13-1.25.72-1.87-.72-.91-1.25,2.42-1.33,3.5-3.31,3.5-5.82v-.36c-.84,0-1.67.02-2.5.03,0,.89,0,1.72-.02,2.33-.02.53-.39.81-.8.81s-.81-.28-.78-.8c.03-.64.05-1.45.05-2.31-.98.03-1.95.06-2.83.11-1.22.06-1.17-1.42-.09-1.45.94-.03,1.92-.05,2.9-.06-.02-.73-.03-1.42-.06-1.95-.05-1.06,1.48-1.19,1.54-.06.03.52.05,1.22.06,1.98.84-.02,1.67-.03,2.51-.05,0-.81,0-1.58-.02-2.01-.06-1.29,1.58-1.22,1.56-.02-.02.62-.02,1.31-.02,2.01,1-.02,2-.03,2.93-.03,1.47-.02,1.14,1.55.05,1.51-.97-.03-1.95-.05-2.97-.05v.3Z"/>
      <path class="cls-4" d="M289.43,23.35c-.56,0-.83-.37-.83-.75s.3-.8.83-.8h9.8c.53,0,.8.39.8.78s-.26.76-.8.76h-9.8Z"/>
      <path class="cls-4" d="M307.03,25.43c-.03.76.31,1.14,1.25,1.26.91.12,3.43-.03,4.54-.42,1.19-.41,1.86,1.28.33,1.69-1.4.37-3.79.42-5.43.22-1.37-.17-2.2-1.06-2.22-2.34-.02-1.56.09-5.04.11-6.9,0-1.09,1.61-.88,1.59.05-.02.84-.05,2.01-.08,3.17,1.23-.23,3.75-.94,4.92-1.45,1.14-.5,1.92,1.09.58,1.56-1.48.5-3.76,1.22-5.54,1.42-.02.69-.03,1.31-.05,1.75ZM312.65,19.56c-.8-.33-.17-1.28.55-1.01.42.16,1.2.58,1.55.95.61.66-.3,1.61-.81,1-.2-.25-.97-.8-1.28-.94ZM314.07,18.22c-.8-.31-.23-1.25.5-1.01.42.14,1.22.53,1.58.89.62.62-.25,1.61-.78,1.01-.22-.23-.98-.76-1.3-.89Z"/>
      <path class="cls-4" d="M320.17,28.22c-1.14.42-1.67-1.11-.5-1.51,2.84-.98,5.31-3.48,6.54-5.81.14-.27.08-.52-.27-.52-.98-.02-3.14.06-4.51.09-.94.03-1-1.47,0-1.51,1.14-.05,3.43-.08,5.01-.08,1.4,0,2.2.89,1.59,1.95-.53.92-1.09,1.81-1.73,2.65,1.3.78,3.28,2.09,4,3.09.62.87-.55,2.09-1.28,1.17-.76-.95-2.37-2.37-3.65-3.14-1.37,1.53-3.06,2.79-5.2,3.61Z"/>
    </g>
    <path class="cls-1" d="M174.82,57.3l6.55.09s.41,20.01.41,21.21l-7.62-.14s.46-17.71.66-21.16Z"/>
    <path class="cls-1" d="M177.65,45.78c.27-.84.72-.84.99,0l.31.96c.27.84,1.21,1.52,2.09,1.52h1.01c.88,0,1.02.42.31.94l-.82.6c-.71.52-1.07,1.62-.8,2.46l.31.96c.27.84-.09,1.1-.8.58l-.82-.6c-.71-.52-1.88-.52-2.59,0l-.82.6c-.71.52-1.07.26-.8-.58l.31-.96c.27-.84-.09-1.94-.8-2.46l-.82-.6c-.71-.52-.57-.94.31-.94h1.01c.88,0,1.82-.68,2.09-1.52l.31-.96Z"/>
  </g>
</svg>